<svg id="Layer_1" data-name="Layer 1" xmlns="http://www.w3.org/2000/svg" xmlns:xlink="http://www.w3.org/1999/xlink" viewBox="0 0 150 150"><defs><style>.cls-1{fill:none;}.cls-2{clip-path:url(#clip-path);}.cls-3{fill:#fff;}</style><clipPath id="clip-path"><rect class="cls-1" x="28.2" y="25" width="96.7" height="96.6"/></clipPath></defs><g class="cls-2"><path class="cls-3" d="M123.39,79.45H116.6V26.57a1.51,1.51,0,1,0-3,0V31.1h-3a1.51,1.51,0,1,0,0,3h3v3h-3a1.51,1.51,0,0,0,0,3h3v3h-3a1.51,1.51,0,1,0,0,3h3v3h-3a1.51,1.51,0,0,0,0,3h3v3h-3a1.51,1.51,0,1,0,0,3h3v3h-3a1.51,1.51,0,1,0,0,3h3v3h-3a1.51,1.51,0,0,0,0,3h3v3H106V39.85a3,3,0,0,0-3-3h-3a3,3,0,0,0-3,3V73.41h-.68c0,1,0,2-.07,3H97a3,3,0,0,0,3-3V39.85h3V73.34a3,3,0,0,0,3,3h7.55v3H92.89a32.53,32.53,0,1,0-12.53,20.82l2.34,2.34-.53.53a1.46,1.46,0,0,0,0,2.11l14.42,14.41a6.77,6.77,0,0,0,4.83,2,7.09,7.09,0,0,0,4.84-2,6.78,6.78,0,0,0,0-9.58L96.06,99.89l-4.3-4.3a1.46,1.46,0,0,0-2.11,0l-.53.53-2.34-2.34a32.27,32.27,0,0,0,5.51-11.32h31.1a1.51,1.51,0,1,0,0-3Zm-19.32,32.73a3.74,3.74,0,0,1,0,5.36,3.81,3.81,0,0,1-5.36,0l-9.06-9.05L95,103.13ZM90.7,98.83l2.12,2.11-5.36,5.36-2.12-2.11ZM83.53,93a1.51,1.51,0,0,0,.08,2l3.32,3.31L85.5,99.74l-.68.68L81.49,97.1a1.49,1.49,0,0,0-2-.08,29.52,29.52,0,0,1-47-14.56H89.12A28.8,28.8,0,0,1,83.53,93Zm6.34-13.5H31.75a29.52,29.52,0,0,1,49.9-26A29.33,29.33,0,0,1,89.87,79.45Z"/></g><path class="cls-3" d="M88,43.62a3,3,0,0,0-3,3v1.58c.3.3.68.6,1,.9a20.6,20.6,0,0,1,2,2.27V46.64h3v8.82a41.52,41.52,0,0,1,3,6V46.71a3,3,0,0,0-3-3H88Z"/><path class="cls-3" d="M60.89,38.64v.08c1,0,2,.07,3,.15v-.23h3v.6a19.65,19.65,0,0,1,3,.68V38.64a3,3,0,0,0-3-3h-3A3,3,0,0,0,60.89,38.64Z"/><path class="cls-3" d="M48.81,50.71v22.7H34.31c0,1,0,2,.08,3H48.81a3,3,0,0,0,3-3v-24A14.8,14.8,0,0,0,48.81,50.71Z"/><path class="cls-3" d="M60.89,47.84V66.55h-3V48a20.68,20.68,0,0,0-3,.53v18a3,3,0,0,0,3,3h3a3,3,0,0,0,3-3V48.07A21.33,21.33,0,0,0,60.89,47.84Z"/><path class="cls-3" d="M78.93,59.69h-3a3,3,0,0,0-3,3V73.41h-3v-24a19.92,19.92,0,0,0-3-.91V73.34a3,3,0,0,0,3,3h3a3,3,0,0,0,3-3V62.63h3V73.34a3,3,0,0,0,3,3h3a3.2,3.2,0,0,0,2.34-1.14A25.88,25.88,0,0,0,85,63.38v10H82V62.7A3,3,0,0,0,78.93,59.69Z"/></svg>