<svg id="Layer_1" data-name="Layer 1" xmlns="http://www.w3.org/2000/svg" viewBox="0 0 855 430"><defs><style>.cls-1{fill:#fefefe;}.cls-2{fill:#6e4431;}.cls-3{fill:#4c7937;}.cls-4{fill:#72a11d;}.cls-5{fill:#72a11f;}.cls-6{fill:#72a21f;}.cls-7{fill:#4c7a37;}.cls-8{fill:#72a220;}.cls-9{fill:#72a11e;}.cls-10{fill:#72a120;}.cls-11{fill:#72a21e;}.cls-12{fill:#72a122;}.cls-13{fill:#75a31e;}.cls-14{fill:#f7d41f;}.cls-15{fill:#f7d51e;}.cls-16{fill:#72a020;}.cls-17{fill:#f6d31d;}.cls-18{fill:#73a120;}.cls-19{fill:#73a122;}.cls-20{fill:#72a121;}.cls-21{fill:#f7d41e;}.cls-22{fill:#f6d41d;}.cls-23{fill:#f7d41d;}.cls-24{fill:#f7d51d;}.cls-25{fill:#507c3c;}.cls-26{fill:#eaba1f;}.cls-27{fill:#6e4532;}.cls-28{fill:#f7d51f;}.cls-29{fill:#f6d320;}.cls-30{fill:#f7d220;}.cls-31{fill:#719f21;}.cls-32{fill:#e9b41d;}.cls-33{fill:#eab51f;}.cls-34{fill:#e9b51e;}.cls-35{fill:#e9b51d;}.cls-36{fill:#eab61c;}.cls-37{fill:#eab51c;}.cls-38{fill:#e9b61d;}.cls-39{fill:#74a126;}.cls-40{fill:#9ab38e;}.cls-41{fill:#547f41;}.cls-42{fill:#eab71b;}.cls-43{fill:#8e593f;}.cls-44{fill:#8e583f;}.cls-45{fill:#ecb921;}.cls-46{fill:#568042;}.cls-47{fill:#6e9c21;}.cls-48{fill:#8f5a40;}.cls-49{fill:#8f5940;}.cls-50{fill:#6c9b20;}.cls-51{fill:#739663;}.cls-52{fill:#ecb923;}.cls-53{fill:#4f7b3a;}.cls-54{fill:#4b3125;}.cls-55{fill:#88a67a;}.cls-56{fill:#598346;}.cls-57{fill:#86a477;}.cls-58{fill:#492f22;}.cls-59{fill:#598245;}.cls-60{fill:#669231;}.cls-61{fill:#60884d;}.cls-62{fill:#719e2d;}.cls-63{fill:#482f23;}.cls-64{fill:#4d7a37;}.cls-65{fill:#5d864a;}.cls-66{fill:#547f40;}.cls-67{fill:#a3ba99;}.cls-68{fill:#4f3428;}.cls-69{fill:#638a51;}.cls-70{fill:#5d8b28;}.cls-71{fill:#588243;}.cls-72{fill:#85a377;}.cls-73{fill:#5d8c28;}.cls-74{fill:#527d3e;}.cls-75{fill:#7c9d6d;}.cls-76{fill:#5d8a31;}.cls-77{fill:#56842c;}.cls-78{fill:#ebba24;}.cls-79{fill:#759765;}.cls-80{fill:#5e8a39;}.cls-81{fill:#648b52;}.cls-82{fill:#5e893a;}.cls-83{fill:#f5a42c;}.cls-84{fill:#669137;}.cls-85{fill:#557145;}.cls-86{fill:#558041;}.cls-87{fill:#f5a72a;}.cls-88{fill:#598539;}.cls-89{fill:#5e8a36;}.cls-90{fill:#8d583f;}.cls-91{fill:#5a8639;}.cls-92{fill:#729562;}.cls-93{fill:#658c53;}.cls-94{fill:#8d583e;}.cls-95{fill:#558233;}.cls-96{fill:#639031;}.cls-97{fill:#639225;}.cls-98{fill:#688e56;}.cls-99{fill:#4f7d30;}.cls-100{fill:#6d915c;}.cls-101{fill:#f4a929;}.cls-102{fill:#f2aa28;}.cls-103{fill:#f2ac28;}.cls-104{fill:#95af88;}.cls-105{fill:#f3a62a;}.cls-106{fill:#588244;}.cls-107{fill:#5b8448;}.cls-108{fill:#60814a;}.cls-109{fill:#4b7836;}.cls-110{fill:#578042;}.cls-111{fill:#719561;}.cls-112{fill:#5a6c5d;}.cls-113{fill:#56842e;}.cls-114{fill:#618850;}.cls-115{fill:#80a071;}.cls-116{fill:#4e7b3a;}.cls-117{fill:#4f7b3b;}.cls-118{fill:#d47146;}.cls-119{fill:#568236;}.cls-120{fill:#72a01f;}.cls-121{fill:#3d5b37;}.cls-122{fill:#82a174;}.cls-123{fill:#eec950;}.cls-124{fill:#89a67b;}.cls-125{fill:#4f372b;}.cls-126{fill:#608b3b;}.cls-127{fill:#698e57;}.cls-128{fill:#d77c4c;}.cls-129{fill:#618c36;}.cls-130{fill:#a4bb9a;}.cls-131{fill:#5d8938;}.cls-132{fill:#becfb7;}.cls-133{fill:#59843f;}.cls-134{fill:#659128;}.cls-135{fill:#598244;}.cls-136{fill:#436236;}.cls-137{fill:#5c8549;}.cls-138{fill:#d4762d;}.cls-139{fill:#588144;}.cls-140{fill:#436628;}.cls-141{fill:#678d55;}.cls-142{fill:#649229;}.cls-143{fill:#628f2d;}.cls-144{fill:#3f5f30;}.cls-145{fill:#618e34;}.cls-146{fill:#5e864b;}.cls-147{fill:#5a8539;}.cls-148{fill:#688d57;}.cls-149{fill:#608a43;}.cls-150{fill:#588534;}.cls-151{fill:#5f8d2b;}.cls-152{fill:#58764d;}.cls-153{fill:#68933c;}.cls-154{fill:#eea937;}.cls-155{fill:#5e883c;}.cls-156{fill:#5c8449;}.cls-157{fill:#6e915d;}.cls-158{fill:#58843a;}.cls-159{fill:#698f58;}.cls-160{fill:#4d7a39;}.cls-161{fill:#6b905a;}.cls-162{fill:#6f935f;}.cls-163{fill:#618f32;}.cls-164{fill:#4d7938;}.cls-165{fill:#8c583f;}.cls-166{fill:#82513a;}.cls-167{fill:#8b573e;}.cls-168{fill:#83523a;}.cls-169{fill:#8c573e;}.cls-170{fill:#83513a;}.cls-171{fill:#84523b;}.cls-172{fill:#59882a;}.cls-173{fill:#5f8e27;}.cls-174{fill:#56852c;}.cls-175{fill:#54822d;}.cls-176{fill:#679622;}.cls-177{fill:#53812d;}.cls-178{fill:#54832d;}.cls-179{fill:#58862b;}.cls-180{fill:#58872a;}.cls-181{fill:#5f8d27;}.cls-182{fill:#53812e;}.cls-183{fill:#57852b;}.cls-184{fill:#659424;}.cls-185{fill:#5c8b28;}.cls-186{fill:#639125;}.cls-187{fill:#53822d;}.cls-188{fill:#5e8d27;}.cls-189{fill:#629125;}.cls-190{fill:#5c8b29;}.cls-191{fill:#52812e;}.cls-192{fill:#55832c;}.cls-193{fill:#5c8a29;}.cls-194{fill:#55842c;}.cls-195{fill:#52802e;}.cls-196{fill:#608f26;}.cls-197{fill:#5a882a;}.cls-198{fill:#5e8e27;}.cls-199{fill:#f0ab28;}.cls-200{fill:#f7b925;}.cls-201{fill:#c75527;}.cls-202{fill:#3b1407;}.cls-203{fill:#371007;}.cls-204{fill:#451c09;}.cls-205{fill:#699921;}.cls-206{fill:#e3decf;}.cls-207{fill:#6d8440;}.cls-208{fill:#481b0a;}.cls-209{fill:#bc881b;}.cls-210{fill:#f59f2d;}.cls-211{fill:#507e2f;}.cls-212{fill:#3e1308;}.cls-213{fill:#f7bd24;}.cls-214{fill:#421c08;}.cls-215{fill:#2f0c05;}.cls-216{fill:#f4a629;}.cls-217{fill:#679623;}.cls-218{fill:#5e8d28;}.cls-219{fill:#6d9c20;}.cls-220{fill:#f4ae2e;}.cls-221{fill:#4c200a;}.cls-222{fill:#3b1706;}.cls-223{fill:#310f05;}.cls-224{fill:#f3b126;}.cls-225{fill:#3d1308;}.cls-226{fill:#f7bf24;}.cls-227{fill:#341106;}.cls-228{fill:#507f2e;}.cls-229{fill:#56852b;}.cls-230{fill:#f4bc24;}.cls-231{fill:#441909;}.cls-232{fill:#381506;}.cls-233{fill:#2d0b05;}.cls-234{fill:#471a0a;}.cls-235{fill:#431d08;}.cls-236{fill:#f2b624;}.cls-237{fill:#f6c222;}.cls-238{fill:#3e1907;}.cls-239{fill:#351406;}.cls-240{fill:#421b08;}.cls-241{fill:#f5a52b;}.cls-242{fill:#2b0b04;}.cls-243{fill:#f5ba24;}.cls-244{fill:#f5ab29;}.cls-245{fill:#eab81a;}.cls-246{fill:#471f09;}.cls-247{fill:#2e0d04;}.cls-248{fill:#340d07;}</style></defs><path class="cls-1" d="M793.05,403.87c-1.31,3-3.92,1.35-5.81,1.36-35.33.12-70.67.09-106,.09q-304.58,0-609.15.17c-6.17,0-6.92-1.58-6.92-7.18q.28-194.82,0-389.64c0-5.22,1.07-6.3,6.31-6.3q357.57.24,715.15,0c5.74,0,6.54,1.61,6.53,6.8q-.23,194.46-.12,388.91c-2.36,2.13-5.31,2.06-8.19,2.07-18.79,0-37.58.3-56.36-.12-8.58-.2-15.27-4.53-22.22-10-7.79-6.12-11.76-16.67-22.44-19.22-2.68-.69-4-2.54-4.38-5.16a19.73,19.73,0,0,1-.3-3.6c.9-23.87-1.39-47.68-1.62-71.53-.08-8,1.69-14.47,8.32-19.6,11-8.52,21-18.41,33.62-24.73a6.42,6.42,0,0,1,2.45.52c.9.33-.37.11.58.24.61.08.68-.13.1-.23a3.73,3.73,0,0,1-1.8-4.16,21.07,21.07,0,0,1,1.59-3.19,12.13,12.13,0,0,0-1.85,2.93c-5.2,7.56-13.78,11-20.44,16.82-4.51,3.92-9.65,7.11-14,11.32-1.67,1.63-3.66,3.94-6.15,2.78s-1.94-4.12-2.22-6.47c-1.62-13.62-.68-27.3-.93-41-.16-9.49,0-19,0-28.44.54-12-.56-23.9-1.8-35.81a53.53,53.53,0,0,1,.3-15.11c.24-.66.78-1.84,1-1.75,6.12,2.11,9.21-3,13.34-5.53a4.76,4.76,0,0,1,3.48.31c5.4,3.5,8,.79,9.67-4.19a6.81,6.81,0,0,1,1.84-.89c2.62-.75,5.43,0,8-1.08,2.7-2.57.55-6.65,2.92-9.31,2-1.76,4.67-1.5,7-2.26,1.12-.56,5.33,1.06,1.86-2.73-.73-.8-.83-2.12-1-3.25s-.43-2.93.4-3.42c7-4,5.7-9.55,3-15.39.54-.8-.45,0,.27-.64,5.34-4.49,5.63-8.77-.39-12.89a4.79,4.79,0,0,1-.11-3.45c2.07-4.5.91-7.63-3.68-9.57a4.57,4.57,0,0,1-2.28-2.59,5.1,5.1,0,0,1-.44-2.79c1.56-6.15-1.68-7.48-6.87-6.93a4.06,4.06,0,0,1-2.23-2.57c-1.33-6.33-5.1-7.62-10.7-5.38a6.2,6.2,0,0,1-1.94-.52c-.4-.24-.93-.48-1.07-.88-2.35-6.71-6.33-7.64-11.83-3.38A4.75,4.75,0,0,1,681,44.17c-3.64-3.72-6.53-2.37-9.25,1.08a5.36,5.36,0,0,1-3.74,1.36c-8.25-3-8.25-3-10.7,3.69a5.13,5.13,0,0,1-2.13,2.1c-3.06,1.6-6.14-2.66-9.17.07-1.53,2.93-.07,6.46-1.92,9.31a3.24,3.24,0,0,1-2.33,1.39c-6.28-.13-7.18,3.42-5.94,8.48-.14.7-.25,1.61-.8,1.91-6.71,3.79-6.32,8.71-2.38,14.25,0,.23.06.55-.07.68-4.72,5-4.85,10.09-.17,15.21-.69,4-4.93,8.78,2.59,10.78,1.55.6,3.17,1.08,4.35,2.34a7.24,7.24,0,0,1,0,4.86c-1.22,4.46,1.47,5.25,4.9,5.47,5.08,2.15,5.66,6.47,5.44,11.16-1,1.79-2.79,1.55-4.57,1.73,1.28,2,2.86,3.68,3.76,5.79,4.38,10.31,11.31,17.21,23.29,17.46a4.11,4.11,0,0,1,3.62,2.09c.06,12.15,1.84,24.24,1,36.4-.11,3.79.26,7.59-.31,11.37.06,24.06,1,48.11,1,72.17a42.47,42.47,0,0,1-.26,7.22c-.87,4.91-3.25,6.26-7.44,3a23.06,23.06,0,0,1-6.61-5.33c-1.81-2.14-3.94-2.35-6.39-1.55-3.54-.36-7.28,1-10.59-1.26a8,8,0,0,1-1.76-2.65c-7.34-9.8-17.56-11.67-30-5.48,8.74,12.67,17.49,15.29,30.61,9.16a5.13,5.13,0,0,1,2.17-.09c3.39.74,6.82.18,10.22.4,5.12-.27,7.59,4.18,11.36,6.33,6.23,4,8.82,9.64,8.79,17-.06,16.53,0,33.06,0,49.6,0,2.86.12,5.77-1.32,8.43-1.48,1.94-3.58,2.05-5.76,1.94-5-1.82-7.82.87-9.94,4.78-1.89,3.46-3.86,6.53-8.06,7.76-2.8.83-3.65,3.68-4.34,6.29-1,3.71-3.48,5-7.17,6-21.43,6-43.26,2.59-64.87,2.71-7.23,0-14-3.61-20.31-9.16s-11-12-17-17.49c-2.23-2.06-4.88-1.73-7.54-1.11a5.76,5.76,0,0,1-4.59-1.23c-2.14-3.38-1.1-7.41-2.26-11,.56-8.53-1.55-17.05-.16-25.58,1.34-4.22.76-8.63,1.26-12.93a9.81,9.81,0,0,1,1.7-4.08c1.53-1.82,3.4-3.31,5-5,2.08-2,3.9-4.3,6.42-5.84,1.18-.81,2-2,3.28-3.07-1.29.89-2,2-3.09,2.76-2.93,1.86-5,4.64-7.62,6.9-2.88,2.38-4.89,1.8-5.61-1.86-.6-3.06-.39-6.24-1.22-9.29a56.62,56.62,0,0,1,.19-10c1.23-15,.23-30.08.56-45.11,0-2.63-.1-5.26.19-7.88a34.68,34.68,0,0,1,1.4-6.13c-1.85-12-1-24.19-1.31-36.28-.11-5.44.14-11,.29-16.43.16-2-.76-3.79-.61-5.73.92-2,2.9-2.56,4.71-3,6.45-1.52,10-6.42,13.49-11.33s8.15-9.38,8.22-16.12c0-2.32.09-4.62-3.39-3.1-2.5.68-4.4-2.11-7-1.18a2.58,2.58,0,0,1-1.62-.89c-2.73-7.24-2.73-7.24-7.33-2.22-3.94,1.66-8.32.27-12.3,1.71-2.58.05-2.37-5.8-6.25-2.9-1.24,2.78-1.33,6.86-6.44,4.66-1.87-.81-2.62,2.45-4.63,2.51-5.51-1.61-5.51-1.61-7.31-7.66.57,10.51,6,17,11.2,23.63,4.88,7,12.5,11,18.5,16.76a61.17,61.17,0,0,1,.3,17.82c-.66,1.19-1.53,1.62-2.76.79-1.63-1.94-1.94-4.62-3.64-6.53-2.71-4.41-7.28-6.1-11.76-7.85-3-1.17-4.28-.16-4.47,3.25-.54,9.87,3.29,16.33,12.58,20.36,2.86,1.15,6.24.2,8.9,2.17,2.44,2.67,1.51,6,1.51,9,0,7.46.65,15-.23,22.36-.37,3.06,0,8-5.81,7a109.16,109.16,0,0,1-9-11.59c-.06-16.07-7.14-24.4-24.37-28.66-1.32,15.29,7.26,26.4,22.29,28.84,4.7,2,6.64,6.42,9.31,10.23,4.63,4.82,7.19,10.45,6.93,17.23.59,17.33-1,34.65,0,52,0,6,.18,12-.22,18-.48,7.34-4.36,9.7-10.54,5.91-5.81-3.56-13.36-4.69-17-11.41a8.9,8.9,0,0,1-.51-2.67,10.26,10.26,0,0,0-.27-1.34c-.57.34-.16,1.06-.59,1.49a3.12,3.12,0,0,1-1.69.9,7.87,7.87,0,0,1-3.68-1.35c-.8-.54.24.13-.6-.34s-1.32-1.31-2.31-1.42a16,16,0,0,1,2.27,1.56c1.76,1.12,3.69,1.91,5.55,2.85,1.25,1.38,3,2.68.64,4.57a64.83,64.83,0,0,1-13.92.56,25.81,25.81,0,0,1-4.11-1.48,10,10,0,0,0-8.6-.13c-7.53,2.46-12,9.55-18.12,12.16,12.94,7.49,24.89,6.22,33.63-8.12,4.36-4.32,9.92-1.74,14.88-2.6,6.93,2.13,12.85,6.29,19.23,9.53,2.64,1.34,4.82,3.83,4.91,6.72.26,8.5,2,17-.15,25.53a4.73,4.73,0,0,1-4.18,1.67c-1.89-.1-4.41-.9-5.53.59-4.94,6.57-12.59,10.78-16.53,17.93-2.26,4.1-4.15,6.87-9,6.18-3-.42-4.67,2.24-7.2,2.86-17.6,1.42-35.24,1-52.82.26-6.74-.31-12.67-4.18-18.29-9-6.53-5.58-12.1-11.92-18.17-17.85-1.45-1.41-3.52-1.43-5.5-1.13a4.9,4.9,0,0,1-3.41-1c-2.77-4.6-1.56-9.86-2.25-14.78-1.33-9.5-1.18-19.14-1.69-28.72-.78-14.74,7-24.94,17.84-33.37a100,100,0,0,0,8.11-7.1,65.58,65.58,0,0,1,11.29-8.82,24.64,24.64,0,0,1,6.45-.93,5.18,5.18,0,0,1,4.17.09c11.78,12.08,13.18,12.45,29.58,7.85-6.66-12.38-18.07-16.44-29.35-9-1.73.47-3.55.49-5.25,1.09-1.81-.19-3.72.71-5.42-.5-.39-4.54.37-8.77,3.23-12.47,10.11-5.66,12.25-21.11,7.65-33.52-14.71,11.39-19.14,24.37-11,33.59,2.3,6.76.09,12.27-4.83,17-1.7,1.62-3.77,2.82-5.44,4.48-6.6,6.8-14.6,12.09-20.77,19.36-1.26,1.49-3,3.38-5.42,1.3-2.15-8.61.35-17.46-1.49-26.08,0-13.2-2.23-26.38-.34-39.57.91-1.65,3.27-3.39-.24-4.85a71.39,71.39,0,0,1-.23-8.14c.12-10.49-.07-21,0-31.44-.22-3.49,1.19-6.59,2.43-9.73a21.44,21.44,0,0,0,.64-14.88c-.76-2.3-1.42-5.47-5.25-4.61a6.46,6.46,0,0,0-2.38,2.72c-2.46,6.66-2,12.93,2.15,18.85a11.1,11.1,0,0,1,2.34,6.58c-.74,18.05,1,36.13-.47,54.16-1.38,1.12-4.68,1.71-1.15,4.2a10.66,10.66,0,0,1,1.61,5.22c.14,4-.24,8,.76,12,0,10.56,1.25,21.07.75,31.63,1.14,10.48.29,20.95-.14,31.42a4.43,4.43,0,0,1-.95,2.21c-2.6,1.17-4.26-1-6.33-1.76-3.49-2.15-8-2.67-10.61-6.25-1.58-1.5-3-3.17-4.57-4.66,1.35,2.28,4.74,3.24,3.75,6.83-3.52,1.39-7.18.32-10.76.65a8.19,8.19,0,0,1-4.16-.81c-11-6.78-20.12-2.89-28.6,4.84a18,18,0,0,0-4.17,4.46,4.45,4.45,0,0,0-.47,1.43c1.11,1.38,2.8.73,4.14,1.21,5.83,1.35,11.6,3.46,17.69,1.4,4.44-1.5,8.32-3.77,10.54-8.15,1.16-1.87,1.81-4.29,4.67-4.32,7,.35,14.35-1.69,20.85,2.67a28.54,28.54,0,0,1,6.25,3.86c1.17.9,2.35,2,2.46,3.41.79,9.84,3.14,19.63,1.18,29.58-1.43,1.74-3.41,1.95-5.46,1.93-5.13-1.38-9,0-11.2,5.09A11.58,11.58,0,0,1,356.1,384c-5.61,1.88-4.52,8.07-7.38,11.76-15.77,5.27-32.11,5.28-48.23,3.47a28.5,28.5,0,0,1-17.84-9.3c-5.37-5.72-11-11.56-16.7-17.12-1.8-1.75-4-1.35-6.14-.93a25,25,0,0,1-10.51-.1,5.44,5.44,0,0,1-2-1.3c-2.06-3.42-.68-7.18-1.08-10.76q0-6.24,0-12.47c-.05-3.38-1.1-6.68-.74-10.09-.06-7.54-.1-15.08,0-22.61a18.12,18.12,0,0,1,.18-2.32c.72-2.08,2-3.48,4.34-3.64-1.25-.74-3.48.91-4.17-1.49-.87-6.87,0-13.78-.51-20.66-.19-.75-.37-1.51-.53-2.26-.07-2.36,0-4.71,0-7.06-.1-2.83.25-5.68-.26-8.5-.93-5.42-.35-10.89-.55-16.33-1.2-9-.59-18.12-.46-27.17,10.09-15.33,5.21-33-7.36-45.78-2.57,3.71-3,8-4,12.09a40,40,0,0,0,0,16.12c1.64,5.78,3.72,11.31,8.25,15.57a8.13,8.13,0,0,1,2.86,5.59c.26,8.05-.64,16.14.66,24.15a46.65,46.65,0,0,0,0,7.84c.13,3-.3,6.08.69,9,.09,2.79,0,5.58.05,8.37.11,2.51-.28,5,.32,7.51.86,11.29.3,22.59.41,33.87a13.87,13.87,0,0,1-.36,3.58c-.58,1.09-1.33,1.72-2.6,1-1.48-2.15-2.16-4.85-4.39-6.51-2.81-.37-5.64.38-8.46-.12-1.55-.64-3.23-.52-4.85-.74a8.16,8.16,0,0,1-1.91-.66c-8-5.57-16.1-10.92-26.57-6.26-2.4,1.06-5.79,1.63-6.13,4.44-.42,3.52,3.53,3.24,5.69,4.35,9.63,5,19,4.24,28.16-1.41a11.22,11.22,0,0,1,4.36,0c3,.89,6,.21,9,.44,2.51.76,2.86,3.32,4.2,5.05,1,2.78,4.52,4.34,3.86,7.92.26,4.61-.47,9.26.53,13.85a17,17,0,0,1,.21,3.57v12.16c-.39,3.12.89,6.4-.89,9.39-4.13,2.52-8.31,4.93-10,9.95a5.9,5.9,0,0,1-4.09,3.86c-4,1-6.05,3.68-7,7.44s-3.4,5-7.21,5.87c-7.74,1.76-15.29,3.44-23.38,3.46a61.5,61.5,0,0,1-21.82-4.33c-1.14-.43-2.49-.74-3.12-1.75-4.61-7.33-13.22-10.79-17.64-18.24-2-3.44-5.2-4.85-8.85-5.67-2.94-1.48-2.62-4.23-2.64-6.81,0-7.1,0-14.2,0-21.29a41.77,41.77,0,0,0-.55-12.07,7.19,7.19,0,0,1-.13-2.12,2.44,2.44,0,0,0,0,1.44,22.15,22.15,0,0,1,.7,6.39c.28,4.42-.2,8.82,0,13.23-.14,6.8.32,13.6-.26,20.38a4,4,0,0,1-1.39,1.92c-.42.22-.89.62-1.3.55-10.09-1.52-17.56,1.94-22,11.35-4,1.34-7.48,3.06-8.27,8-.55,3.47-3.22,4.56-6.57,5.59-9.11,2.81-18.41,3.78-27.89,4.13,8.61,1.53,17.21.77,25.8,1,2,0,4.06-.22,6.09-.06,6.53.09,13-.32,19.57,0,1.81,0,3.61,0,5.42,0q42.69-.55,85.37,0c2.26.19,4.54-.24,6.8,0,6.67.33,13.35-.35,20,.08,1.82,0,3.64,0,5.47,0,31.35-.4,62.71-.35,94.06,0,2.27.16,4.55-.13,6.82,0,6.68.28,13.36-.27,20,0,1.83.14,3.65.11,5.48.08q57.17-.6,114.33,0c2.28.18,4.56-.25,6.84,0,6.69.28,13.37-.33,20.06.08,1.83,0,3.66,0,5.49,0,39.1-.48,78.2-.18,117.29-.2,2.72.48,5.47-.07,8.2.14,6.7.24,13.4-.32,20.1.08,1.84,0,3.68,0,5.52-.05,38.13-.48,76.25-.14,114.37-.17C787.8,401.57,790.72,401.75,793.05,403.87Z"/><path class="cls-2" d="M793.05,403.87l-123.47-.24c-2.18-.67-1.66-2.34-1.39-3.92-1.45,1-1.58,2.94-3,3.89l-20.22,0c2.23-5.5,6.91-9.1,10.54-13.5,1.07-.83,2.54-.85,3.66-1.78.8-.37.09-.59,0-.42-1.13,1.53-3.17,1.44-4.73,2.31a2.93,2.93,0,0,1-2.69-.95c-.77-1.87-.15-3.81,1.51-4.18,5.76-1.3,7.79-5.71,9.73-10.42.83-2,2.11-3.78,4.69-3.78,5.06,1.72,10.09,6.32,15.22.16a18.34,18.34,0,0,1,1.14-1.49c4.08-1.67,6.86-.63,8.61,3.61s8.59,4.69,7.47,11c-.21,1.2,1.87.6,3,.24a3.9,3.9,0,0,1,5.21,2.61c3.1,10.19,12.19,10.29,19.79,10.56,21.65.78,43.34.38,65,.44Z"/><path class="cls-2" d="M668.14,372a3.34,3.34,0,0,0-3.25,2.28c-2,6.08-4.32,11.8-12,12.58-.33,0-.5,1.68-.75,2.57.06,5.45-3.54,8.19-7.75,10.53-2.25,1.25-4.42,2.64-6.78,3.7l-119.08,0c-1.44-5.49-3-.45-4.44,0l-20.22,0c2.33-5.32,7.06-8.79,10.29-13.37.26-.38,1-.19,1.05-.91a8.83,8.83,0,0,1-1.58.95c-4.63,4.33-7.85,10.48-15.1,11.26-2-1.51-5.94.33-6.45-3.74.92-1.81,2.63-3.83,4.3-3.29,6.78,2.19,9.27-.49,9.24-7a2.29,2.29,0,0,1,1-1.81c7.55-2.61,10.55-9.73,15.4-15a4.26,4.26,0,0,1,6.45-.25c4.31,1.93,8.63,6.79,12.9-.05,4.4-2.28,8-2.86,10.29,3,1.57,4.09,8.82,4.45,7.43,11-.28,1.32,1.88.39,2.89.06a4.16,4.16,0,0,1,5.59,3.15c2.29,9.51,11.29,9.33,17.27,9.76,17.78,1.27,35.71.38,53.58.5,5.33,0,9.42-5.5,15.44-2.95,1.25.53,2.19-2.71,2.27-4.69.11-2.78.93-6.4,3.4-6.62,6.7-.59,7.8-5.81,10.52-10.11,2.07-3.26,5.16-6,9.64-3.14C669.61,371.35,668.73,371.52,668.14,372Z"/><path class="cls-2" d="M123.38,403.61l-20.22,0c2.32-5.31,7.06-8.76,10.26-13.35a5.69,5.69,0,0,1,1-.56c-.71-.24-1,.52-1.66.65-2,.7-3.44,3.93-6.11,1.28-1.41-6.56,3.37-8,8-9.65a32.09,32.09,0,0,1,1.62-4.6c2.75-5.25,5.75-9.93,13.12-7.12,2.1.81,4.67.38,7,.52.53.53-.52,1.66.11,1.59,1.37-.15,2.4-1.27,3.47-2.15,1.12-.66,2.6-.05,3.64-1,3.59-1,6.12,0,7.38,3.68,1.55,4.5,9.09,5.05,7.69,11.65-.14.65,1.62.44,2.45.05a3.53,3.53,0,0,1,5,1.6c5.26,12,15.87,12,26.38,11.58,6.93-.27,14.41,2.42,20.67-3.09.59-.52,2.3,0,3.41.3,3.63,1,5.34-.09,5.71-4,.44-4.55,2.07-8.53,7.7-8.67,3.32-.09,3.32-2.85,4.28-5,1.93-4.23,4.12-8.3,9.87-7.74a2.36,2.36,0,0,1,1.69,1.09c-1.53,7.28-5.64,12.49-12.66,15.14-3.31,1.25-6.28,2.54-6.44,6.68-1.26,6.57-7.88,7.44-11.87,11.1H127.81C126.36,398.15,124.86,403.18,123.38,403.61Z"/><path class="cls-2" d="M482.1,397.83c1.69,1.58,5.28-.42,5.91,3.14a1.62,1.62,0,0,1-.05,2.63H371.86c-1.5-4.41-2.94.25-4.41,0l-20.23,0c3.18-4.81,8.08-8.22,10.85-13.34a4.41,4.41,0,0,1,2.77-1.2c-1.65-.12-2.41.82-3.31,1.47-3.41,1.59-3.65,8-9.32,6.13a1.65,1.65,0,0,1,.2-1.89c1.18-5.7.63-12.46,9.47-12.79,2.89-.11,2.38-3.8,3.59-5.75,2.74-4.39,5.3-9.05,11.78-5.66,4.32,3.12,8.6,4.12,12.75-.27,4.2-2.25,7.45-2.55,9.6,3,1.57,4,8.51,4.67,7.3,11-.21,1,1.93.72,3,.33,2.12-.76,4.25-.18,4.94,1.66,4.6,12.08,14.92,11.61,25,11.63C451.29,397.9,466.7,397.85,482.1,397.83Z"/><path class="cls-2" d="M348.41,394.77l.17,1.88c-.31,4.55-5.13,4.38-7.31,7H245.48c-1.48-4.24-3-.76-4.44,0h-20.2c3.26-4.6,7.38-8.54,10.3-13.33a3.09,3.09,0,0,0,.83-.65,4.61,4.61,0,0,0-1.12.56c-1.85,1-3.21,3.11-5.72,2.13-.3-3.59,1.19-6.43,4.68-7.1,8.41-1.63,11.88-8.18,15.63-14.59a1.91,1.91,0,0,1,2.87-.14v.15c4,3.18,7.85,3.13,11.56-.48,4-2.15,7-2.19,9,2.92,1.66,4.24,8.82,5.05,7.65,11.55-.11.62,2,0,3.16-.23a3.88,3.88,0,0,1,4.78,2.29c4,10.74,13.53,10.49,22.33,11.08,7.67.51,15.39.12,23.09.09,3,0,6,.48,8.43-2.42C341.13,392.09,345.18,398,348.41,394.77Z"/><path class="cls-3" d="M684,369.59a5.38,5.38,0,0,1,0,1c-2.92,2.26-5.81,2.42-8.67-.09-.06-20.42-.33-40.84-.05-61.25.1-6.91-4.84-10-8.53-14.24,0-1.24.19-2.22,1.81-1.5,2.27.55,3.84,4.06,6.14,2.7,2.09-1.23,1.12-4.41,1.11-6.7-.13-22.64-.43-45.28-.5-67.93a9.59,9.59,0,0,0-3.09-7c-.66-.7-1.4-1.67.21-1.89.77-.11,1.67.7,2.51,1.1,2.6-.56,2.45,1.32,2.58,2.92.29,3.44-.54,6.94.53,10.34.73,15.06.08,30.18,2,46.5,12.62-13.26,28.44-21,40.68-33.21.55-.18,1.12-.34,1.47.29.14.25-.06.62-.33,1-.37,2.28-.45,4.38,2.7,4.6.09,2.77-1.68,1.65-3,1.44a7.28,7.28,0,0,0-5.34,1.68c-11.14,8.39-22.21,16.86-32.67,26.1a9.65,9.65,0,0,0-3.61,8.13c.63,26.91,1.1,53.82,1.69,80.73C681.7,366.27,680.92,368.83,684,369.59Z"/><path class="cls-4" d="M134.88,309.74a25.21,25.21,0,0,1-11.54-18.89,33.61,33.61,0,0,1-.08-13.66c.07-2.76-.08-5.57,1.78-7.93,2.65-2.88,0-8,4.22-10.18a94.57,94.57,0,0,1,15.88,24.7c4,9.25-.79,17-5,24.69C138.29,308.57,136.85,310.22,134.88,309.74Z"/><path class="cls-5" d="M753.89,194c-1.77,6.44-3.28,13-5.35,19.3-3,9.14-9.18,14.67-19.13,15.34l-1.7-3.87c-.3,2.54-1.43,3.62-4,2.25a23.23,23.23,0,0,1,10.52-27.3c5.75-3.41,12-5.91,18.09-8.83C755.26,190.76,754.55,192.4,753.89,194Z"/><path class="cls-5" d="M217.87,295.7c-15.58,3.38-27.36-2.37-33.32-16.52a45.83,45.83,0,0,0-7.49-12.94c10.63-.14,19.74,3,28.37,6.14,6.36,2.31,10.83,8.89,13.93,15.47C220.56,290.79,220.37,293.46,217.87,295.7Z"/><path class="cls-6" d="M242.29,227.13c-6.78-4.24-10.06-10.67-11.51-18.25a59.75,59.75,0,0,1,0-18.4c.4-5.56,2.51-10.57,4.79-15.75,15.9,16.71,19.51,35.39,9.8,49.41C242.82,223.54,243.78,226.6,242.29,227.13Z"/><path class="cls-5" d="M645.94,254.74c-7.16-6.06-8.76-14.09-7.69-22.82a71.08,71.08,0,0,1,2.79-11.2c2.9-9.83,3.2-9.87,10.68-2,9.61,10.09,9.27,28.75-.68,37.72a1.78,1.78,0,0,1-2.06-.19c-.92-2.1-.25-4.3-.42-6.45.14-5.32,1.36-10.73-1.35-15.8a10.69,10.69,0,0,1-.11-1.38c0-.51,0-.93,0-1.24.85.46-.08-.12-.13.69-.12,2,1.38,3.41,1.55,5.26a73,73,0,0,1,0,11.83C647.69,251,650.46,254.57,645.94,254.74Z"/><path class="cls-7" d="M525.93,333.51v26.3c1,3.45.57,6.95.32,10.44a2.38,2.38,0,0,1-3.52.19c0-6.21-.17-12.43.15-18.62.36-7-2.25-11.78-8.81-14.65-5-2.18-9.65-4.94-14.46-7.43-1.05-1-4,0-3.07-3l-2.68-2.65a1.78,1.78,0,0,1,0-2.76c.41,0,.82-.09,1.22-.15a2,2,0,0,1,2.89.17c4.32,8.71,13.37,10.38,21.13,13.68,3.45,1.47,3.43-2.33,3.54-4.52.31-6,.36-12,.51-18,.86-18.32.79-36.64,0-55,.23-6.22-4.57-10.47-6.27-15.93a1.21,1.21,0,0,1,1.88-.15c1.31.3,3.43,3,3.82.27,1.72-12.12,3.35-24.31.32-36.5a6.65,6.65,0,0,1-1.66-3.14c-.28-3.29-.39-6.51,2.92-8.59q-.06-10-.1-19.91a1.42,1.42,0,0,1,1.84,0l1.12,4.23c-1.18,17-.2,34-.53,51a4.4,4.4,0,0,0,2.41,4.07c-.62,1.46-1.25,2.91-1.87,4.37-1.23,15.46-.17,31-.56,46.43-.07,3.08.53,6.2-.54,9.22a17.1,17.1,0,0,1,0,8.84c1.52,5.08-1,10.93,3,15.55L527,319.87C525.59,324.33,527.38,329.05,525.93,333.51Z"/><path class="cls-8" d="M640.34,177.11c8.48,2.42,15.88,6.76,21.06,13.88,1.92,2.63,3.58,6.37,1.33,10.07-1.38,1.23-3.51-.28-4.79,1.32-11.36,2-19.32-2.92-25-12.4-2.8-4.68-5.58-9.36-8.61-14.45,2.8-.79,5.18-.74,7.49.7C634.52,178,637.51,176.76,640.34,177.11Z"/><path class="cls-6" d="M630.15,258.94c-2.12,2.56,2.5,6.65-1.15,8.16s-8.08.55-12-1.06a28.76,28.76,0,0,1-14.87-13.75c-3-5.86-6-11.74-9.38-18.27,9.09,2,17.4,3.95,24.52,9.23,3.37,1.37,2.9,5.8,5.95,7.42,1.76,1.28,3,3.08,4.58,4.56C628.8,256.35,629.05,257.91,630.15,258.94Z"/><path class="cls-9" d="M178.78,304.09c-1.5,4.23-2.82,8.54-4.54,12.68-4.27,10.3-17.32,17.65-26.62,15.27-1.16-.3-2.44-.11-2.06-1.91.74-3.47.43-6.95.18-10.43,4.27-10.9,13.09-15.34,24-16.79C172.68,303.86,176,302.17,178.78,304.09Z"/><path class="cls-10" d="M489.43,301c-11.49-5.94-15.93-14.58-13.8-27.22,1-6.13,2.35-12.21,3.86-19.93C483,263.16,489,269,493.24,276c5,8.17,4.62,15.86-.89,23.49A3.49,3.49,0,0,1,489.43,301Z"/><path class="cls-6" d="M764.05,260.75c-13,3.22-24.24-1.09-29.31-11.29-.13-5.21,4-1.66,5.8-2.78,1.63-.12,2.5,1.16,3.62,2a6.52,6.52,0,0,1,2,2.86c.91,3.48,1.22-.66,1.86-.11.55-.24,1.58.06,1.64-.69.07-1.1-1.08-1.15-1.9-1.42a9.43,9.43,0,0,1-4.74-1.85c-1.46-1.25-3.25-.59-4.88-.87-2.07-.37-3.12-1.3-1.66-3.41,10-6.88,22.34-5.29,29.73,4,2.92,3.66,8.27,5.12,9.34,10.4.28,2.93-2,1.86-3.39,2.14C769.49,260.19,766.51,258.56,764.05,260.75Z"/><path class="cls-5" d="M202.81,212.85c13.26,2.32,23.28,9.89,30.42,21.32,2.57,4.13,2.37,8.73,1.38,12.81C210.26,248.38,205.13,231.67,202.81,212.85Z"/><path class="cls-10" d="M281.49,283.44c2.13-10.16,9.81-15.27,19.71-13.12,3.74.82,7.48,1.66,11.22,2.46,3.52.76,7,1.49,10.54,2.22-6,9.8-22.49,17.72-33.34,15.91a9.83,9.83,0,0,1-6.64-3.86C282.53,285.83,282.6,284.39,281.49,283.44Z"/><path class="cls-10" d="M353,233.87c-9.92-2.56-15.06-9.6-17.6-18.93-1.08-3.94-1.74-8-3.78-11.63,14.52,1,28.05,10.52,30.53,21.24.57,2.44,1.11,4.7-.64,6.84C359.24,234.31,355.84,233.23,353,233.87Z"/><path class="cls-5" d="M508.25,233c-10.24.29-20.65-8.36-22.93-19.17-1-4.62-1.73-9.28-2.72-14.64,11.37,3.6,22,7.3,27.79,18.29,2.26,4.29,3.87,8.9,1.19,13.74C510.65,232.12,509.05,231.81,508.25,233Z"/><path class="cls-9" d="M415.14,265c-5.89-6.14-6.39-15.32-1.21-22.91a41.49,41.49,0,0,1,3.09-4c3.67-4.13,7.4-8.21,11.2-12.42,6.55,15.66,4.28,29.44-6.3,39.35A11.36,11.36,0,0,1,415.14,265Z"/><path class="cls-10" d="M267,276.38c-6.2-9.16-3.87-20.74,5.93-28.82,4-3.33,8.29-6.4,12.48-9.63,4.79,17.88,1.15,27.26-15.16,39.38C269.26,276.75,267.93,277.3,267,276.38Z"/><path class="cls-5" d="M345.82,336.17c-6.86,10.42-15,12.25-30.6,6.85-1.11-1.73-5,.69-4.71-3.13V340a36,36,0,0,0,4.69-5.69c10.92-11.13,19.72-12.84,30.46-5.91,1.7,2.58-.13,3.36-2.08,4.07C346.66,332.29,346.59,334,345.82,336.17Z"/><path class="cls-5" d="M688.3,177.69c-.14-11.2,8.89-19.79,21.31-20.27,2.81-.17,6.1-2.58,8,1.7a42.49,42.49,0,0,1-6.57,17.4c-2,1.18-3.3,3.1-5,4.53-4.67,2.66-9.44,4-14.57,1.21C689.37,181.4,689.48,179.11,688.3,177.69Z"/><path class="cls-11" d="M308.37,306.77a104.72,104.72,0,0,1-7-8.77c-1.19-1.8.7-1.54,1.81-1.48a82.59,82.59,0,0,1,21.25,0c4,3.57,11.44,2.91,12.61,10.05.8,2.12,1.6,4.24-1.51,5.22-2.52-1-4.42-2.85-6.59-4.63,1.42,1.87,3.45,2.7,5.12,4,1.62,1.09,4.45.88,4.57,3.55.07,1.75-2.24,1.24-3.11,2.26-8.36,3.56-15.49,1.44-21.74-4.69A36.15,36.15,0,0,0,308.37,306.77Z"/><path class="cls-5" d="M485.25,333.24c-7.85,13.51-19,15.46-36.84,6,7.25-4.19,12-11.33,20.18-13.71a19,19,0,0,1,10,0l2.27.81C481.71,329,487.52,328.55,485.25,333.24Z"/><path class="cls-12" d="M223.61,318.38c-5.52,5.26-12.14,6.43-19.31,4.76a60.75,60.75,0,0,1-10.85-3.58c-2.67-1.18-7.55-1.1-7.4-4.24.15-3.47,4.57-5,7.8-6.59,9.75-4.76,21.6-2.63,30,6.64-2.68,1.65-5.57.46-6.7.6-2.62,0-1.88.81-1.79.78,2.73-.94,5.53-.59,8.32-.15A1.27,1.27,0,0,1,223.61,318.38Z"/><path class="cls-13" d="M525.89,173.59l-1.84,0c-8.71-1.67-13.85-7.89-18.6-14.59.12-3.29,2.7-2.58,3.94-1.7,4.08,2.92,3.11-1.61,4.43-2.71,3.6-1,5,1.8,7.09,4.08,1-1.92.76-5.18,4.27-4.71,1.5.61,1.91,2,2.31,3.31,2.69-4.39,6.52-1.31,9.83-1.57a6,6,0,0,1,1.6,2.07c1.34,1.21,2.5-.11,3.74-.28,2-.28,3.25.12,2.13,2.5C540.64,167.52,535.09,173.08,525.89,173.59Z"/><path class="cls-10" d="M270.24,216.79c-.43,11-3.43,20.66-14.06,26.29-2.24,1.19-4.81,2.24-6.84.87s-2-4.22-1.72-6.61c1.24-13,9.35-21.08,20-27.12C270.22,208.75,270.47,209.24,270.24,216.79Z"/><path class="cls-14" d="M713.75,57.39c10-2.43,10.1-2.31,7.2,10.28a19.59,19.59,0,0,1-2.82,7.9,17.57,17.57,0,0,1-7.57,6,5.17,5.17,0,0,1-2.89.07,8,8,0,0,1-3.07-2.22,9.81,9.81,0,0,1-1.09-1.47,14.75,14.75,0,0,0-2.39-3.7c-2.87-1.28-5.69-2.6-6.23-6.21a6.87,6.87,0,0,1-.17-1.92c.38-2,1.1-3.71,3.11-4.58,1.63.17,2.88-.69,4.11-1.6C705.69,58.14,709.31,55.79,713.75,57.39Z"/><path class="cls-5" d="M673.86,164.86c-11.65,1.67-19.17-4.33-24.51-13.67-2.34-4.1-4-8.61-7.35-12.94h6.9a15.83,15.83,0,0,1,3,0c2,.16,4.09.08,6.14.14a10.2,10.2,0,0,1,4.14.89,4.29,4.29,0,0,1,2.32,4.36c-.62,2.25-3.55,1.06-4.39,2.94-.39,1.36.75,1.73,1.55,2.33,1.5,1.57,3.62,2.25,5.2,3.61,1.38.19.21-.9.55-1.24a3.71,3.71,0,0,1,.61-1.74,4,4,0,0,1,3.7-1.42,4.86,4.86,0,0,1,3.53,3.94C675.38,156.39,677.86,161,673.86,164.86Z"/><path class="cls-15" d="M698.54,61.92l-3,4.66a3.43,3.43,0,0,1-2.73.55c-1.26-.29-2.47-.71-3.7-1.1-1.88-.62-3.77-1.19-5.69-1.7-2-.68-4.26-.74-5.81-2.48-1.24-2.05-1.22-4.28-.91-6.55,1-5.18,4.42-8.45,8.79-10.95,8.58-6.68,8.58-6.68,13.12,4.25C701.28,53.06,701.7,57.5,698.54,61.92Z"/><path class="cls-16" d="M534.37,224.13c.09-11.13,11-21.1,22.27-20.36,1.61.11,2.61.52,2.91,2.34,1.63,9.67-7.85,22.41-17.75,23.75-2.6.36-4.73-.29-6.13-2.65,1.54-2.72,5.5-1.54,6.93-4.32-1.65-.68-2.62.58-3.79,1.21C537.33,224.9,535.86,225.66,534.37,224.13Z"/><path class="cls-17" d="M707.6,80.75l2.56,0c3-1.25,6.13-2.22,9.48-1.47a18.28,18.28,0,0,1,8.42,4.28c8.4,6.23,8.4,6.23-.36,13.09a16.13,16.13,0,0,1-8.39,5.67c-2.48.51-5.17.38-7.22,2.3-1.47.85-3,1.59-4.73,1-1.38-1.46-.86-3.14-.57-4.8.09-.68.22-1.34.36-2a28.32,28.32,0,0,1,.7-3c.74-2,.71-4.29,2.77-5.6,5.08-1.78,7.43-2,13.28-1.31-4.35.08-8.76-1.09-13,1-3.23-.77-3.7-3.53-4.45-6.1A3.17,3.17,0,0,1,707.6,80.75Z"/><path class="cls-18" d="M389.15,219.48c1.51-5.83,5.55-8.78,11.23-9.89,5.68-.72,11.35-1.45,16.95.46a70.09,70.09,0,0,1-11.93,18.29c-4.41,4.87-10.24,6.08-16.15,1.73a2.07,2.07,0,0,1-.65-1.87c.29-1.53,1.52-2.24,2.67-3a5.53,5.53,0,0,1,3.47-.56c1.21.27,3.63,1.19.46-1-.76-.53,1-1.7,2.22-1.87.09,0,2.52,1.6.81-1-1.19-1.79,2.24-1.42,2.95-2.73a16.27,16.27,0,0,0-4.83,2.86c-2,1.94-3.74,4.48-6.94,4.78C387.93,223.69,388.41,221.59,389.15,219.48Z"/><path class="cls-19" d="M645,289.66a19.67,19.67,0,0,1-24.9-1.16c-3.41-3-6.51-6.29-9.84-9.54,16.81-7.77,28.09-6.22,35.66,4.68-.8,2.61-2.7,2.82-4.95,2.28-3-1.17-4.67-4.35-8-5a20.47,20.47,0,0,0-5.06-.86c-1.84,1,.54,1.91,0,2.84,1,2.15,3.21,0,4.51,1.16,2.32.71,4.83.54,7.09,1.52C641.09,287.33,645.41,285.35,645,289.66Z"/><path class="cls-10" d="M563.23,273.6c-3.6-5.69-2.24-14.62,2.63-20.93,4.24-5.5,11-7.51,15.83-12.17.81-.78,3.62-1.6,3.07,1.39-1.54,8.27.31,17.51-6.63,24.32a1.62,1.62,0,0,1-1.72.46c-1.75-1.69-4.37-2.08-6-3.91a3.76,3.76,0,0,0,0-1.38,4.32,4.32,0,0,0-.66,1.28,22.43,22.43,0,0,1-.78,2.57C567.06,268,568.5,273.11,563.23,273.6Z"/><path class="cls-20" d="M427,274.81c10-7.57,21.81-5.71,29.52,5.08,1.33,1.86,3.27,3.35,4.19,5.56-18.4,7-27.69,4.95-34.08-7.3C426,276.94,426.76,275.9,427,274.81Z"/><path class="cls-21" d="M643.41,128.47c-7.62.45-7.62.45-4.7-11a8,8,0,0,1,.89-3.69,67.45,67.45,0,0,1,4.14-7.49c2.36-2.12,5.16-2.25,8.1-1.72a6.57,6.57,0,0,1,2.75,2.55c.54.75,1.07,1.51,1.66,2.23,1.21,1.41,2.58,2.67,3.88,4s2.72,2.82,2.76,5a8.51,8.51,0,0,1-1,2.83,17.28,17.28,0,0,1-4,4.73C653.62,129.92,648.31,128.09,643.41,128.47Z"/><path class="cls-22" d="M652,105.39l-7.14,1.46c-5.17,2.13-9.12-1-13.29-3.11-7-7.83-7-7.83.29-15.69,2.18-2.35,5.15-3.22,8-4.31,4-.45,8.2-1.71,10.66,3.08a8.88,8.88,0,0,1,.44,2.33,7.81,7.81,0,0,1-1,4.36c-3.08,2.75-6.93,2.45-10.68,2.58-.95.13-.19.34-.14.32,2.63-1,5.65.38,8.24-1.26a3.31,3.31,0,0,1,1.94-.24,7.07,7.07,0,0,1,2.27,3.2,31.3,31.3,0,0,1,1.15,5.62A2.3,2.3,0,0,1,652,105.39Z"/><path class="cls-5" d="M599.84,298.1c-11.35,4.13-19.84,1.93-27.6-7.16-.9-1.26-.89-2.37.52-3.26,2.44,1.59,5.27,1.16,8,1.53,2.16,2.29,5.82-.07,7.88,2.51.9.44,1.73,2.92,2.74.07a2.88,2.88,0,0,1,2.56.41c.66.44,1.27,1,2.18.7a3.46,3.46,0,0,1-2.53-.92c-4.24-.16-8.16-1.84-12.31-2.4-2.23-1.83-5.31.2-7.53-1.65a2.32,2.32,0,0,1,0-3.14c14.64-6.57,25.47-2.57,32,11.8C604,298.27,601.47,296.43,599.84,298.1Z"/><path class="cls-10" d="M514,204c-7.3-1.42-10.94-6.26-12.24-13.18a45.68,45.68,0,0,1-.51-5.73c-.56-10,.27-10.73,9.47-6.27,3.48,1.68,8.19,2.47,9.3,7.38,0,1.82,4,3.94-.39,5.44a1.13,1.13,0,0,1-1.1-.71c0-.06-.13-.07-.21-.11-.23,3.39,0,6.68,2,9.62C521.08,206.6,517.18,204.61,514,204Z"/><path class="cls-23" d="M634.9,72c-.12-.46-.22-.92-.37-1.36-2.91-8.49-2.92-8.49,6.36-9.06.7,0,1.41,0,2.11,0a11.11,11.11,0,0,1,2-.69A51.11,51.11,0,0,1,653,62.15a43.3,43.3,0,0,1,4.68,1.65,19.1,19.1,0,0,1,4.7,3.38,3,3,0,0,1,.47,1.8c-.59,1.92-2.18,3-3.61,4.16a33.56,33.56,0,0,0-2.52,2.68,5.08,5.08,0,0,1-3.47,1.5,7.4,7.4,0,0,1-4-1.63c1,1.48,2.87,1.89,3.49,3.51a4.36,4.36,0,0,1,0,3.1,4.43,4.43,0,0,1-2.34,2.11c-5.09.79-8.75-1.79-12.12-5.09C636,77.46,635.23,74.85,634.9,72Z"/><path class="cls-24" d="M662.18,67.71a4.42,4.42,0,0,1-4.28-3c-5.58-4.44-3.23-9.7-1.54-14.88,1.39-10.13,2.46-10.48,11.73-3.85,3.56,1.25,5.72,4.21,8.25,6.72a6.37,6.37,0,0,1,1.18,2.78,50.6,50.6,0,0,1-.11,6.28,4.21,4.21,0,0,1-2,2.42,6.27,6.27,0,0,1-4.2.35c-2.59-.76-2.1-3.32-3.18-5.42.64,2,1.18,3.66.9,5.43a7,7,0,0,1-4.8,3.8A2.32,2.32,0,0,1,662.18,67.71Z"/><path class="cls-15" d="M707.47,105.39l4.34-1.51c1.75-3,4-2,6.29-.79,4.13,3.14,5.13,8,6.63,12.48.24,2.5,6,5.61-.81,7.33-4.94.31-9.75,1.86-14.76,1.47a15.66,15.66,0,0,1-6.25-3.08,10.68,10.68,0,0,1-3.7-5.17c0-.34,0-.68-.06-1s.14-.65.2-1c.94-2,2.73-3.48,3.79-5.44a10.33,10.33,0,0,1,1.13-1.5A4.84,4.84,0,0,1,707.47,105.39Z"/><path class="cls-15" d="M703,136.05c-1.28,9.12-1.28,9.12-13,3.68a12.4,12.4,0,0,1-7.59-7.08c-1.13-3.2-2.14-6.4-.49-9.74a7.41,7.41,0,0,1,3.6-2.6,7.16,7.16,0,0,1,5.25.11c.91.25.79,1.48,1.68,1.77a3.54,3.54,0,0,1-.41-2,4.75,4.75,0,0,1,1-1.69,4.83,4.83,0,0,1,1.82-1,3.56,3.56,0,0,1,2.89.82c.71,1.64,1.54,2,3,1.37,1.16-.48,1.64.67,2.36,1.26C705.82,126,705.93,131.05,703,136.05Z"/><path class="cls-25" d="M406.75,286.68q-10,9.87-19.92,19.75c-3.36,3.35-4.73,7.32-5.2,12.17C380,336,383,353.07,383.71,370.3c-1.59,1.57-3.22,1.54-4.87.1-.28-8.06-.68-16.12-.79-24.18,0-3.48-.77-6.5-3.4-8.89-.32-1.44.06-2.17,1.68-1.66a2.46,2.46,0,0,1,1,0c2.27-7.39.55-15,1-22.44.16-2.94-.11-5.8,3.61-6.68A135.67,135.67,0,0,1,405.15,285C406.58,284.71,407.21,285.17,406.75,286.68Z"/><path class="cls-9" d="M113.64,322.56c3.76-2,6.2.07,8.45,2.72,1.49,2.91.34,4.34-2.66,4.83-.49.08-.46.25,1,1.69a68.25,68.25,0,0,1,9.94,5.59,6.45,6.45,0,0,1,1.41,1.35c.43.88.92,1.75.24,2.73l-2.66,1.09a39.71,39.71,0,0,0-10.39,0c-9.42-2.06-13.44-11.4-21.44-15.57,1.17-3.57,4.07-4.36,7-5C107.57,322.34,110.67,321.47,113.64,322.56Z"/><path class="cls-5" d="M448.89,295.29l4.29,0c3.34.63,6.5,1.5,7.17,5.55a4.44,4.44,0,0,0,2.73,3.28c.58.24,1.13.52,1.68.81,3.11,1.87,6.64,2.71,10,4,4.34,4.83,4.18,5.59-1.72,6.91-5.36,1.2-10.44-.44-15.52-1.84-8.56-3.07-11.9-11.34-17.45-17.4C442.77,294.86,446.13,297,448.89,295.29Z"/><path class="cls-5" d="M351.44,313.87c-9.85-7.14-13.13-20.87-8.12-34.13,1-2.67,2.11-5.3,3.52-8.82l7.57,12.72a2.87,2.87,0,0,1,.53,2.63,28.49,28.49,0,0,1-2.93,5.87,1.89,1.89,0,0,1-1.74.4c-.88-.31-.46-1.39-1.08-1.87a11.5,11.5,0,0,0,.95,3.07,39,39,0,0,1,2.37,8.81C352.39,306.34,354.65,310.37,351.44,313.87Z"/><path class="cls-26" d="M376.56,194.28c-5.36-8.15-10.24-16.39-4.51-26.42,3.77.79,1.05,4.11,2.47,7.17-.58-3.95-.94-6.6-.1-9.25,1-3,1.58-5.13,4.71-1.05,7.72,10.09,4.42,19.68-.45,29.4A1.72,1.72,0,0,1,376.56,194.28Z"/><path class="cls-15" d="M537.24,156.35a38,38,0,0,1-3.51,2c-4.06-5.87-4.17-.6-5.26,1.8a4.13,4.13,0,0,1-.33.52l-1-1.62c-.89-4-2.31-7.86-1.67-12,.59-4.53,3.56-7.81,6-11.35.86-3.1,2.84-7.19,5.42-6.59,3.78.89,3,5.72,3.46,9.12,2.15,3,2,6.4,1.42,9.83C540.63,150.93,541.05,154.81,537.24,156.35Z"/><path class="cls-12" d="M364,204c-11.86-5.07-14.32-15.68-16.28-28.21,7,5.37,15.83,5.73,20.11,13.45-.63,2.15-5.52,2.45-2.63,6.1a30.34,30.34,0,0,0,2.51,2.81,18.63,18.63,0,0,1,1.38,1.43,8.3,8.3,0,0,1,1.63,2.58,2.43,2.43,0,0,1-.54,1.94A8.66,8.66,0,0,1,364,204Z"/><path class="cls-27" d="M114.67,382c-4.13,2.24-7.6,4.93-7.21,10.31,2,3.22-.52,4.8-2.54,6.27-2.47,1.8-5.26,3.15-7.69,5-8.64.09-17.28.22-25.92.23-1.94,0-4.46.87-4.57-2.74-.14-4.08,2.68-3.15,4.89-3.2,4.32-.08,8.73-.57,13,.11,6.27,1,11-5.73,17.59-2.94,1.08.46,2.46-1.9,2.44-3.79C104.54,384.5,108.41,382,114.67,382Z"/><path class="cls-28" d="M525.66,155c-5-.37-1.24,4.72-3.81,6.05l-7.55-6.17a4,4,0,0,1-2.72-2.34,15.07,15.07,0,0,1-.89-4.93c-.41-4.74,1.56-9.15,1.91-13.79.11-2.21.11-5,3.29-2.22,1.68,1.47,2.74,3.66,4.09,5.52,2.35,2.33,5.22,4.3,5.73,8C525.52,148.41,527.75,151.73,525.66,155Z"/><path class="cls-29" d="M512.69,153.19l1.61,1.71c-.12,1.91-.23,3.81-.35,5.75-3.22,1.31-4.88-5.34-8.5-1.62-6.44-6.49-11.13-13.82-12-24.37l9,7.12c3.55,1,5.59,3.89,7.85,6.49C511.41,149.78,511.34,151.82,512.69,153.19Z"/><path class="cls-30" d="M544.79,160c-1.94-4.11-3.24.14-4.56.58-2.12.69-3.05,1-2.49-1.7,1-3,1.9-6,2.92-9a12.42,12.42,0,0,0,1.41-4.57c.9-2.72,3.16-4.14,5.4-5.58,1.15-1.83,2.68-4.17,4.79-3.43,2.35.83,1.15,3.75,1.25,5.74C553.86,149.61,549.94,155.13,544.79,160Z"/><path class="cls-31" d="M457.49,314.07c6.32-.52,12.79,4.07,19.2-.94l-3.21-3.45c-3.29-1.67-6.43-3.73-10.18-4.34l0,0c-1.84-.37-1.51-4-4.35-2.87,0-4-2.94-5.53-5.81-7.17,11.37-2.64,24.85,6.52,27,19.51C472.55,317,464.92,318.81,457.49,314.07Z"/><path class="cls-32" d="M643.41,128.47c4.54-2.52,10.39-.54,14.57-4.25,5.1,1.21,2.17,6.34,4.42,8.94.79,1.8,1.09,3.54-.81,4.89-1.61.85-3.5.5-5.16,1.19-2,.5-4.14-.37-6,.84l-1.5-1.83C646.2,135.48,649.6,129.3,643.41,128.47Z"/><path class="cls-33" d="M724.73,115.57l-7.22-11.63c-.89-1.63.61-2.07,1.43-2.86,3.19-.93,5.25-4.1,8.76-4.41,0,.48-.14,1.15.11,1.4,5.53,5.57,7.44,10.39-2.25,13.53C724.1,112.08,724.89,114.2,724.73,115.57Z"/><path class="cls-34" d="M684.09,132.9c.88,3.22,5.13,3.53,5.91,6.83a18.65,18.65,0,0,0-2.56,3.32c-2.74,5.83-6.15,5.59-10.15,1.33a2.86,2.86,0,0,1-2.63-1.19,7.82,7.82,0,0,1-.91-1.83c-.71-5.51,3.66-7.56,7-10.28C682.5,130.61,683.26,131.81,684.09,132.9Z"/><path class="cls-35" d="M631.59,103.74c5-1.39,8.64,3,13.29,3.11l-4.35,7.24c-1.53,2.33-3.54,2.74-6,1.49C626.85,114.19,626.42,112.46,631.59,103.74Z"/><path class="cls-36" d="M713.75,57.39l-12.22,4.5c-3.88-4-2.12-8.55-1.4-13a14.4,14.4,0,0,0,2.63-1c5.31-3.39,8.07-1.65,9.12,4.22A34.1,34.1,0,0,0,713.75,57.39Z"/><path class="cls-37" d="M728.06,83.58c-2.76-.33-5.44-.9-7.63-2.79-3-1-6.68-1.54-2.92-5.84.84-2.57.6-5.65,3.45-7.28a7.19,7.19,0,0,0,1.75,1.16c5.93,1.82,11.13,3.87,5.36,11.31C727.52,80.86,728,82.42,728.06,83.58Z"/><path class="cls-38" d="M634.9,72l4.17,5.83c.82,2.42,6.44,4.84,0,7.27a8.7,8.7,0,0,1-7.2,2.92c-.41-.56-.81-1.14-1.26-1.68-6-7.34-6-7.33,2.16-12.61A23.2,23.2,0,0,0,634.9,72Z"/><path class="cls-39" d="M354.38,286.48l0-2.84c5.34,8.74,8.65,17.69,2.73,27.5-.43.72-1.43,1.1-2.17,1.63-2.63.84-2.43-1.06-2.76-2.69-.72-3.46,1.6-6.82.26-10.27a8.39,8.39,0,0,1-2.2-4.65,3.61,3.61,0,0,1,1.21-2.86h0C352.59,290.45,352.81,288.13,354.38,286.48Z"/><path class="cls-40" d="M376.56,194.28c.7-.05,1.41-.11,2.12-.15l.15,34.63c-1.47,8.12.92,16.45-1.38,24.53-2.41.38-2.81-1.09-2.76-3,3-8.05,1.6-16.43,1.69-24.66C376.49,215.2,375.37,204.73,376.56,194.28Z"/><path class="cls-38" d="M653.61,63.37c-3,0-6.08.28-8.79-1.52a22.33,22.33,0,0,1,.1-12c3.76-2,6.62,1.46,10,1.66C655.37,55.56,658,59.86,653.61,63.37Z"/><path class="cls-41" d="M675.42,142.71l1.87,1.67c-.52,13.24-1.5,26.59,1.07,39.6.9,4.61,1,8.51-.28,12.73-1.63,1.55,1.17,5-2.45,5.7-.14-10.28-.21-20.57-.45-30.85,0-2.26,1-4.84-1.32-6.7,2.63-4.6,0-9.29.23-13.94C674,148.1,672.81,145.1,675.42,142.71Z"/><path class="cls-42" d="M676.83,54.68l-1.44-1.44C674.47,50,669,49,671,44.32c3.06-6.36,6.8-6.79,11.42-1.44.69.79,2.08,1,3.15,1.47-1.86,3.83-6,6-7.23,10.33C677.81,55.38,677.32,55.38,676.83,54.68Z"/><path class="cls-25" d="M376.53,253c2.67-7.9-.54-16.35,2.3-24.23l.38,8.07c.43.8,1.44,1.09,1.75,2-2.37,2.61-1.7,5.84-1.72,8.87-.07,10.78,0,21.56,0,32.34,1.19,6.64.28,13.32.51,20,0,1.26-.24,2.38-1.88,2.37q-.21-16.33-.4-32.67c-1.35-4,.24-8.18-1-12.15-.86-1.35-2.2-2.48-1.95-4.33A1.3,1.3,0,0,1,376.53,253Z"/><path class="cls-43" d="M225.13,392.33c2-.87,3.25-3.12,5.76-3,1.54-.55,1.8.16,1.46,1.47-3,5-5.33,10.63-11.51,12.8h-6a6.31,6.31,0,0,1,4.88-5.46C222.78,397.27,224.79,395.6,225.13,392.33Z"/><path class="cls-44" d="M341.27,403.63c.26-4.59,5.33-4.17,7.31-7,4.27-.8,4.22-6.73,8.69-7.29,1.51-.52,1.84.13,1.47,1.47a21.41,21.41,0,0,1-11.52,12.77Z"/><path class="cls-45" d="M509.76,148.87a25.73,25.73,0,0,1-7.24-7.09c2.08-2.7,2.79-9.85,7.89-1.8l2.19-6.12q0,7.5,0,15A2,2,0,0,1,509.76,148.87Z"/><path class="cls-46" d="M377.86,302.39c2.7-7.31.31-14.93,1.37-22.34,1.78,6.58.7,13.35,1.31,20,.2,2.19-1.27,4.83,1.38,6.53-2.87,2.41-2.66,5.68-2.94,9-.57,6.69,2,13.66-1.64,20.08Q377.6,319.05,377.86,302.39Z"/><path class="cls-47" d="M120.54,332.88c-1.86-.27-4.83.65-4.58-2.44.19-2.25,2-3,4.55-1.7.79.41,1.4-2.08,1.58-3.46A18.3,18.3,0,0,1,132.21,334c.39,1.83,2,4.06-1.48,4.66h0c-.71-.66-.19.36-.5-.46C128.49,333.61,123.74,334.67,120.54,332.88Z"/><path class="cls-48" d="M488,403.6,488,401c6.82-1.83,9.7-9,16-11.63,1.53-.55,1.79.15,1.44,1.45-3.25,4.82-6.3,9.79-11.52,12.85Z"/><path class="cls-49" d="M97.23,403.61a6.29,6.29,0,0,1,4.89-5.46c3-.88,5-2.58,5.34-5.84,2-.85,3.26-3.11,5.77-3,1.53-.55,1.79.15,1.45,1.45-3.24,4.81-6.29,9.79-11.52,12.83Z"/><path class="cls-49" d="M637.63,403.65c3.5-6.11,12.45-6.68,14.53-14.23l2.87-.08c1.53-.55,1.79.15,1.44,1.45-3.32,4.74-6.65,9.49-11.52,12.85Z"/><path class="cls-50" d="M364.58,196.67l-4.24-4.32a16.44,16.44,0,0,1,7.48-3.07c4.58,3.83,8.83,7.79,5.44,14.58-1.67,1-2.19-.42-2.92-1.39l0,0c-1.66-2.14-.45-4.29-.69-6.34-1.19.34,1.15,4.27-2.26,3.42l0,0c-1.64-2.1-.43-4.22-.69-6.21C365.76,193.82,367.79,197.4,364.58,196.67Z"/><path class="cls-51" d="M528.89,232.92c-2.36-.17-3.28-1.5-3.27-3.79.13-16.5.21-33,.36-49.49,0-.61.67-1.21,1-1.82q-.07,23.07-.15,46.14C526.84,227.12,526.52,230.32,528.89,232.92Z"/><path class="cls-52" d="M524.36,144.53c-1.08-2.68-4.6-3.93-4.38-7.38,3.58-2.62,7.34-3.83,11.57-1.53-.31,3.91-2.93,6.86-4.3,10.33C525.59,146.9,525.16,145.33,524.36,144.53Z"/><path class="cls-53" d="M523.14,257.57c2.32,3.28,1.09,7,1.14,10.51.16,12.52.09,25,0,37.56,0,2.33.74,4.86-1.18,6.89Z"/><path class="cls-53" d="M525.92,292.94q-.07-25.49-.14-51c0-1.67-.18-3.39,1.24-4.68C526.72,255.84,527.37,274.41,525.92,292.94Z"/><path class="cls-54" d="M675.34,370.48l8.67.09c-2,5.36-7.24,7.37-11.89,4.52a43.42,43.42,0,0,1-4-3.1l1.61-1.57Z"/><path class="cls-55" d="M143.66,369.22l-2.93,1.54a1.42,1.42,0,0,1-1.93-1c-.54-6.95.58-13.95-.61-20.89q0-7.35,0-14.7a1.32,1.32,0,0,1,1.73.37c-.33,2,2,3.59,1,5.73-.11,7.9-.25,15.81-.34,23.72C140.59,366.32,139.91,369.09,143.66,369.22Z"/><path class="cls-56" d="M406.75,286.68l-1.6-1.66c4.27-4.53,10.09-7.81,11.07-14.93.28-2.08.24-3.62-1.08-5.14,2.26-1.6,4.52-.05,6.78,0-4.58,2.43-4.26,7-5,11.17a1.84,1.84,0,0,1-.17,2.75Z"/><path class="cls-57" d="M243.89,323.77c.13-.89.27-1.78.4-2.67,1.89-2.55-1.86-6.58,2.27-8.53v24.85c-1.26,2.29.7,5.19-1.38,7.34-1.71-4.89-1-9.94-.95-14.94C246.07,327.69,242.25,325.89,243.89,323.77Z"/><path class="cls-58" d="M522.73,370.44l3,.15c.42-.75.88-.78,1.39-.08l4.29-.09c1.69,6.35-3.19,5.57-6.44,5.26a8,8,0,0,1-6.46-5.21Z"/><path class="cls-59" d="M675.63,202.41q1.22-2.85,2.45-5.7l0,30.36c-3.3-3.89,1.22-9.61-3.11-13.26Q675.28,208.11,675.63,202.41Z"/><path class="cls-60" d="M518.52,190.89c3.94-.47.74-3.25,1.53-4.74a6.2,6.2,0,0,1,2.68,6.25c-.4,3.36-1.42,6.72.14,10l0,2.81A10,10,0,0,1,514,204c2.41-.53,7.3,1.49,4.49-4.37C517.15,196.69,517.47,193.79,518.52,190.89Z"/><path class="cls-61" d="M246.56,312.57c-2.66,2.34.14,6.12-2.27,8.53q0-18-.07-36.06c.42-.62.85-.63,1.28,0l.13-.13c1.55,8-.65,16.15,1.21,24.12a1.78,1.78,0,0,1,.13,2.32A2.61,2.61,0,0,1,246.56,312.57Z"/><path class="cls-62" d="M576.61,266.23l1.52,0c-1.4,5.26-5.26,7.55-10.27,8.43-4.52-2.87-.53-4.76.8-7C571.2,266.6,573.6,264.77,576.61,266.23Z"/><path class="cls-63" d="M378.84,370.4l4.87-.1H386c1.57,4-1.71,4.33-3.91,4.44-3.47.18-8,1.64-8.84-4.17Z"/><path class="cls-64" d="M242.29,227.13c.59-1.45-.58-3.32,1-4.41.25-.17,1.39.92,2.13,1.43-2.42,9.15-1.62,18.33-.23,27.51-.63,1-.32,2.23-.92,3.22a1.28,1.28,0,0,1-1.52-.25Z"/><path class="cls-65" d="M485.25,333.24c.24-3.4-4.44-3.68-4.43-6.94,5.2,1.73,10.47.61,15.72.42l3.07,3C494.91,331.23,488.7,326.62,485.25,333.24Z"/><path class="cls-66" d="M361.65,327l10,6.21c.11,1.12,0,2-1.44,1.13-6.91-3.27-14.35-2.88-21.7-3.07q-.6-.36-.39-.72c.13-.23.26-.35.4-.35,3.77-1.09,8,.62,11.56-1.69A1.8,1.8,0,0,1,361.65,327Z"/><path class="cls-67" d="M649.33,256.13l1.71.29q-.25,7.88-.52,15.76c-1,1-.23,3.69-2.95,2.86a1.12,1.12,0,0,1,.22-1.64q-.1-8.53-.2-17.08C648.08,255.51,648.67,255.44,649.33,256.13Z"/><path class="cls-68" d="M259.86,370.17c-.2,3.92-3.16,4.38-6.07,4.65s-5.21-.76-5.49-4.17Z"/><path class="cls-69" d="M668.57,293.49l-1.81,1.5-9-5.11a1.33,1.33,0,0,1,.15-2.1c.73-1.86,1.69-2.92,3.57-1.11C663.82,289,666.2,291.22,668.57,293.49Z"/><path class="cls-70" d="M354.38,298.09c2.78,2.25.48,4.3-.28,6.37-1.07,2.94-2.55,5.86.87,8.31-.76,1.68-2.06,1.66-3.53,1.1,1.16-3.82-1.89-7.63,0-11.44C352.12,300.79,352.49,298.93,354.38,298.09Z"/><path class="cls-53" d="M528.88,317.33c-5.15-4.39-2.58-10.25-3-15.55.23,2.6.44,5.2.72,7.79.14,1.35-.61,3.26.89,3.87,1.92.79,2.23-2.15,3.91-2.39,1.52-.31,2.15.24,1.75,1.79Z"/><path class="cls-71" d="M508.25,233c0-2.69,1.71-2.14,3.33-1.78,2.45,3.39,6.12,5.93,7.17,10.29l-1.88.15C513.39,239.36,512.25,234.75,508.25,233Z"/><path class="cls-72" d="M243.56,254.62c.54-1,1.08-2,1.61-3q0,8.8-.08,17.6l-1-.15c-2.44-2.65-1.46-5.82-1.36-8.85C243.84,258.49,242.47,256.38,243.56,254.62Z"/><path class="cls-73" d="M534.37,224.13l4.51-1.37c1.71-1.32,4.22.6,5.76-1.43,2.75,1.41,3.18,3-.08,4.06a81.86,81.86,0,0,1-8.89,1.82C534.16,226.63,534.1,225.45,534.37,224.13Z"/><path class="cls-74" d="M361.65,327l-1.53,1.51-8.2-6C357.46,320.33,357.46,320.33,361.65,327Z"/><path class="cls-75" d="M246.89,309.76c-3.17-8.15-1.07-16.57-1.26-24.87,2.2,7.67.39,15.56,1.27,23.3a1,1,0,0,1,.37,1.05C247.14,309.59,247,309.76,246.89,309.76Z"/><path class="cls-76" d="M623,251.81c-5.65-.37-3.4-6-5.72-8.56,3.25.77,6.37,1.72,7.41,5.47C624.58,250,624.32,251.17,623,251.81Z"/><path class="cls-77" d="M569.35,267.67c.3,2.5-4.45,3.91-1.49,7-1.64.11-3.48,1.06-4.63-1,3.1-2.73,2.6-7.08,4.68-10.26,1.7-.63,2.64.37,3.06,1.71S570.37,267.08,569.35,267.67Z"/><path class="cls-78" d="M547.47,139.79l-4.3,6.18c-3.91-1.85-1.81-4.9-1.53-7.59C544.82,133.78,545.36,140,547.47,139.79Z"/><path class="cls-79" d="M138.19,348.91c2.61,7,.41,14.23,1.27,21.31a1,1,0,0,1-1.7.12Q138,359.63,138.19,348.91Z"/><path class="cls-80" d="M335.48,316.94c4.6-3.17-.36-4-1.42-5.8h0c3.11-.17,2.86-2.49,2.95-4.59,2.22,2.79,1.58,7.33,7.31,9.06Z"/><path class="cls-81" d="M489.43,301c.61-1.19,1.73-1.43,2.92-1.55-.23,4.22,3.3,8.1.79,12.72C491.89,308.37,490.66,304.68,489.43,301Z"/><path class="cls-82" d="M324.39,296.5l-21.25,0C310.22,294.82,317.3,293.73,324.39,296.5Z"/><path class="cls-83" d="M703,136.05c-.62-5.38,1.24-11-1.52-16.17.48-.6,1-.64,1.48,0l4.36,2.91c-.07.31-.14.61-.2.92-1.53,3.23-.59,6.83-1.56,10.15a4.3,4.3,0,0,1-1.21,1.47Z"/><path class="cls-84" d="M723.74,227c2.29.13,3.21-1.72,4.45-3.12,2.32,1.13-1.18,3.68,1.22,4.74l-3.65,5.1C726.81,230.91,725.52,228.9,723.74,227Z"/><path class="cls-85" d="M129.26,259.08c-2.73,2.85-.66,7.67-4.22,10.17.52-3.74,1-7.49,1.59-11.23.14-1-.33-2.82,1.73-2C129.7,256.52,129.49,257.89,129.26,259.08Z"/><path class="cls-86" d="M648.05,274.7l2.47-2.52c-.25,4.2,4.06,6,5.63,10.46-4.39-2.2-7-5-9.83-7.72A1.1,1.1,0,0,1,648.05,274.7Z"/><path class="cls-87" d="M653.61,63.37c2.87-3.68.91-7.9,1.33-11.86l1.42-1.67c.74,4.93-1.06,10.14,1.54,14.88C656.31,64.78,654.64,65.08,653.61,63.37Z"/><path class="cls-88" d="M417.33,210.05l-16.95-.46C406.1,207,412,208.07,417.8,209a1,1,0,0,1,0,.51A3,3,0,0,1,417.33,210.05Z"/><path class="cls-89" d="M736.49,243.16c.39,4.82,5.71,1.23,7.2,4.19a.85.85,0,0,1-1.52,0c-2.56.39-5.67-1.19-7.43,2.07C730.73,246.09,734.07,244.75,736.49,243.16Z"/><path class="cls-90" d="M665.17,403.6c-.08-3.7,1.45-5.8,6.05-5.43-.31,1.94-3.91,3.15-1.64,5.46Z"/><path class="cls-91" d="M230.81,190.48l0,18.4A25,25,0,0,1,230.81,190.48Z"/><path class="cls-92" d="M139.3,309.69V321c-3.58-1.38-2.39-3.75-2.53-5.59C138.36,313.82,135.29,310.18,139.3,309.69Z"/><path class="cls-93" d="M533.19,312.84l-1.75-1.79a26.4,26.4,0,0,1,7.12-6.37,1.57,1.57,0,0,1,.37,2.33C537,309,535.1,310.9,533.19,312.84Z"/><path class="cls-94" d="M123.38,403.61c.65-2.9,1.42-5.67,5.9-5.53.13,2.06-2.45,3.53-1.47,5.54Z"/><path class="cls-90" d="M514.11,403.6c.65-2.89,1.42-5.67,5.91-5.51.13,2.05-2.47,3.52-1.47,5.54Z"/><path class="cls-95" d="M623,251.81c.09-1.29.38-2.46,1.69-3.09,1.39,1,2.68,2,2.93,3.87a2.82,2.82,0,0,1-.21,3.5A9.92,9.92,0,0,1,623,251.81Z"/><path class="cls-96" d="M764.05,260.75c3-4.12,8.38.38,11.51-3.22.68.59,1.85,1.11,2,1.78.2,1.36-1,1-1.94,1C771.73,260.45,767.89,260.61,764.05,260.75Z"/><path class="cls-97" d="M645,289.66c-1.14-2.63-4.62-.83-5.94-3.11a2.21,2.21,0,0,1,.77-1.31l.75-.21a7.29,7.29,0,0,0,5.34-1.39l.6,2.54a2.17,2.17,0,0,1-.28,3A3.76,3.76,0,0,1,645,289.66Z"/><path class="cls-98" d="M554.5,292.06c.66-2.74,1.92-5,4.36-6.31.2-.11,1.82,1.39,1.7,1.92C559.93,290.65,556.51,290.27,554.5,292.06Z"/><path class="cls-99" d="M223.63,317H211.84v-1.58h12a2.56,2.56,0,0,1,1.2.37C225.23,316.91,225.1,317.71,223.63,317Z"/><path class="cls-100" d="M489.57,321.23l-7.17-3.67c4-1.79,6.07.7,8.5,2.37C491.23,321.15,491,321.82,489.57,321.23Z"/><path class="cls-101" d="M700.13,48.88c.24,4.36-1,8.88,1.4,13-1,.19-2,1.71-3,0q.06-6.66.1-13.32Z"/><path class="cls-43" d="M241,403.62c.57-3,2.22-5,5.83-5.54.16,2.11-2.31,3.51-1.39,5.54Z"/><path class="cls-102" d="M707.36,122.76l16.55.14c-2.36,1.78-5.21.88-7.8,1.41a10.08,10.08,0,0,1-2.08,1.23c-2.7.21-5.8,1.36-6.69-2.77Z"/><path class="cls-103" d="M671,44.32c-.25,3.83,4.62,5.12,4.44,8.92a23.93,23.93,0,0,1-7.3-7.25Z"/><path class="cls-104" d="M570.68,288.14l-8.44-.4c3-3.68,5.79-2.49,8.64-1.15A1,1,0,0,1,570.68,288.14Z"/><path class="cls-105" d="M541.64,138.38c.52,2.53-.87,5.44,1.53,7.59-.49,1.43-1,2.86-1.45,4.29-1.31.36-2,.09-1.47-1.43l.18-10.68A4.54,4.54,0,0,0,541.64,138.38Z"/><path class="cls-48" d="M367.45,403.63c1.43-2.07,1.82-5.13,5.72-5.57.34,2.12-2.35,3.58-1.31,5.55Z"/><path class="cls-106" d="M264.49,289.43c3,4.4-.45,5.55-4.51,8.11l3.23-8.07C263.62,288.88,264,288.87,264.49,289.43Z"/><path class="cls-107" d="M538.93,307c-.12-.78-.24-1.55-.37-2.33l6.79-6.24C544.73,302.73,541.62,304.69,538.93,307Z"/><path class="cls-108" d="M248.31,370.5l-2.87.13-1.27-1c2.62-2.73.45-6.24,1.5-9.22.4-.65.79-.61,1.17,0C247.94,363.68,246.54,367.32,248.31,370.5Z"/><path class="cls-109" d="M246.84,360.4l-.58,0h-.59q-.09-6.51-.19-13c.41-.66.81-.66,1.2,0Q246.77,353.89,246.84,360.4Z"/><path class="cls-110" d="M217.87,295.7a16,16,0,0,0,1.49-7.85q1.38,5.22,2.75,10.43l.11-.12Z"/><path class="cls-53" d="M525.93,333.51c.26-4.55-1.37-9.26,1.09-13.64C526.91,324.44,527.29,329,525.93,333.51Z"/><path class="cls-111" d="M646.23,289.18c.09-1,.19-2,.28-3,3.46,2.9,7.54,1.42,11.38,1.6l-.15,2.1Z"/><path class="cls-112" d="M123.26,277.19q0,6.84.08,13.66C121,286.31,121.19,281.76,123.26,277.19Z"/><path class="cls-113" d="M353,233.87l8.51-2.48C360,237.06,355.83,233.2,353,233.87Z"/><path class="cls-114" d="M139.3,309.69c-2.31,1.25-.6,4.28-2.53,5.69-.33-2-.37-4.06-1.89-5.64,1.52-1.36,3-2.77,5.23-1.27Z"/><path class="cls-46" d="M376.45,257.57c2.37,3.88.82,8.08,1,12.14C376.08,265.75,376.56,261.64,376.45,257.57Z"/><path class="cls-100" d="M648.05,274.7l-1.73.22a13.4,13.4,0,0,1-5.52-5.41c3.49-.4,4.55,3,7,3.89A2.78,2.78,0,0,0,648.05,274.7Z"/><path class="cls-115" d="M721.58,247.65l3-1.44a5.06,5.06,0,0,1,4.45.95C726.56,249.87,724.06,248.67,721.58,247.65Z"/><path class="cls-46" d="M376.53,253l-2,.25-4.14-5.57c3.05-.6,3.34,1.48,4.33,2.64Z"/><path class="cls-116" d="M139.17,333.91a2.48,2.48,0,0,1-1,.3V322.75c2.19,2.38,1.12,4.83,1.39,7.05C140.14,331.24,140.66,332.67,139.17,333.91Z"/><path class="cls-117" d="M229.73,316.78l8.59-.22a1.47,1.47,0,0,1-.3,2.25l-10-.73C228,316.79,228.25,316,229.73,316.78Z"/><path class="cls-118" d="M644.92,49.85q-.06,6-.1,12L643,61.59C644.33,57.79,641.88,53.37,644.92,49.85Z"/><path class="cls-119" d="M627.45,256.09l.21-3.5c3.44,1.1,2.71,3.83,2.49,6.35C628.3,258.88,627.52,257.82,627.45,256.09Z"/><path class="cls-120" d="M522.87,202.45c-2.33-3.32-2.15-6.67-.14-10l1.42,1.13C522.87,196.38,522.78,199.4,522.87,202.45Z"/><path class="cls-121" d="M178.78,304.09c-3-.6-6.21.69-9-1.18,3.31-.5,6.62-1.37,10-.34a.75.75,0,0,1,0,.6A8.88,8.88,0,0,1,178.78,304.09Z"/><path class="cls-122" d="M280.36,286.83c-1.51,1.61-3.37,1.92-6.2,2.23,1.66-3.22,4-3.47,6.11-4.07A1.12,1.12,0,0,1,280.36,286.83Z"/><path class="cls-123" d="M374.42,165.78v9.39c-2.38-2.19.12-5.53-2.37-7.31C372.2,166.45,373.33,166.13,374.42,165.78Z"/><path class="cls-124" d="M139.17,333.91c.14-1.37.27-2.74.4-4.11.51,3.49,3.44,6.67,1.38,10.51C140.36,338.18,139.77,336,139.17,333.91Z"/><path class="cls-125" d="M137.76,370.34l1.7-.12c.41.2.84.38,1.27.54-1.59,3.28-4.42,2.85-7.88,2.39l3.59-2.35A12.12,12.12,0,0,1,137.76,370.34Z"/><path class="cls-126" d="M348.56,330.24c0,.36,0,.71,0,1.07l-2.73,4.86c-1.17-2.57-1.63-5.15-.17-7.77Z"/><path class="cls-127" d="M497.94,321.33l-2.89-.17c.73-2.29-1.87-4.4-.24-7.09C497.85,315.77,496.73,319.09,497.94,321.33Z"/><path class="cls-128" d="M714.64,124.24l1.47.07c-.85,3.74,1.58,7.92-1.52,11.37a8.48,8.48,0,0,1-1.34-2.06C712.46,130.31,712.24,127.08,714.64,124.24Z"/><path class="cls-53" d="M527.14,370.51l-.69.15-.69-.07q.07-5.38.17-10.78C526.33,363.38,526.73,366.94,527.14,370.51Z"/><path class="cls-129" d="M389.15,219.48c.36,2.09-.67,4.53,1.52,6.17l0,0-1.52,3a1,1,0,0,1-1.59-.14C387.76,225.43,386.61,222.14,389.15,219.48Z"/><path class="cls-130" d="M427,274.81c1.54,1.29-.29,2.22-.37,3.34l-4.12-.54c-.43-.34-.55-.66-.38-1s.32-.44.47-.44C423.75,274.64,425.45,274.93,427,274.81Z"/><path class="cls-131" d="M370.34,202.47l2.92,1.39c-3,3.34-6.15,1.62-9.27.18C366.14,203.65,368.65,204.71,370.34,202.47Z"/><path class="cls-132" d="M448.89,295.29c-2.65,2.37-5.87,1.11-8.85,1.38C442.58,293.6,446,296,448.89,295.29Z"/><path class="cls-133" d="M688.3,177.69l3.08,4.57-5.4,1.08C686.58,181.18,688.71,179.81,688.3,177.69Z"/><path class="cls-134" d="M308.37,306.77a6.32,6.32,0,0,1,5.37,5.48A12.07,12.07,0,0,1,308.37,306.77Z"/><path class="cls-135" d="M717.57,159.12c-2.18-2.75-5.31-1.09-8-1.7,2.41-1.37,5.14-1.3,7.68-1.08S718.45,158.07,717.57,159.12Z"/><path class="cls-136" d="M145.74,319.7c1.33,3.5,1.62,7-.18,10.43A25.8,25.8,0,0,1,145.74,319.7Z"/><path class="cls-137" d="M243.89,323.77c.51,2,2.9,3.88.35,6.05-.75-2.48-3-4.36-2.89-7.17l.58.05Z"/><path class="cls-138" d="M714.57,134.31c0,.45,0,.91,0,1.37a30.14,30.14,0,0,1-10.2-.38,3.19,3.19,0,0,0,.23-.92C707.92,131.8,711.23,131.9,714.57,134.31Z"/><path class="cls-139" d="M246.68,347.38l-1.2,0c-.09-.87-.19-1.74-.29-2.6,1-2.34-.45-5.15,1.38-7.34Q246.63,342.4,246.68,347.38Z"/><path class="cls-140" d="M119,342.54a12.71,12.71,0,0,1,10.39,0A20.11,20.11,0,0,1,119,342.54Z"/><path class="cls-141" d="M370.25,334.38l1.44-1.13,4.64,2.42-1.68,1.66Z"/><path class="cls-142" d="M640.34,177.11c-3,.86-5.92,1.81-8.5-.88Z"/><path class="cls-74" d="M241.93,322.7l-.59-.05c-2.07-.44-2.39-2.4-3.32-3.84l.3-2.25A10,10,0,0,1,241.93,322.7Z"/><path class="cls-143" d="M315.19,334.31c-.27,3-2,4.73-4.69,5.69A10.3,10.3,0,0,1,315.19,334.31Z"/><path class="cls-144" d="M113.64,322.56c-3,0-6.14.82-9.08-.63C107.63,321.52,110.82,319.33,113.64,322.56Z"/><path class="cls-145" d="M310.51,339.89l4.71,3.13c-1.39,0-2.78.06-4.16,0-.83-.06-2.23-.24-2.34-.64C308.37,341.08,309.51,340.44,310.51,339.89Z"/><path class="cls-146" d="M753.89,194c-.11-1.23-.2-2.48-1.54-3.11L757.6,187C755.74,190.49,754.81,192.25,753.89,194Z"/><path class="cls-147" d="M478.55,325.49h-10A8.39,8.39,0,0,1,478.55,325.49Z"/><path class="cls-55" d="M721.9,241.61l-1.14-1.25c.51-1.46.68-3.18,3.06-3.73C724.44,238.84,723.38,240.29,721.9,241.61Z"/><path class="cls-148" d="M222.11,298.28c3.52-1,3.79,2,5.2,3.65-2.94.23-3.92-1.88-5.09-3.78Z"/><path class="cls-149" d="M229.73,316.78l-1.66,1.3-4.46.3c0-.48,0-.95,0-1.43l1.4-1.21A6.46,6.46,0,0,1,229.73,316.78Z"/><path class="cls-150" d="M599.84,298.1c1.51-2.11,3.8-1.24,5.79-1.51.26.43,2.33.31.88,1C604.58,298.39,602.09,298,599.84,298.1Z"/><path class="cls-151" d="M649.33,256.13l-1.74.19-1.65-1.58c2.6-1.35,1.63-3.84,1.9-5.93a.86.86,0,0,1,1.41,0Z"/><path class="cls-152" d="M130.73,338.68c1.86-1.12,1.23-3,1.48-4.66,1.29,2.52,3.34,5.06-.21,7.45Z"/><path class="cls-3" d="M244.13,269.11a1.13,1.13,0,0,0,1,.15q.12,4.26.25,8.54c-.38.66-.76.66-1.13,0C244.18,274.9,244.16,272,244.13,269.11Z"/><path class="cls-153" d="M570.68,288.14c.07-.52.13-1,.2-1.55l2.78-1.8c0,1,0,2.08,0,3.11l0,0c-1.15.68-1.32,1.83-1.42,3Z"/><path class="cls-154" d="M634.57,115.58l6-1.49a3.78,3.78,0,0,1-1.82,3.33Z"/><path class="cls-155" d="M657.94,202.38c1-2.58,2.8-2.28,4.79-1.32C662.15,205.16,659.55,202,657.94,202.38Z"/><path class="cls-156" d="M381,238.83l-1.75-2,4.05-2.14C383.63,236.92,382.11,237.77,381,238.83Z"/><path class="cls-157" d="M387.58,228.5l1.59.14a13.55,13.55,0,0,1,.08,1.43l-4,2.45C384.78,230.32,386.38,229.53,387.58,228.5Z"/><path class="cls-158" d="M280.36,286.83l-.09-1.84c.41-.51.81-1,1.22-1.55,3.05.16,2.26,1.89,1.49,3.61Z"/><path class="cls-159" d="M246.89,309.76v-1.57c1.23-.19,2.75-2.48,3.33-1,.78,2-1.85,2.94-3.26,4.14Z"/><path class="cls-46" d="M244.21,277.79h1.13c0,2.41.11,4.82.16,7.22l-1.28,0C244.21,282.62,244.21,280.21,244.21,277.79Z"/><path class="cls-92" d="M489.57,321.23l1.33-1.3,2.93,1.38,0,2.76Z"/><path class="cls-160" d="M243.56,254.62c.05,1.92.93,4-.79,5.64-.37-1.88-2.2-3.74,0-5.63Z"/><path class="cls-161" d="M422.63,276.2q0,.71-.09,1.41l-5.76,1.27c.06-.92.11-1.83.17-2.75Z"/><path class="cls-162" d="M264.49,289.43l-.64.07-.64,0c1-1.41.34-3.87,3-4.58C266.87,287,266.42,288.45,264.49,289.43Z"/><path class="cls-163" d="M706,181.05a6.45,6.45,0,0,1,5-4.53A7.51,7.51,0,0,1,706,181.05Z"/><path class="cls-164" d="M267,276.38c1.24-.26,2.83-1.72,3.24.93l-2.56,3.17Z"/><path class="cls-165" d="M683.86,385.31c11.42-1.4,15,9.19,23.27,10.47C697.87,396.47,693.6,387.25,683.86,385.31Z"/><path class="cls-166" d="M656.47,390.79,655,389.34c1.28-1.76,2.9-1.48,5.74-.84Z"/><path class="cls-167" d="M557.06,398c-8.83-1.81-14.38-9.16-21.48-12.31C540,384.91,553.27,392.14,557.06,398Z"/><path class="cls-168" d="M505.41,390.79,504,389.34c1.3-1.58,2.84-1.85,5.18-.55Z"/><path class="cls-167" d="M144.05,385c9.34,1,15.16,8.23,22.65,12.51C157.89,395.51,151.76,388.86,144.05,385Z"/><path class="cls-168" d="M114.68,390.8c-.48-.48-1-1-1.45-1.45,1.31-1.59,2.84-1.86,5.18-.56Z"/><path class="cls-169" d="M390,384.9c8.48.19,12.64,9.33,20.68,11.14C402.2,395.46,396.17,390.08,390,384.9Z"/><path class="cls-170" d="M358.74,390.83l-1.47-1.47c1.61-2,3.69-1.51,6.72-1Z"/><path class="cls-169" d="M282.89,394.48c-10.23,3.45-12.29-7.56-19.94-8.43.22-1.47,1.35-.95,2.06-1a4.94,4.94,0,0,1,2.8.4C272.59,388.89,276.08,394.1,282.89,394.48Z"/><path class="cls-171" d="M232.35,390.82l-1.46-1.47c1.27-1.77,2.9-1.48,5.75-.88Z"/><path class="cls-172" d="M135.23,300.33c-3.6-3.83-2.79-8.89-4.4-13.2-.44-1.16-.62-3.18,2-1.69.57.32,2.91-1.39,1.94.72C132.48,291.07,134.71,295.6,135.23,300.33Z"/><path class="cls-173" d="M140,293.11c1.25,2.28-1.11,2.91-1.85,4.19C137.81,295.61,138,294.11,140,293.11Z"/><path class="cls-174" d="M734.89,212.59a2.71,2.71,0,0,1,.09-.71c.68-1.63.61-4.63,3.06-3.92,4.27,1.24-.22,1.92-.52,2.89a7.38,7.38,0,0,1-1.2,1.77A.89.89,0,0,1,734.89,212.59Z"/><path class="cls-175" d="M734.89,212.59l1.43,0c.13,1.92-1,2.91-2.67,3.32-.32.08-1-.22-1-.4C732.44,213.89,733.71,213.26,734.89,212.59Z"/><path class="cls-176" d="M204.72,285.09Q211,279.83,212,288c-2.8,1.38-4.85-.93-7.25-1.48l0,0c-.5-.31-.67-.62-.52-.94S204.56,285.09,204.72,285.09Z"/><path class="cls-173" d="M191.23,278.55l7,3.29C194.86,282.88,192.74,281.36,191.23,278.55Z"/><path class="cls-77" d="M204.75,286.5,212,288C208.88,291,206.93,288.15,204.75,286.5Z"/><path class="cls-177" d="M204.72,285.09c0,.47,0,1,.05,1.43-1.44-.1-2.86-.37-3.5-1.81-.15-.34.55-1,.86-1.59Z"/><path class="cls-73" d="M238.15,195.22c2.2,1.41,5.63,1.91,3.21,6.1-1,1.73-.23,4,1.44,5.88,1.9,2.13,1.79,4.77-1,8.16a52,52,0,0,1-3.58-20.16Z"/><path class="cls-177" d="M238.18,195.2c-1.93-1.65-1.76-3.61-.86-6,1.56,2,.55,4.1.83,6Z"/><path class="cls-178" d="M649.25,248.83c-.47,0-.94,0-1.41,0q0-6.48-.07-13c-.39-.33-.51-.67-.38-1s.27-.49.4-.49C650.72,238.93,650.54,243.83,649.25,248.83Z"/><path class="cls-179" d="M647.79,234.35c0,.49,0,1,0,1.48-2.16-2.18-1.51-4.69-1-7.56C648.54,230.33,647.46,232.45,647.79,234.35Z"/><path class="cls-180" d="M653.62,197.14l-1.48-9.41C654.79,191.35,655.8,193.55,653.62,197.14Z"/><path class="cls-181" d="M649,190.07c-1.34-2.71-1.9-3.83-2.54-5.14C649.65,185,649,186.71,649,190.07Z"/><path class="cls-73" d="M149.94,326.77c4.91-9,5.36-9.15,12.86-5.82C157.67,320,155.45,325.26,149.94,326.77Z"/><path class="cls-182" d="M164.17,315.61c.31,1.33-.55,1.32-1.09,1.25a13.44,13.44,0,0,1-2.35-.7c.39-.46.79-1.32,1.16-1.3A7.84,7.84,0,0,1,164.17,315.61Z"/><path class="cls-183" d="M489.71,294.72c-2.38-3-4.38-6.18-2.75-10.42Q488.34,289.52,489.71,294.72Z"/><path class="cls-184" d="M483.36,272.6c-.41.63-.71,1.53-1.07,1.56-1.31.09-1.42-1.06-1.42-2a5.87,5.87,0,0,1,.61-1.81Z"/><path class="cls-185" d="M753.94,249.05l8,1.87C759.29,251.61,755.81,255.75,753.94,249.05Z"/><path class="cls-186" d="M749.42,247.44c3.5,1.12,1.91,4,2.64,6.74l-4-2.45c-1.21.6-1.63-.1-1.85-1.13C746.66,249,748.5,248.66,749.42,247.44Z"/><path class="cls-187" d="M749.42,247.44c0,1.88-1,2.79-2.84,2.86a1.94,1.94,0,0,1-2.88-.05l-1.53-2.86,1.52,0Z"/><path class="cls-188" d="M743.7,250.25l2.88.05,1.43,1.43c-.11.82,0,2.15-1.18,1.87C745.23,253.21,744.35,251.74,743.7,250.25Z"/><path class="cls-189" d="M223.71,235.79c1.77-.94.95-3,2-4.45,3.42,2.32,1.83,5.73,2.54,9.23-3.41-.57-4.7-2.69-6-4.75l.75-.6Z"/><path class="cls-190" d="M222.18,235.82a7.56,7.56,0,0,1-1.75-1.18c-1.27-1.55-3.79-2.35-3.42-4.88.06-.48,1.49-1,2.31-1.07,3.11-.17.31,3.84,2.86,4.18a2,2,0,0,1,0,2.89Z"/><path class="cls-191" d="M222.21,235.76l0-2.89V227.3c2.13,3.63,1.13,6.15,1.53,8.49Z"/><path class="cls-77" d="M296.27,282.14c-3-.62-5.72,2.5-9.21.81,3.67-1.48,6.68-3.89,10.66-3.68C298.53,280.88,297.31,281.46,296.27,282.14Z"/><path class="cls-172" d="M299.19,277.81l10.15,3.33c-3.88,1.53-6.1-1.14-8.69-.48C299.63,280,298.28,279.47,299.19,277.81Z"/><path class="cls-97" d="M299.19,277.81c.48.95,1,1.9,1.46,2.85-1.33.9-2.19,3.17-4.38,1.48l1.45-2.87Z"/><path class="cls-192" d="M346.21,218c-2-2.47-.59-3.9.15-5.71C347.45,214.12,347.36,215.7,346.21,218Z"/><path class="cls-174" d="M354.51,223.23l-1.15,1.4c-.38-.51-1.11-1-1.06-1.52.1-.88.39-2,1.6-2C354.1,221.13,354.28,222.38,354.51,223.23Z"/><path class="cls-193" d="M498.13,215.51l2.2,3.05c1.78-1-.37-3.71,1.87-4.53.51,3,.61,6-.62,11.33-2.93-3.6-5.46-5.86-6.88-8.69s1.07-1.22,2.07-1.16C497.22,214.75,497.68,214.79,498.13,215.51Z"/><path class="cls-172" d="M505.1,227.3l.63-10.29.64,0v10.33Z"/><path class="cls-194" d="M498.13,215.51h-1.36v-7C498.78,211.55,497.94,213.61,498.13,215.51Z"/><path class="cls-77" d="M421.19,254.63c1.51,2.72-2.07,3.62-2.23,5.81-.64-2.06-1.37-4.1.81-5.81C420.24,253.93,420.72,253.93,421.19,254.63Z"/><path class="cls-99" d="M421.21,248.83v-5.16c3,2.58,2.49,4,0,5.15Z"/><path class="cls-182" d="M421.19,254.63h-1.42c.15-2-.67-4.26,1.44-5.8h0C421.22,250.76,422.63,252.69,421.19,254.63Z"/><path class="cls-194" d="M275.94,261.87a19.11,19.11,0,0,1-6.09,11.48c1.34-5.34,2.27-9.37,4.54-13C275.78,260,276.26,260.51,275.94,261.87Z"/><path class="cls-195" d="M275.94,261.87l-1.54-1.49c.27-1.12.31-3,.87-3.18a3.21,3.21,0,0,1,3.54,1.78,3,3,0,0,1-1.43,2.83C276.9,261.81,276.42,261.84,275.94,261.87Z"/><path class="cls-196" d="M277.38,261.81a2.93,2.93,0,0,1,1.43-2.83c1,.18,2.71,0,1.64,1.77C279.91,261.65,279.11,263.55,277.38,261.81Z"/><path class="cls-197" d="M331.13,332.93l7,.8c-3.34,2.49-6.32,3.69-9.91,3.22-.13,0-.32-.37-.31-.56s.2-.42.31-.63C328.77,334.4,330,333.72,331.13,332.93Z"/><path class="cls-198" d="M331.13,332.93a5,5,0,0,1-2.93,2.83,25.15,25.15,0,0,1-2.13-2.54C327.6,331.62,329.43,333.45,331.13,332.93Z"/><path class="cls-178" d="M695.72,172c1.3,2.34,4.1.69,6.25,2.48-3.06.41-5.61,1.2-8.09-.52l1.85-1.94Z"/><path class="cls-172" d="M695.73,172.05c2.44-4.64,5.72-.24,8.59,0h-8.6Z"/><path class="cls-173" d="M704.84,164.32c.37-.45.81-1.36,1.52-1.76,1.14-.64,1.66.09,1.56,1.24-.07.85.42,2-.91,2.27C706.05,166.24,705.17,165.9,704.84,164.32Z"/><path class="cls-179" d="M334.06,311.14a15.32,15.32,0,0,1-7.79-3.55,2.66,2.66,0,0,1-.29-3.9c1.51-1.6,2.53,0,3.38,1.1,1.61,2.09,3.13,4.24,4.69,6.36Z"/><path class="cls-73" d="M320.62,304.52a2.29,2.29,0,0,1-2.35-2.22c-.11-.8-.23-2.2,1.18-1.63a5.64,5.64,0,0,1,2.15,2.45C321.72,303.34,320.93,304.1,320.62,304.52Z"/><path class="cls-177" d="M475.71,331.37c-2.19,1.56-4.21,3.22-7.6,2.25C470.92,332.17,472.84,330.16,475.71,331.37Z"/><path class="cls-180" d="M198.44,314.91c3.51-1.7,6.37-3.45,11,0Z"/><path class="cls-199" d="M524.36,144.53l2.89,1.42q0,6.53-.08,13.05c-1.45-1-1.36-2.52-1.51-4C526.61,151.36,524.14,148.11,524.36,144.53Z"/><path class="cls-200" d="M540.25,148.83l1.47,1.43c-1.59,2.76-1.51,6.28-4,8.64-.16-.85-.33-1.7-.49-2.55Z"/><path class="cls-77" d="M257.06,230c.91-3.33,2.3-6.29,6.57-8.55-.77,5-4,6.5-6.58,8.54Z"/><path class="cls-179" d="M257.05,230c.19,1.45,5.62,2.88,0,4.35-1,.84-2.1,3.44-3-.09a4.48,4.48,0,0,1,3-4.25Z"/><path class="cls-180" d="M254.08,234.25c.94,1.7,2,.25,3,.09-.38,2.87-2.63,4.65-4.74,3.41C250.37,236.6,252.94,235.24,254.08,234.25Z"/><path class="cls-201" d="M662.18,67.71a7.48,7.48,0,0,1,1.34,0c2.5.34,4.56-.19,5.57-2.79a1.88,1.88,0,0,1,1.69-.66c3,2.63,5.81-.39,8.72-.2,1.5,2,3,1.33,4.51,0,2.06.15,3.87,2.31,6.14.74,1-.13,2-.09,2.6,1,.07,2.43,1.7,1.92,3.19,1.68.63,3.9,5.37,3,6.89,5.87-1.51,2.3.43,3.29,1.73,4.51l-.12-.12c1.42,1.72.56,4.24,2.13,5.91.72,3.31,2.34,6.37,2.82,9.76-1.41,2-3.07,3.91-.56,6.23l-.12,1.51c-3.93.94-2.83,4.83-4.26,7.24l.11-.1c-2.26,1.38-3.32,3.67-4.47,5.89l.09-.08c-2.13,1.26-4.61,2.06-5.9,4.42l.09-.07a8.85,8.85,0,0,0-7.86,2.12,9.3,9.3,0,0,0-5.56,1.54c-2,.37-4.24-.7-5.89,1.23a3.2,3.2,0,0,1-3.41-.94c-1.4-2.08-3.12-3.61-5.87-3.38a2.83,2.83,0,0,1-1.44-1.13c-.71-2.57-3.71-3.06-4.82-5.27-1-1.65-3.09-1.63-4.3-2.93l-1.35-1.38c2.09-2.86-.7-4-2-5.7-.65-1.45,1.53-3.87-1.54-4.5a2.75,2.75,0,0,1-.81-2.94c1.93-1.84,2.13-3.73.2-5.69a2.92,2.92,0,0,1-.29-1.39c.39-.5.79-1,1.21-1.45a7.36,7.36,0,0,0,2.4-5.21c1.27-2.25,4-3.83,3.35-7a1.93,1.93,0,0,1,1.39-2.16c3.43,1.2,3.43-1.92,4.56-3.62A1.87,1.87,0,0,1,662.18,67.71Z"/><path class="cls-101" d="M717.51,75c-1.68,3.27.85,4.44,2.92,5.84l-10.27,0Z"/><path class="cls-202" d="M705.36,83.86c-5.23-1.29.57-4.25-.92-6.12l3.16,3c0,1-.08,1.91-.11,2.86A1.49,1.49,0,0,1,705.36,83.86Z"/><path class="cls-203" d="M704.56,77.86c-1.6-.37-4,.66-4.3-2.07-.2-1.68,1-2.37,2.57-2.44C703.72,74.73,704.83,76,704.56,77.86Z"/><path class="cls-204" d="M695.94,67.48c-.52,1.94-2.59,2.8-3.66,2.2-1.57-.88-1.15-2.72.47-3.88l2.82.78A1.06,1.06,0,0,0,695.94,67.48Z"/><path class="cls-17" d="M672.52,121.51c.56,1.21,1.53,1.31,2.66,1,1.71-1.62,3.59-.28,5.39-.34a2,2,0,0,1,1.3,1.67c-.31,2.54.87,5.21-.67,7.64-1.25,3.89-7.4,4.84-6.16,10.22a17.84,17.84,0,0,1-4.94,4.38c-1.41.91-2.71,2.05-4.51,2.14-2.14-.47-3.19-1.51-2-3.74-.52-1.45-1-2.9-1.54-4.35-.74-.82-2.22-1.32-1.23-2.88,1.48-.93,1.49-1.89,0-2.87-1.62-4.83-.56-9.66,0-14.5l1.78-1.62a1.68,1.68,0,0,1,2.57.27l-.09-.07C667.74,119.11,670.48,119.48,672.52,121.51Z"/><path class="cls-205" d="M663.62,144.47c.27,1.53.87,2.75,2.73,2.68,3.15-.38,1.8,1.76,1.77,3.16l0,1.5c.92,1.66,1.14,3-1.46,2.85-.6-3.27-6.65-1.1-5.81-5.81-1.18-.61-.65-2.08-1.45-2.89C659.84,142.72,661.77,143.71,663.62,144.47Z"/><path class="cls-1" d="M669.49,144.69c1.88-.93,3.07-3.16,5.55-3a2.22,2.22,0,0,0,.38,1c-1,2.65.91,5.77-1.33,8.21l-2.81-2.18C669.45,147.94,668.14,146.9,669.49,144.69Z"/><path class="cls-18" d="M669.49,144.69l1.79,4.05-3.16,1.57c-1.54-.52.09-2.81-1.77-3.16Z"/><path class="cls-206" d="M660.85,137.24l1.23,2.88-3.67-.13c-.92-.33-1.95-.5-2.27-1.65C657.49,137.05,659.16,137.07,660.85,137.24Z"/><path class="cls-196" d="M654.53,145.35c-.37,1.26-1,1.11-1.61.82s-1.32-.66-1.53-1.19c-.37-.87.24-1.27,1.07-.89A19.24,19.24,0,0,1,654.53,145.35Z"/><path class="cls-207" d="M656.14,138.34l2.27,1.65-8,.09C651.93,138.21,654.15,138.64,656.14,138.34Z"/><path class="cls-178" d="M666.68,154.66a2.9,2.9,0,0,0,1.46-2.85c1.68,1.17,2.09,3.11,1,4.36S667.23,155.66,666.68,154.66Z"/><path class="cls-193" d="M659.42,146a3,3,0,0,1,1.45,2.89c-1,.28-2.22,1.43-3.09.19C656.53,147.26,659.28,147.23,659.42,146Z"/><path class="cls-208" d="M690.15,64.83c-2.28,5.34-4.13,1.5-6.09-.28l-.41-.69c.13-.24.25-.48.38-.71Z"/><path class="cls-209" d="M675.29,63.07l1.55-1.16c.48-.74,1-.71,1.49,0,1.94.25,4.11-.52,5.7,1.27a.68.68,0,0,1,.14.68c-1.51.43-3,.93-4.59.31C678.14,63.83,676.39,64.77,675.29,63.07Z"/><path class="cls-210" d="M678.33,61.88l-1.49,0c0-2.41,0-4.82,0-7.23h1.47Z"/><path class="cls-211" d="M544.64,221.33c-1,4.06-3.65,1.73-5.76,1.43C540.05,219.25,542.59,221.26,544.64,221.33Z"/><path class="cls-212" d="M705.36,83.86l2.13-.25,2.8,5.82q.72.46.51,1c-.14.35-.29.52-.44.52-.6,2.06.33,4.44-1.28,6.31a2.65,2.65,0,0,1-.36-3.68C704.82,91.27,706.76,87,705.36,83.86Z"/><path class="cls-213" d="M710.36,90.91c0-.5,0-1-.07-1.48,4.7-2.42,9.59-1.3,14.46-.78C720,89.89,715,88.87,710.36,90.91Z"/><path class="cls-214" d="M704.45,108.39c-1.23-4-2.22-7.79,4.26-7.24-.42,1.41-.83,2.83-1.24,4.24Z"/><path class="cls-215" d="M708.72,93.54l.36,3.67c-.08.81-.16,1.62-.25,2.43-2.06-.36-3.7-1.79-3.78-3.58S707,93.77,708.72,93.54Z"/><path class="cls-216" d="M718.94,101.08l-1.43,2.86c-1.89-1.17-3.79-1.51-5.7-.06C712.72,99.23,716.44,101.71,718.94,101.08Z"/><path class="cls-172" d="M390.67,225.65a21.56,21.56,0,0,1,10.2-8.69c.94-.39,1.57-3.27,3.07-.74,1.24,2.08-.17,2.91-2,3.56-.79.29-2.6-.8-2.21,1.2.08.41,1.63.53,4.21,1.27l-7.48.82c.92,2.08,3.11.37,4.82,2.6h-10.6Z"/><path class="cls-188" d="M627.45,279.25c1.94-2.59,3.88.55,5.82,0,1.4,1,2.72,2,2.47,4-.58,2.18-1.79,2.52-3.57,1.23a13.68,13.68,0,0,1-2.32-1.53C628.8,281.9,627.67,280.86,627.45,279.25Z"/><path class="cls-188" d="M634.72,283.58l-1.45-4.32c3.7.33,5.43,3.14,7.3,5.77l-.05,0Q636.91,287.09,634.72,283.58Z"/><path class="cls-196" d="M627.45,279.25l2.91,2.87c-.54,1.35-1.33,2.21-2.93,1.47l-2.09-2.82c-.51-.69-1.82-1.41-1-2.22C625.33,277.55,626.37,279,627.45,279.25Z"/><path class="cls-178" d="M634.72,283.58a9.5,9.5,0,0,0,5.8,1.48l-1.47,1.49c-2.43-.41-5.21.9-7.24-1.48-.37-.32-.5-.65-.37-1s.25-.49.37-.49C632.79,283.75,633.77,285.21,634.72,283.58Z"/><path class="cls-195" d="M631.81,283.61v1.46c-1.82,0-3.95.48-5.38-.29s.44-.9,1-1.19l2.93-1.47Z"/><path class="cls-217" d="M569.35,267.67c1.12-2,.92-3.51-1.44-4.33l1.42-1.47c.51-.6,1-.62,1.5,0,1.82,1.59,5.49.7,5.78,4.33C574.13,266.39,572.12,268.93,569.35,267.67Z"/><path class="cls-175" d="M570.83,261.9l-1.5,0c.8-1.33,1-3.15,2.82-3.67a1.2,1.2,0,0,1,1,.64C573.4,260.58,572,261.16,570.83,261.9Z"/><path class="cls-218" d="M440.09,279.27c3-.78,6-1.56,8.8.38-1.6,3.14-4.13,3.85-7.37,2.55C440.24,281.62,439.29,280.86,440.09,279.27Z"/><path class="cls-219" d="M440.09,279.27c.48,1,1,2,1.43,2.93-5.43,6.35-4.13-3.76-7.29-3,1.36-2.79,1.52-2.79,4.41,0Z"/><path class="cls-211" d="M438.64,279.26c-1.47-.38-2.92-2.3-4.41,0-1-.56-2.55-2-1.51-2.38C435,276,438,275.24,438.64,279.26Z"/><path class="cls-220" d="M660.87,119.87l0,14.5c-3.35-2.71.37-7.43-2.92-10.15Q659.44,122,660.87,119.87Z"/><path class="cls-221" d="M665.22,118.52l-2.57-.27-3.25-4.17c-.9-1.56-1.21-2.87,1.31-2.89C660.56,114.64,668.05,113.43,665.22,118.52Z"/><path class="cls-222" d="M652.09,102.65c1.45,1.41,4.73-.17,5,2.6a2.89,2.89,0,0,1-3.24,3.06L652,105.39c0-.5.09-1,.14-1.51-.38-.26-.52-.52-.41-.8S652,102.65,652.09,102.65Z"/><path class="cls-223" d="M660.71,111.19a3,3,0,0,0-1.31,2.89,7.59,7.59,0,0,1-4.18-4.39C657.07,110.13,659.61,108,660.71,111.19Z"/><path class="cls-224" d="M650.54,88.07,650,88l-.55,0c-2.18-5.43-6.89-2-10.36-3,3.73-2.42-.19-4.85,0-7.27,3.77,2.09,6,7.13,11.54,5.79C652,85.15,651.82,86.62,650.54,88.07Z"/><path class="cls-225" d="M649.73,89.48c1.83.31,4.29.5,4.15,2.75-.13,2-2.3,2.81-4.35,2.93l-.3.1c-.48-.29-.66-.6-.54-1s.26-.53.41-.53Z"/><path class="cls-226" d="M649.1,93.78l.13,1.48c-4.21,2.26-8.61,1.43-13,.77C640.46,95,645,95.53,649.1,93.78Z"/><path class="cls-227" d="M652.09,102.65c0,.41,0,.82.07,1.23-2.45-1.34-.89-3.94-1.82-5.76,1.31-2,3-1.5,3.92,0C655.62,100.32,652.47,100.93,652.09,102.65Z"/><path class="cls-175" d="M588.24,292.3c-1.84-2.4-6,1.06-7.26-2.9h0c4.6-.13,9,.45,13.07,2.9h0l-2.86,0A2,2,0,0,1,588.24,292.3Z"/><path class="cls-228" d="M573.7,287.9c2.45.38,5.24-.9,7.27,1.5h0c-2.62.43-5.39,1.6-7.32-1.46Z"/><path class="cls-181" d="M588.24,292.3l2.94,0,2.39,4C590.44,296.1,589.35,294.19,588.24,292.3Z"/><path class="cls-173" d="M594,292.3c1.73.27,3.74-.71,5.63,1.67-2.46.22-4.23.09-5.62-1.68Z"/><path class="cls-175" d="M518.52,190.89v8.69c-3.69-2.49-1.3-5.8-1.18-8.8,0-.1.4-.27.6-.25S518.33,190.76,518.52,190.89Z"/><path class="cls-229" d="M513.08,193.83c-1.46-3.51-.26-5.35.33-8.42C514.31,188.59,514.55,190.6,513.08,193.83Z"/><path class="cls-230" d="M652.36,79.37c-2.79-1.48-6.23-2.25-7.1-6.64,3.69,0,5.7,3.14,8.69,3.82C654.46,78.07,654.51,79.33,652.36,79.37Z"/><path class="cls-231" d="M652.36,79.37,654,76.55l2.45-2.1c4.68,4.79-.88,5.62-3,7.78a.79.79,0,0,1-1.23,0Z"/><path class="cls-232" d="M652.15,82.21l1.23,0c3.56,4.13-.13,4.75-2.84,5.84,0-1.47.05-2.95.07-4.42Z"/><path class="cls-233" d="M662.35,68.67c-.05,1.93,1.29,4.32-.84,5.6-1.61,1-2.92-.45-3.72-2Z"/><path class="cls-234" d="M675.29,63.07l4.49.54a.86.86,0,0,1,.25,1c-.13.29-.25.43-.36.43-2.95-.08-6,6.53-8.83-.19-.42-.49-.48-.83-.19-1a1.26,1.26,0,0,1,.69-.17Z"/><path class="cls-235" d="M669.59,64.91c.45,6.23-1.72,6.85-6.06,2.83l4.6-3.09A.89.89,0,0,1,669.59,64.91Z"/><path class="cls-236" d="M669.59,64.91l-1.46-.26c-.41-2.42-.82-4.84-1.53-9.11,2.24,3.81,3.49,5.94,4.75,8.07a3.23,3.23,0,0,1-.51,1.19h-.63Z"/><path class="cls-237" d="M703,119.85l-1.48,0c-2.68,1.74.81,3.83-.77,6.2a16.9,16.9,0,0,1-3.77-8.29c.32-1.7,1.17-2.72,3.08-2.35Z"/><path class="cls-238" d="M700.06,115.44,697,117.79l-2.7.73c-1.29-5.79,1.5-6.17,5.9-4.42C700.15,114.55,700.11,115,700.06,115.44Z"/><path class="cls-239" d="M700.09,114.18c-.2-3.25-.9-6.87,4.47-5.89C704.24,111.13,702.4,112.83,700.09,114.18Z"/><path class="cls-240" d="M685.5,120.25c2.76-1.55,5-5.64,8.87-1.8l-1.55,1.65a1.47,1.47,0,0,1-1.59.7l-5.64.62-.45-.56Z"/><path class="cls-241" d="M681.2,131.47l-.09-8.48a.91.91,0,0,1,1.57,0c-.54,3.45.64,6.66,1.41,9.92Z"/><path class="cls-242" d="M682.68,123h-1.57l.17-.49c-.56-.22-.75-.47-.59-.75s.34-.42.51-.42c.86-2.61,2.19-3.36,4.3-1.08a5.13,5.13,0,0,0,.09,1.17C685.23,123.06,683.72,122.59,682.68,123Z"/><path class="cls-243" d="M691.23,120.8l1.59-.7c.47,1.79.95,3.57,1.5,5.66C691.39,124.89,691.61,122.67,691.23,120.8Z"/><path class="cls-179" d="M120.54,332.88c4.68-.33,8.55.77,10.15,5.8C126.81,337.61,123.63,335.33,120.54,332.88Z"/><path class="cls-172" d="M463.3,305.34c4.61-1.39,7.81.5,10.18,4.34C469.46,309.7,466.2,307.94,463.3,305.34Z"/><path class="cls-191" d="M459,302.49c3.31-1.85,3.25,1.39,4.35,2.87C461.25,305.37,459.19,305.33,459,302.49Z"/><path class="cls-196" d="M354.38,298.09l-2.95,4.34q-1.41-4.35-2.84-8.7c1.63-.87,2.06.65,2.85,1.43A2.71,2.71,0,0,0,354.38,298.09Z"/><path class="cls-177" d="M351.44,295.16l-2.85-1.43V287.8c2.35.94.79,3.83,2.89,4.5C351.47,293.25,351.45,294.2,351.44,295.16Z"/><path class="cls-70" d="M354.38,286.48a7.92,7.92,0,0,1-2.91,5.83C351.32,289.81,351.76,287.6,354.38,286.48Z"/><path class="cls-99" d="M367.42,199.57c1.71-.89,1.32-2.84,2.95-4.26v7.18A5.06,5.06,0,0,1,367.42,199.57Z"/><path class="cls-174" d="M364.58,196.67c1.8-.85.94-3,2.87-5.17v8.09A4.7,4.7,0,0,1,364.58,196.67Z"/><path class="cls-244" d="M509.76,148.87h2.88c0,1.44,0,2.87.05,4.31A4.5,4.5,0,0,1,509.76,148.87Z"/><path class="cls-245" d="M714.57,134.31l-10,.07c.94-3.86-3.06-8.88,2.72-11.61,2,2.43,4.85,1.09,7.3,1.47C714.62,127.6,714.59,131,714.57,134.31Z"/><path class="cls-246" d="M672.52,121.51a10.64,10.64,0,0,1-7.39-3.06C669.08,115.91,671.48,117.07,672.52,121.51Z"/><path class="cls-247" d="M681.2,121.33c0,.39,0,.78.08,1.17h-6.09c-1.55-2.87-1.18-4.42,2.35-2.89C678.75,120.14,679.61,121.5,681.2,121.33Z"/><path class="cls-248" d="M679.67,65c.05-.46.09-.92.11-1.38l4.39.22a3.59,3.59,0,0,0-.11.72C682.69,65.62,681.61,69.51,679.67,65Z"/></svg>