<svg xmlns="http://www.w3.org/2000/svg" xmlns:xlink="http://www.w3.org/1999/xlink" width="100px" zoomAndPan="magnify" viewBox="0 0 375 374.999991" height="100px" preserveAspectRatio="xMidYMid meet" version="1.0"><defs><clipPath id="id1"><path d="M 12 0 L 374.632812 0 L 374.632812 362.25 L 12 362.25 Z M 12 0 " clip-rule="nonzero"/></clipPath></defs><g clip-path="url(#id1)"><path fill="#ffffff" d="M 368.972656 204.179688 L 343.492188 204.179688 L 343.492188 5.894531 C 343.492188 2.785156 340.945312 0.238281 337.832031 0.238281 C 334.71875 0.238281 332.167969 2.785156 332.167969 5.894531 L 332.167969 22.867188 L 320.84375 22.867188 C 317.730469 22.867188 315.183594 25.414062 315.183594 28.523438 C 315.183594 31.636719 317.730469 34.179688 320.84375 34.179688 L 332.167969 34.179688 L 332.167969 45.496094 L 320.84375 45.496094 C 317.730469 45.496094 315.183594 48.042969 315.183594 51.152344 C 315.183594 54.265625 317.730469 56.808594 320.84375 56.808594 L 332.167969 56.808594 L 332.167969 68.125 L 320.84375 68.125 C 317.730469 68.125 315.183594 70.667969 315.183594 73.78125 C 315.183594 76.890625 317.730469 79.4375 320.84375 79.4375 L 332.167969 79.4375 L 332.167969 90.753906 L 320.84375 90.753906 C 317.730469 90.753906 315.183594 93.296875 315.183594 96.410156 C 315.183594 99.519531 317.730469 102.066406 320.84375 102.066406 L 332.167969 102.066406 L 332.167969 113.382812 L 320.84375 113.382812 C 317.730469 113.382812 315.183594 115.925781 315.183594 119.039062 C 315.183594 122.148438 317.730469 124.695312 320.84375 124.695312 L 332.167969 124.695312 L 332.167969 136.007812 L 320.84375 136.007812 C 317.730469 136.007812 315.183594 138.554688 315.183594 141.667969 C 315.183594 144.777344 317.730469 147.324219 320.84375 147.324219 L 332.167969 147.324219 L 332.167969 158.636719 L 320.84375 158.636719 C 317.730469 158.636719 315.183594 161.183594 315.183594 164.296875 C 315.183594 167.40625 317.730469 169.953125 320.84375 169.953125 L 332.167969 169.953125 L 332.167969 181.265625 L 303.859375 181.265625 L 303.859375 55.679688 C 303.859375 49.457031 298.765625 44.363281 292.535156 44.363281 L 281.210938 44.363281 C 274.984375 44.363281 269.886719 49.457031 269.886719 55.679688 L 269.886719 181.550781 L 267.339844 181.550781 C 267.339844 185.226562 267.339844 189.1875 267.058594 192.863281 L 269.886719 192.863281 C 276.117188 192.863281 281.210938 187.773438 281.210938 181.550781 L 281.210938 55.679688 L 292.535156 55.679688 L 292.535156 181.265625 C 292.535156 187.488281 297.632812 192.582031 303.859375 192.582031 L 332.167969 192.582031 L 332.167969 203.894531 L 254.601562 203.894531 C 260.546875 166.558594 248.941406 127.242188 220.347656 98.390625 C 172.789062 51.152344 95.503906 51.152344 47.941406 98.671875 C 0.382812 146.191406 0.382812 223.410156 47.941406 270.933594 C 71.722656 294.410156 102.863281 306.570312 134.285156 306.570312 C 160.046875 306.570312 185.808594 298.367188 207.609375 281.964844 L 216.382812 290.730469 L 214.402344 292.710938 C 212.136719 294.976562 212.136719 298.367188 214.402344 300.632812 L 268.472656 354.65625 C 273.570312 359.75 280.078125 362.011719 286.589844 362.011719 C 293.101562 362.011719 299.613281 359.464844 304.710938 354.65625 C 314.617188 344.757812 314.617188 328.632812 304.710938 318.734375 L 266.492188 280.832031 L 250.355469 264.710938 C 248.089844 262.445312 244.410156 262.445312 242.429688 264.710938 L 240.445312 266.6875 L 231.671875 257.921875 C 241.578125 244.910156 248.375 230.484375 252.335938 215.492188 L 368.972656 215.492188 C 372.085938 215.492188 374.632812 212.945312 374.632812 209.835938 C 374.632812 206.722656 372.085938 204.179688 368.972656 204.179688 Z M 296.5 326.9375 C 302.160156 332.59375 302.160156 341.363281 296.5 347.019531 C 290.835938 352.394531 282.0625 352.675781 276.398438 347.019531 L 242.429688 313.078125 L 262.527344 292.996094 Z M 246.390625 276.871094 L 254.316406 284.792969 L 234.21875 304.875 L 226.292969 296.953125 Z M 219.496094 254.808594 C 217.515625 257.070312 217.800781 260.464844 219.78125 262.445312 L 232.238281 274.890625 L 226.859375 280.265625 L 224.308594 282.8125 L 211.855469 270.367188 C 209.871094 268.386719 206.476562 268.101562 204.210938 270.082031 C 160.046875 306.289062 96.351562 303.175781 55.871094 262.730469 C 42.28125 249.152344 32.9375 232.746094 27.84375 215.492188 L 240.445312 215.492188 C 236.484375 229.351562 229.40625 242.929688 219.496094 254.808594 Z M 243.277344 204.179688 L 25.296875 204.179688 C 19.351562 169.667969 29.542969 133.179688 55.871094 106.59375 C 77.382812 85.09375 105.976562 74.347656 134.285156 74.347656 C 162.597656 74.347656 190.90625 85.09375 212.421875 106.59375 C 239.03125 133.179688 249.503906 169.667969 243.277344 204.179688 Z M 243.277344 204.179688 " fill-opacity="1" fill-rule="nonzero"/></g><path fill="#ffffff" d="M 236.199219 69.820312 C 229.972656 69.820312 224.875 74.914062 224.875 81.136719 L 224.875 87.074219 C 226.007812 88.207031 227.425781 89.339844 228.558594 90.46875 C 231.386719 93.296875 233.9375 95.84375 236.199219 98.957031 L 236.199219 81.136719 L 247.523438 81.136719 L 247.523438 114.230469 C 252.054688 121.582031 255.734375 129.222656 258.847656 136.859375 L 258.847656 81.417969 C 258.847656 75.195312 253.753906 70.105469 247.523438 70.105469 L 236.199219 70.105469 Z M 236.199219 69.820312 " fill-opacity="1" fill-rule="nonzero"/><path fill="#ffffff" d="M 134.570312 51.152344 L 134.570312 51.433594 C 138.25 51.433594 142.214844 51.71875 145.894531 52 L 145.894531 51.152344 L 157.21875 51.152344 L 157.21875 53.414062 C 161.179688 53.980469 164.859375 54.828125 168.539062 55.960938 L 168.539062 51.152344 C 168.539062 44.929688 163.445312 39.839844 157.21875 39.839844 L 145.894531 39.839844 C 139.382812 39.839844 134.570312 44.929688 134.570312 51.152344 Z M 134.570312 51.152344 " fill-opacity="1" fill-rule="nonzero"/><path fill="#ffffff" d="M 89.273438 96.410156 L 89.273438 181.550781 L 34.921875 181.550781 C 34.921875 185.226562 34.921875 189.1875 35.203125 192.863281 L 89.273438 192.863281 C 95.503906 192.863281 100.597656 187.773438 100.597656 181.550781 L 100.597656 91.601562 C 96.636719 92.730469 92.953125 94.429688 89.273438 96.410156 Z M 89.273438 96.410156 " fill-opacity="1" fill-rule="nonzero"/><path fill="#ffffff" d="M 134.570312 85.660156 L 134.570312 155.808594 L 123.246094 155.808594 L 123.246094 86.226562 C 119.28125 86.507812 115.601562 87.359375 111.921875 88.207031 L 111.921875 155.808594 C 111.921875 162.03125 117.019531 167.125 123.246094 167.125 L 134.570312 167.125 C 140.796875 167.125 145.894531 162.03125 145.894531 155.808594 L 145.894531 86.507812 C 141.929688 85.945312 138.25 85.660156 134.570312 85.660156 Z M 134.570312 85.660156 " fill-opacity="1" fill-rule="nonzero"/><path fill="#ffffff" d="M 202.230469 130.070312 L 190.90625 130.070312 C 184.675781 130.070312 179.582031 135.160156 179.582031 141.382812 L 179.582031 181.550781 L 168.257812 181.550781 L 168.257812 91.601562 C 164.578125 90.1875 160.898438 89.054688 156.933594 88.207031 L 156.933594 181.265625 C 156.933594 187.488281 162.03125 192.582031 168.257812 192.582031 L 179.582031 192.582031 C 185.808594 192.582031 190.90625 187.488281 190.90625 181.265625 L 190.90625 141.101562 L 202.230469 141.101562 L 202.230469 181.265625 C 202.230469 187.488281 207.324219 192.582031 213.554688 192.582031 L 224.875 192.582031 C 228.273438 192.582031 231.386719 190.882812 233.652344 188.335938 C 234.21875 173.0625 231.386719 158.070312 224.875 143.929688 L 224.875 181.265625 L 213.554688 181.265625 L 213.554688 141.382812 C 213.554688 135.160156 208.457031 130.070312 202.230469 130.070312 Z M 202.230469 130.070312 " fill-opacity="1" fill-rule="nonzero"/></svg>