<svg xmlns="http://www.w3.org/2000/svg" id="Layer_1" data-name="Layer 1" viewBox="0 0 512 512"><defs><style>.cls-1{fill:#8bc242}.cls-2{fill:#0f9849}.cls-3{fill:#41aa49}.cls-4{fill:#4bad48}.cls-5{fill:#3aa749}.cls-6{fill:#87c142}.cls-7{fill:#0b9548}.cls-8{fill:#84c142}.cls-9{fill:#69b745}.cls-10{fill:#7abc43}.cls-11{fill:#1b9b49}.cls-12{fill:#72ba44}.cls-13{fill:#26a049}.cls-14{fill:#209e49}.cls-15{fill:#1a6936}.cls-16{fill:#57af47}.cls-19{fill:#44a247}.cls-20{fill:#0c6133}.cls-21{fill:#217d3e}.cls-22{fill:#57a746}.cls-23{fill:#216f38}.cls-24{fill:#0e723c}.cls-25{fill:#3f9c46}.cls-27{fill:#31783b}.cls-29{fill:#408f42}.cls-30{fill:#238341}.cls-32{fill:#358e43}.cls-37{fill:#459544}.cls-41{fill:#379344}.cls-42{fill:#3b8841}.cls-45{fill:#289546}.cls-47{fill:#39843f}.cls-49{fill:#79bc43}.cls-50{fill:#108944}.cls-51{fill:#52ae48}.cls-52{fill:#248943}.cls-53{fill:#298f44}.cls-54{fill:#4aa747}.cls-57{fill:#6cb645}.cls-58{fill:#8caa79}.cls-62{fill:#5c9272}.cls-63{fill:#1f783c}.cls-64{fill:#80bf42}.cls-65{fill:#31a649}.cls-66{fill:#80c142}.cls-67{fill:#2c9b47}.cls-68{fill:#57b047}.cls-69{fill:#32a549}.cls-70{fill:#26a149}.cls-71{fill:#1f9e49}.cls-72{fill:#25a049}.cls-73{fill:#2ca349}.cls-74{fill:#4dad48}.cls-75{fill:#399946}.cls-76{fill:#40aa49}.cls-77{fill:#36a248}.cls-78{fill:#108f46}.cls-79{fill:#7fc142}.cls-81{fill:#51ab47}.cls-82{fill:#7bbd43}.cls-83{fill:#78bc43}.cls-87{fill:#3ba849}.cls-88{fill:#176032}.cls-89{fill:#4fab47}.cls-90{fill:#89a87c}.cls-91{fill:#3b9745}.cls-92{fill:#0f5b31}.cls-93{fill:#4fa045}.cls-94{fill:#1e6734}.cls-95{fill:#10793e}.cls-97{fill:#2b7138}.cls-98{fill:#2da349}.cls-99{fill:#2b9f48}.cls-100{fill:#60af46}.cls-102{fill:#5eb546}.cls-103{fill:#64b646}.cls-104{fill:#258e45}.cls-108{fill:#2e9446}.cls-109{fill:#38a749}.cls-110{fill:#319a47}.cls-111{fill:#2b8e44}.cls-112{fill:#31a549}.cls-115{fill:#107e40}.cls-116{fill:#53af47}.cls-117{fill:#3fa147}.cls-119{fill:#689a80}.cls-120{fill:#349244}.cls-121{fill:#4ead48}.cls-125{fill:#1d723a}.cls-129{fill:#246232}.cls-132{fill:#85a481}.cls-134{fill:#6bb845}.cls-135{fill:#5fb546}.cls-137{fill:#55b047}.cls-138{fill:#2f8842}.cls-141{fill:#59b347}.cls-145{fill:#1e6835}.cls-147{fill:#18582e}</style></defs><path d="M-1 508v-5h1a7 7 0 0 1 0 2 12 12 0 0 1-1 2v1Zm0-10v-5h1a1 1 0 0 0 0 1v1a6 6 0 0 1 0 2v1c0 1 0 0 0 0h-1Z" class="cls-1"/><path d="m38 451-1-1a22 22 0 0 1-1-3l-7-10a24 24 0 0 1-3-13V277c0-9 1-17 9-22l1-4a10 10 0 0 1 3-5c8-10 17-19 28-26l4-3a6 6 0 0 1 3-1l1 1c-7 6-4 15-4 23v110a4 4 0 0 0 1 2c7-11 17-19 25-29l21-20a10 10 0 0 0 1-1 12 12 0 0 1 1-1 38 38 0 0 1 5-6 11 11 0 0 0 2-1 9 9 0 0 1 2-2l1-1h1v-1a5 5 0 0 1 1-1l1-1h1v-1h1v-1h1v-1h1v-1h1v-1l1-1 1-1h1v-1a14 14 0 0 1 3-2 3 3 0 0 1 1-1 2 2 0 0 1 1 1v1a6 6 0 0 1 0 1l-22 22a13 13 0 0 0-2 1 101 101 0 0 1-10 11 12 12 0 0 0-2 1 38 38 0 0 1-6 7 14 14 0 0 0-1 1l-12 12-1 2-13 15-1 1-2 2-1 2c-3 6-7 12-9 19-4 14-2 26 6 38l7 11a3 3 0 0 1-1 2c-2 0-3-2-5-3v54c-2 2-4 0-5-1-9-6-16-14-23-21l-5-5Z" class="cls-2"/><path d="m224 12 15 7a188 188 0 0 1 17 11l8 6c1 1 2 2 0 4-4-1-6-4-9-6l1 41v88c0 3-1 5-3 5-2 1-3 0-3-1l-16-21-1-1-1-1-14-15-2-4c2-8 0-16 1-24V19c-1-5 2-8 7-7Z" class="cls-3"/><path d="M294 497h-1l-1-1h-2a2 2 0 0 1 0-1h-2a4 4 0 0 1-1-1h-1l-2-1-1-1a2 2 0 0 0-1 0l-7-4c-6-3-13-7-18-12a6 6 0 0 1-4-2c-3-3-3-7-3-11 2-10 1-20 1-30v-90c0-3 0-6 2-8a5 5 0 0 1 4-2c3 0 3 4 5 5l21 25a10 10 0 0 1 0 4 7 7 0 0 1 0 1l1 41v39l-1 39c0 2 2 3 3 4l12 5a9 9 0 0 1 1 0 6 6 0 0 1 1 1 3 3 0 0 1 1 1c0 1 0 2-1 1a2 2 0 0 1-2 0 2 2 0 0 0-1-1h-1l-2-1Z" class="cls-4"/><path d="M224 12h-3a1 1 0 0 0-2 1l-1 3a4 4 0 0 0 0 4 3 3 0 0 1 0 3 3 3 0 0 0 0 4 3 3 0 0 1 0 4 3 3 0 0 0 0 4 3 3 0 0 1 0 3 4 4 0 0 0 0 5 3 3 0 0 1 0 3l-1 3a6 6 0 0 1 0 6 1 1 0 0 0 0 1 7 7 0 0 1 0 7 7 7 0 0 1 0 8 7 7 0 0 1 0 7 7 7 0 0 1 0 7 7 7 0 0 1 0 8c2 2 2 5 0 7l1 2v5a3 3 0 0 0 0 3v2a6 6 0 0 0 0 7 1 1 0 0 1 0 1l-2 5c-2 1-3-1-4-2l-24-24c-1-1-3-3-2-5a37 37 0 0 0 1-7V13c0-4-1-7-3-10a2 2 0 0 1 1-2l14 2a175 175 0 0 1 22 7 5 5 0 0 1 3 2Z" class="cls-5"/><path d="M477 59a138 138 0 0 1 12 17l10 19a12 12 0 0 1 1 5 2 2 0 0 1 1 1c-5 0-3 4-3 6v67l-1 33c0 3 0 6 3 7a12 12 0 0 1-1 6l-11 20-9 13a1 1 0 0 1-1 1c-3-1-3-4-3-6l1-12V82a86 86 0 0 0 0-12 8 8 0 0 1 1-5 2 2 0 0 1 1-2 2 2 0 0 1 1 1 4 4 0 0 0-1-1c-2-1-3-2-2-5a1 1 0 0 1 1 1Z" class="cls-6"/><path d="m37 250-1 7-1 1v-1a9 9 0 0 0-1-1 83 83 0 0 0-5 8c-1 1-2 2 0 4a1 1 0 0 1-1 2l-1 7v148l1 7v1l2 3c2 0 0 2 1 3l3 4a8 8 0 0 1 3 4h-2a16 16 0 0 0-3-4 47 47 0 0 1-8-11 12 12 0 0 0-2-3l-1-2c-8-14-13-29-16-44a117 117 0 0 1-3-29v-9a116 116 0 0 1 3-31 157 157 0 0 1 15-40 112 112 0 0 1 10-15 9 9 0 0 1 2-4h1v-1c1-2 2-5 4-4ZM36 58l4-4v-1l4-4a145 145 0 0 1 23-21 12 12 0 0 1 2 0v-1a10 10 0 0 1 5-3 1 1 0 0 1 1 0v1a4 4 0 0 1-1 1 8 8 0 0 1-1 1 10 10 0 0 0-1 1 22 22 0 0 1-2 2C57 40 45 51 35 64c-4 6-7 12-7 20v71l1 6c13-6 22-17 33-25 2 0 3 2 3 3l3 5a3 3 0 0 1 0 2l-10 8c-5 2-8 6-11 9-7 7-13 14-22 19a88 88 0 0 0-12 8c-2 1-4 3-6 1a4 4 0 0 1-1-1l-1-1a8 8 0 0 1 0-4 15 15 0 0 0-1-1v-5a19 19 0 0 0-1-2v-6a29 29 0 0 0 0-5 5 5 0 0 0-1-1c0-12-1-24 2-36a184 184 0 0 1 8-30 177 177 0 0 1 14-27l4-5a8 8 0 0 1 2-4h1a5 5 0 0 1 1-3l2-1v-1Z" class="cls-7"/><path d="M481 442c-2 3-4 7-7 9-2 1-3 4-5 1l-1-7v-76a30 30 0 0 0 0-6c-1-5 0-8 4-11a174 174 0 0 0 26-30c2-2 4-5 7-6a3 3 0 0 1 1 0l1 2a6 6 0 0 1 1 2 3 3 0 0 1 0 2l-9 9c-5 4-6 9-6 15l1 42c0 9-1 19 1 28 0 4-3 6-3 9s-3 4-4 7l-3 4-1 2-3 4Z" class="cls-8"/><path d="M323 1a76 76 0 0 1 19-2h15c12-1 24 2 36 5l8 2 3 1 2 1h1c-1 3-3 2-5 2-4-2-5 1-5 4v25c0 4 1 9-1 14-1 2 1 2 3 3 2 0 5 0 7 2v2a4 4 0 0 1-2 0 20 20 0 0 0-3 0c-8-2-15 0-23 1a18 18 0 0 1-4-1 6 6 0 0 1-1 0c-8-7-13-15-12-26V7c0-3 0-6 4-7l-7 1a205 205 0 0 0-33 2 3 3 0 0 1-2-2Z" class="cls-9"/><path d="M459 40a4 4 0 0 1 2 1v1l4 3 5 6 1 1a3 3 0 0 1 2 2 1 1 0 0 1 0 2c-3 0-5-2-6-4l-13-13-3-2-1 4-1 51c0 5 2 8 4 12 3 11 2 22-2 33l-4 4a2 2 0 0 1-1-1v-2l3-6a11 11 0 0 1 0-2v-2l1-3v-2c1-8 0-15-3-22l-1-2v-1l-1-2-2-3-1-1c-3-5-8-9-10-14-1-3-4-5-7-7a7 7 0 0 1-3-8V24c0-3-1-6 3-7 3 0 6 2 8 4a161 161 0 0 1 24 17 7 7 0 0 1 1 1l1 1Z" class="cls-10"/><path d="M73 26h1l1-1c1-2 4-2 5-5a15 15 0 0 1 3-2l16-7 5-2c3 2 0 3-1 3-4 1-4 4-4 7l1 38v4a3 3 0 0 1 1 1c-4 5-10 8-15 11a11 11 0 0 1-1 0 50 50 0 0 0-11 11c-1 1-2 3-4 2s-2-3-2-4l1-41c0-4-1-8 1-12a3 3 0 0 1 2-2l1-1Z" class="cls-11"/><path d="M425 17a5 5 0 0 0-2 4l1 5c1 2-1 4-1 6 1 1 2 3 1 5a2 2 0 0 0-1 1l1 9-1 6a2 2 0 0 0 0 1c2 4 0 8 0 12a2 2 0 0 0 0 2 15 15 0 0 0 3 2l7 6a1 1 0 0 1 0 3l-1-1a7 7 0 0 1-1 0l-1-1v-1h-1l-1-1a7 7 0 0 1-1-1 8 8 0 0 0-2-1l-1-2h-1l-1-1h-1l-12-8c-2 0-3 0-3-2a1 1 0 0 0 0-1l-7-2a12 12 0 0 1-5-1l1-3 1-4V38a3 3 0 0 1 0-2 13 13 0 0 0 0-1v-6a8 8 0 0 0 0-6 3 3 0 0 1 0-2 7 7 0 0 0 0-4V7l6 2c2 0 3 1 5-1a65 65 0 0 1 17 8l1 1Z" class="cls-12"/><path d="M185 1v1c-5 2-10-1-14 0-9-2-18-1-28 0 4 6 2 12 2 18a1301 1301 0 0 1-1 42 3 3 0 0 1-3 1c-6-3-11-4-17-5-6-2-6-1-6-8V8c-1-2 0-3 2-4 2 0 4 0 6-2a99 99 0 0 1 21-3h25a22 22 0 0 1 4 0l2 1a15 15 0 0 1 5 0h1Z" class="cls-13"/><path d="M447 477a4 4 0 0 1-2 2h-2v1a28 28 0 0 1-5 3l-2 1c-5 4-11 7-16 9a22 22 0 0 0-4 2 4 4 0 0 1-3 1l-13 5h-4c-2-7-1-13-1-20v-31c1-3 3-3 5-3a50 50 0 0 0 13-5h2l1-1h1a4 4 0 0 1 1-1h1v-1h1a5 5 0 0 1 1-1h1v-1l1-1h1a7 7 0 0 1 0-1h1a3 3 0 0 1 1 0 2 2 0 0 1 1 0c-6 8-3 16-3 24v29l21-12a3 3 0 0 1 1 0 1 1 0 0 1 1 1Z" class="cls-12"/><path d="m492 425-1-1 1-4c3-2 2-3 1-6-1-1-2-3-1-5v-9l1-6a2 2 0 0 0 0-2 7 7 0 0 1 0-6l-1-5 1-4a6 6 0 0 1 0-5 26 26 0 0 1 0-10 6 6 0 0 1 0-5 3 3 0 0 0 0-3 6 6 0 0 1 0-5 2 2 0 0 0 0-1c-2-4 0-7 0-11a4 4 0 0 1 1-3l6-6a14 14 0 0 0 3-3 8 8 0 0 1 3-3 7 7 0 0 0 2-1 2 2 0 0 1-1-1l1-2 2 9a160 160 0 0 1-11 84l-7 14Zm8-211h-1a17 17 0 0 0-1 2l-1 1v-1l-1-7a3 3 0 0 1 0-2 7 7 0 0 0 0-5 3 3 0 0 1 0-2 8 8 0 0 0 0-6 3 3 0 0 1 0-2 7 7 0 0 0 0-5 3 3 0 0 1 0-2 8 8 0 0 0 0-6 3 3 0 0 1 0-2 6 6 0 0 0 0-5c-1-2 1-3 1-5s-2-3-1-5a6 6 0 0 0 0-5c-1-2 1-3 1-5s-2-3-1-5a6 6 0 0 0 0-5c-1-2 1-3 1-5s-2-3-1-5a6 6 0 0 0 0-5c-1-2 1-3 1-5s-2-3-1-5v-12a5 5 0 0 1 0-4l1-2c2-1 2 1 2 2 1 1 1-1 1-1a3 3 0 0 1 1 3l4 11a45 45 0 0 1 3 11l2 15a160 160 0 0 1 0 40l-3 16a12 12 0 0 1-2 4 39 39 0 0 0-4 12 2 2 0 0 1-1 2Z" class="cls-1"/><path d="M126 2a8 8 0 0 1 1 1 4 4 0 0 1 0 1h-4c-5 1-5 1-4 7a7 7 0 0 1 1 2v30l-1 10c0 2 1 3 2 3l4 1-18 3a17 17 0 0 0-2 0h-1l-2 1h-2a9 9 0 0 0-1 1h-1v-2a8 8 0 0 0 0-3V19a7 7 0 0 0-1-4l1-2 6-2V9a14 14 0 0 1 3-2l12-3h1a4 4 0 0 1 3-1 3 3 0 0 1 3-1Z" class="cls-14"/><path d="m255 474 2 2-4 2c-2 1-4 0-5-2l-25-22c-8-7-15-16-25-23l-16-15a4 4 0 0 1-1-2c1-3 2-5 5-5 11 9 22 18 32 29-1-1-2-2-1-4 3 0 3 1 4 3a30 30 0 0 0 3 4c9 13 20 23 31 33Z" class="cls-15"/><path d="m323 1 2 1c13 21 32 38 45 59a2 2 0 0 1 0 1 2 2 0 0 1-1 1l-2 1h-1a6 6 0 0 1-1 1 3 3 0 0 1-2 0 265 265 0 0 1-20-24l-1-1a9 9 0 0 1 0-1 6 6 0 0 1-1-1 7 7 0 0 0-3-4c-8-9-16-18-21-28a4 4 0 0 1 0-1 3 3 0 0 1 1-1 5 5 0 0 1 0-1h1c1 0 0 0 0 0l-1-1a14 14 0 0 1 5-1Z" class="cls-16"/><path fill="#77bb43" d="M508 318v2h-1v-2l-1-2c-2-3-3-3-6 0l-28 36-1 1a9 9 0 0 1-1 1l-1 1-1 1-1 1-1 1-1 1a76 76 0 0 1-9 9c-3 2-4 5-3 9 3 11 2 22-3 32a11 11 0 0 1-1 2 3 3 0 0 1-2 1 2 2 0 0 1-1-1 4 4 0 0 1 0-1 5 5 0 0 1 0-1l1-2 2-5v-2l1-3v-2a122 122 0 0 0 0-13 55 55 0 0 1-2-6v-3c-1-4 1-7 3-10 6-9 14-15 20-24a192 192 0 0 1 16-19c5-6 8-12 15-16a3 3 0 0 1 1 0l2 3v1a3 3 0 0 1 1 2 7 7 0 0 1 0 1l1 3a8 8 0 0 1 0 1l1 3Z"/><path fill="#1c723a" d="M182 413c1 3 3 4 5 6l10 10a10 10 0 0 0 4 3c3 0 4 3 6 5a21 21 0 0 0 3 2l9 10 1 1c3 1 4 2 5 4a30 30 0 0 0 6 5 27 27 0 0 1 4 3l8 8a34 34 0 0 1 5 5 17 17 0 0 0 5 3 24 24 0 0 1-9 6 1 1 0 0 1-1 0v-1a2 2 0 0 0-1-4l-7-7-24-22-28-27c-1-2-4-3-7-3a2 2 0 0 1 0-2c0-3 3-4 6-5Z"/><path d="M308 5a4 4 0 0 1 3-1l1 1a3 3 0 0 1-1 1l-1 1h-2c-3 1-3 3-1 5l24 27 23 27a11 11 0 0 1 2 4l-2 2a5 5 0 0 1-1 1c-2 0-4-1-5-3l-10-11-14-14c-9-10-19-19-26-30l-2-6 11-4Z" class="cls-19"/><path d="M37 250a7 7 0 0 0-2 2 4 4 0 0 1-2 2 10 10 0 0 0-2-4 3 3 0 0 1-1-2c-1-2 0-4 2-5a171 171 0 0 1 22-22c15-11 27-25 40-38a6 6 0 0 1 5-2 3 3 0 0 1 2 2c1 2 0 4-2 6l-23 22-8 8v1l-7 5-1 1-9 8-13 14a5 5 0 0 0-1 2Z" class="cls-20"/><path d="M243 485c-2 1-3 3-5 3a124 124 0 0 0-12-12c-8-7-14-15-23-21l-17-16-13-11c-2-2-3 0-5-1a2 2 0 0 1-1-1 4 4 0 0 1 1-1v-1l1-1c2-1 3-3 6-3l9 6 20 19 22 20c5 6 12 9 16 15l2 3a3 3 0 0 0-1 2Z" class="cls-21"/><path d="m497 283 2 6c1 1 1 2-1 2-2-1-4 0-5 2l-38 43-16 17a6 6 0 0 1-4-6l11-13q15-15 28-31l20-21c1-1 2 1 3 1Z" class="cls-22"/><path d="m265 39-8-7a1 1 0 0 1-1-2l5-2a5 5 0 0 1 6 1l16 18 9 10c11 11 23 22 33 34a5 5 0 0 0 4 2 2 2 0 0 1 1 1 4 4 0 0 1-4 4 7 7 0 0 1-4-2c-11-11-23-22-33-34 1 2 6 4 4 8-2 0-2-1-3-2-7-10-15-20-24-27a2 2 0 0 1-1-2Z" class="cls-23"/><path d="M23 238a8 8 0 0 1-2-5c0-3 3-3 5-4l28-26 25-22c3-3 7-5 7-10a4 4 0 0 1 0-2 2 2 0 0 1 0-1c3 1 5 3 6 6a7 7 0 0 1-3 7l-31 28-28 27a7 7 0 0 1-7 2Z" class="cls-24"/><path d="M296 9a70 70 0 0 0 12 16l4 5h1c0 3 3 5 5 6l3 2a2 2 0 0 1 1 1c0 4 3 5 5 6s3 2 3 4a2 2 0 0 0 1 2c2 0 3 1 4 3 4 5 8 11 14 16l4 2c1 2-1 2-2 3a14 14 0 0 1-2 2 5 5 0 0 1-2 0 5 5 0 0 1-3-2l-29-33-21-24-5-5 4-3a3 3 0 0 1 3-1Z" class="cls-25"/><path fill="#0f7d40" d="M86 169v2c-14 11-27 24-40 36-7 7-14 14-23 20-2 1-3 2-5 0l-1-2c-1-1 0-1 1-2l39-36a168 168 0 0 1 21-18c2-1 3-3 2-5-1-1-3-3-1-4 3 1 5 3 7 6v3Z"/><path d="M478 253a1 1 0 0 0 1 0l3 4c1 2 0 4-2 6l-38 39-21 22a15 15 0 0 1-5 4 2 2 0 0 1-2-2c-1-4 3-7 5-9 6-4 10-10 14-14l18-18-4 1a2 2 0 0 1 0-2l14-13 14-15c1-1 1-3 3-3Z" class="cls-27"/><path fill="#0f6d3a" d="m23 238 1-1c4 0 6-3 8-6a32 32 0 0 1 3-2l8-8c2-1 3-3 5-3l2-2 5-6c3-3 8-5 10-9a3 3 0 0 1 1-1c3-2 5-6 9-8a3 3 0 0 0 1-2 2 2 0 0 1 2-2c2 0 4-2 5-3l7-6a3 3 0 0 0 1-4v-1h1a3 3 0 0 1 1 0c2 2 4 2 4 5l-14 13-28 26-25 23c-1 1-2 2-4 1a5 5 0 0 1-2-3Z"/><path d="M489 269a7 7 0 0 1 3 5c-3-1-3-1-7 3-13 12-24 25-35 38l-18 18c-3 3-4 5-1 8a2 2 0 0 1 0 2 2 2 0 0 1-1 1 5 5 0 0 1-1-1h-1l-1-1-4-6v-3a1395 1395 0 0 0 60-63c2-2 4-3 6-1Z" class="cls-29"/><path d="M168 426h5a26 26 0 0 0 3 3l6 5 2 1 8 8 9 8c1 3 5 5 8 6a32 32 0 0 1 7 8 13 13 0 0 0 5 5 7 7 0 0 1 3 2 24 24 0 0 0 7 6l6 7 1 3-7 4a3 3 0 0 1-2 1 1 1 0 0 1-1-2c1-2 4-2 4-4s-3-2-4-4l-26-24-26-23-10-9c1-1 1-2 2-1Z" class="cls-30"/><path fill="#106737" d="m26 243 8-7 9-9 10-8 9-9 14-13 11-11a16 16 0 0 1 2-2l3-2a7 7 0 0 1 2-1c1-1 0-3 2-2 3-1 3 1 3 3-2 0-4 0-5 3l-13 13h-1a22 22 0 0 1-7 7 2 2 0 0 0-1 1 7 7 0 0 1-3 4 14 14 0 0 0-5 4 11 11 0 0 1-6 5c-3 1-4 4-6 6a7 7 0 0 1-3 3 13 13 0 0 0-5 3l-6 6-3 4-2 2c-2 1-3 3-3 5a18 18 0 0 1-4-5Z"/><path d="M279 17a10 10 0 0 1 6-3c3 7 9 12 14 18l25 27 12 13c3 2 5 6 6 9-2 4-4 3-6 1l-12-13-30-33-13-14-2-5Z" class="cls-32"/><path fill="#2c7f3e" d="M269 22a5 5 0 0 1 4-2c4 2 6 7 10 10l22 24 27 29c1 2 2 3 4 2a2 2 0 0 1 3 2c0 2-2 3-3 3-5 1-7 0-10-4l-35-37-20-22c-1-1-3-3-2-5Z"/><path fill="#499a45" d="m430 343 1-1c-1-5 2-7 4-10l33-35 18-20c2-2 4-3 7-1a16 16 0 0 1 4 7h-2c-2-3-4-3-6 0l-28 30-25 28c-2 2-1 4 0 6a3 3 0 0 0 0 2l3 4a2 2 0 0 1 1 1 2 2 0 0 1-1 1l-2-2-1-1a23 23 0 0 1-2-2l-1-2c-1-1-4-2-3-5Z"/><path fill="#367f3d" d="m416 328 3-4a4 4 0 0 0 2-1 63 63 0 0 1 12-13 3 3 0 0 0 1-1 7 7 0 0 1 3-4l11-11 16-17 8-8 5-5a12 12 0 0 1 3-2l2-5a10 10 0 0 1 3 6 1 1 0 0 1 1 1h-1a14 14 0 0 0-6 4l-24 27-28 28-4 4c-1 1-2 3 0 4a4 4 0 0 1 0 1 2 2 0 0 1-1 2 2 2 0 0 1-1 0 5 5 0 0 1-1 0c-1-2-4-3-4-6Z"/><path fill="#0f8142" d="M81 164a3 3 0 0 1 1 2 4 4 0 0 1-2 3 17 17 0 0 1-2 2 12 12 0 0 0-5 4 4 4 0 0 1-2 1c-4 2-7 5-10 9l-9 8-10 10a18 18 0 0 1-4 3 7 7 0 0 0-3 3l-5 5a43 43 0 0 0-10 9 3 3 0 0 1-3 1v1a7 7 0 0 1-2-3l-5-11a7 7 0 0 1 0-2 13 13 0 0 1-2-6l1-1a2 2 0 0 1 1 1 14 14 0 0 1 1 1v1l3 8c2 4 3 5 6 1l7-5 13-11 19-18c5-5 12-8 16-14a6 6 0 0 1 6-2Z"/><path d="M493 276h-1c-1-1-3 0-4 1l-6 7a7 7 0 0 1-2 2l-9 9c-3 3-5 7-9 9a9 9 0 0 0-2 2c-4 6-8 11-14 16a7 7 0 0 0-1 1 42 42 0 0 1-4 5c-4 3-7 6-9 11a23 23 0 0 0-1 3 8 8 0 0 1-3-3c-1-2-1-3 1-5a17 17 0 0 0 5-5 5 5 0 0 1 2-2l8-8c4-3 6-8 10-10l16-19 5-5a11 11 0 0 0 3-3v-1c3-1 5-4 7-6a6 6 0 0 0 3-4c2 1 2 3 4 3a2 2 0 0 1 1 2Z" class="cls-37"/><path fill="#27793c" d="M269 22c1 3 4 5 6 7l4 5a10 10 0 0 1 1 1c2 3 3 6 7 7l1 1 8 9 7 9a27 27 0 0 0 6 5 42 42 0 0 1 6 6l5 6a125 125 0 0 1 9 9c1 2 2 3 5 2a2 2 0 0 1 1 0c0 3-2 5-5 5l-1-1c-7-5-11-11-17-17l-35-37-12-14c1-1 2-3 4-3Z"/><path fill="#318842" d="M338 86a3 3 0 0 0-2 0l-13-14-10-11c-13-12-24-26-36-38-2-2-2-4 0-5v-1a1 1 0 0 1 1 0l1-1a43 43 0 0 0 8 11c2 2 4 3 5 6s3 3 5 5l8 8a33 33 0 0 0 6 6l2 3a6 6 0 0 0 2 3c5 4 9 10 15 14a10 10 0 0 1 1 3 28 28 0 0 0 6 6c2 2 2 2 5 0a3 3 0 0 1 3-2 2 2 0 0 1 1 0v2a5 5 0 0 1-1 1c-2 1-3 5-7 4Z"/><path fill="#08773e" d="M18 227s0-2 1 0h2l10-7 12-12a11 11 0 0 1 2-1l31-28c4-3 8-5 10-9a2 2 0 0 1 2 2 2 2 0 0 1-1 1l-7 8-7 6-6 6-6 5a28 28 0 0 1-3 3 34 34 0 0 0-6 6 24 24 0 0 1-4 4l-8 7-2 2c-3 1-4 3-6 5l-8 6c-1 1-2 0-3 2a9 9 0 0 1-3-6Z"/><path d="m345 79-3 2-4-5-2-3-8-9-1-1-12-12c-2-4-6-7-9-10l-4-5c-1-1-2-3-4-3a2 2 0 0 1-1-1c-1-3-3-4-5-6a5 5 0 0 1 0-1 22 22 0 0 0-8-7v-2a5 5 0 0 0 1-1v-1a2 2 0 0 1 2-1l4-2a3 3 0 0 1 2-1s1 0 0 0c-1 2-2 3-4 3l5 8 31 35 17 17a11 11 0 0 1 3 5 1 1 0 0 1 0 1Z" class="cls-41"/><path d="M489 269a4 4 0 0 0-5 1l-16 16a25 25 0 0 1-5 5 5 5 0 0 0-1 2c-3 3-6 5-8 9a5 5 0 0 1-1 1l-15 16a24 24 0 0 0-2 3 7 7 0 0 1-2 2 22 22 0 0 0-6 6 10 10 0 0 1-5 3l-1-1c0-3 2-5 3-7l38-38 18-20c2-2 4-3 6-1a5 5 0 0 1 2 3Z" class="cls-42"/><path fill="#2e8440" d="m277 18-1 2 2 2 8 9 5 5a136 136 0 0 0 10 11l4 6 10 9 7 8c2 2 3 4 6 5l1 2 6 7a2 2 0 0 1 1 2c-2 1-3 1-4-1a48 48 0 0 1-3-4 9 9 0 0 0-3-3 5 5 0 0 1-2-1 10 10 0 0 0-3-4 10 10 0 0 1-4-3 38 38 0 0 0-6-8l-13-14c-4-2-6-5-8-8a68 68 0 0 0-6-7l-2-2a2 2 0 0 0-2-2 2 2 0 0 1-2-2v-1c-3-1-4-4-6-6a7 7 0 0 1 5-2Z"/><path fill="#24733a" d="m265 25 11 11 7 8 13 14a39 39 0 0 0 4 4l6 7a5 5 0 0 0 1 1 9 9 0 0 1 2 1 65 65 0 0 0 9 9l9 10a4 4 0 0 1 2 3c-2 2-2 2-3 1a12 12 0 0 1-2-2l-7-8c-8-10-18-19-27-28l-5-5a18 18 0 0 1-3-4l-7-6-2-3-2-3c-1-1-3-2-3-4a7 7 0 0 0-7-3 4 4 0 0 1 2-2l2-1Z"/><path d="m43 455 3 2 7 7 14 13a17 17 0 0 0 3 1h1a7 7 0 0 1 1 1l1 1a15 15 0 0 1 3 1l1 1 1 1h1l1 1 1 1h2a16 16 0 0 1 2 2l1 1h1l2 1a7 7 0 0 1 2 1l1 1h1l2 1a21 21 0 0 1 3 1l3 1a13 13 0 0 0 2 1 15 15 0 0 1 3 1l2 1h1l2 1h1a9 9 0 0 0 1 1 11 11 0 0 1 1 0 12 12 0 0 0 2 1 17 17 0 0 1 2 0l1 1h1a9 9 0 0 1 2 0 21 21 0 0 0 4 1h2l8 2a21 21 0 0 0 3 0h1a21 21 0 0 1 4 1 17 17 0 0 0 5 0 13 13 0 0 1 2 1h17a21 21 0 0 1 5-1 13 13 0 0 1 1 0 11 11 0 0 0 4 0 15 15 0 0 1 3-1h1a9 9 0 0 0 3 0 11 11 0 0 1 3 0l1-1a9 9 0 0 0 2 0 17 17 0 0 1 2 0l2-1a7 7 0 0 1 1 0h1a12 12 0 0 0 2-1 5 5 0 0 1 1 0h1l1-1a5 5 0 0 1 1 0h2a14 14 0 0 0 1-1 7 7 0 0 1 1 0 5 5 0 0 1 3 0 1 1 0 0 1 0 1 3 3 0 0 1-2 1h-1a16 16 0 0 1-6 2 65 65 0 0 1-12 3 13 13 0 0 1-6 1 55 55 0 0 1-12 1h-22a8 8 0 0 1-3 0h-1a55 55 0 0 1-13-2 171 171 0 0 1-19-5l-3-1a4 4 0 0 1-3-1l-12-4-12-6a52 52 0 0 1-8-6c-6-2-10-6-15-10a125 125 0 0 1-17-16 2 2 0 0 1 0-2Z" class="cls-45"/><path fill="#5dab46" d="M439 354v-1l3-4c3-5 8-8 12-13a119 119 0 0 1 9-10l7-8 7-9a94 94 0 0 1 8-8 32 32 0 0 0 4-5 49 49 0 0 1 6-6c1-2 1-2 3 0 1 1 1 0 1-1a32 32 0 0 1 3 8 12 12 0 0 1 2 6l-1 1c-2-2-2-5-3-7s-2-4-4-1l-19 20-18 20a172 172 0 0 0-14 15l-3 4-3-1Z"/><path d="m487 266-2-1-3 2-8 9-3 3c-2 3-5 4-6 7a2 2 0 0 1-1 1l-11 11-4 3a57 57 0 0 0-5 6l-1 1-16 17a14 14 0 0 0-5 7l-2-2a1 1 0 0 1 0-2l6-6 18-18a71 71 0 0 1 8-8l6-7 1-1 6-6 13-14 4-4h4l1 1Z" class="cls-47"/><path fill="#65a05c" d="m396 501 12-4 5-1a17 17 0 0 1-7 3l-20 6a132 132 0 0 1-32 3l-23-1c-5-1-11-1-16-3l4-1a8 8 0 0 1 1 0 26 26 0 0 0 5 1l7 1c11 1 21 2 32 1a21 21 0 0 1 5-1h3a20 20 0 0 0 2 0 148 148 0 0 0 17-4h5Z"/><path d="m447 477-1-1c-1-2 1-2 2-3a139 139 0 0 0 16-15l1-1 5-4 3-2h1a4 4 0 0 1-1 2h-1v1h-1l-1 2a4 4 0 0 1-3 3 6 6 0 0 1-4 4 7 7 0 0 1-4 3v1l-6 6-6 4Z" class="cls-49"/><path d="m9 202-1 1c-2-5-3-9-3-14l-1-1a31 31 0 0 1-1-11v-1c-2-3-1-7-1-11h1l1 5v8l1 1v5a10 10 0 0 0 1 1v4a11 11 0 0 0 0 1v1c3 3 5 7 3 11Z" class="cls-50"/><path d="M319 504h-4l-3-1h-1a43 43 0 0 1-11-4l1-1c3-1 5 1 8 1l5 2c2 1 5 0 5 3Z" class="cls-51"/><path d="M505 114a7 7 0 0 1-1 1l-4-11 1-1c2 2 3 5 3 8l1 3Zm-4 98a2 2 0 0 1-1-2 92 92 0 0 0 3-9c1-1 1-2 2-1v1l-1 3c0 3-1 6-3 8Z" class="cls-6"/><path d="M229 491v2a6 6 0 0 1-4 1 16 16 0 0 1-7 3 1 1 0 0 1-1 0 1 1 0 0 1 0-1 7 7 0 0 1 3-2h1l1-1 4-1a4 4 0 0 1 2-1h1Z" class="cls-52"/><path d="m217 496 1 1a2 2 0 0 1-2 1 3 3 0 0 1-3 1 3 3 0 0 1-2 1h-1v-1a1 1 0 0 1 0-1h2a6 6 0 0 1 0-1 12 12 0 0 1 2 0 13 13 0 0 1 1-1 14 14 0 0 1 1 0 1 1 0 0 1 1 0Z" class="cls-53"/><path d="m312 5-1-1a16 16 0 0 1 7-2l1 1h1-2l-1 1h1a5 5 0 0 1-6 1Z" class="cls-54"/><path d="m80 20 1 1-6 4v-1a1 1 0 0 1 0-1h1l1-1 2-1Z" class="cls-2"/><path fill="#5c9475" d="M43 455v2a14 14 0 0 1-5-6 3 3 0 0 1 2 1l3 3Z"/><path fill="#9da977" d="M473 56v-2c2 1 3 2 4 5h-1a3 3 0 0 1-3-2 3 3 0 0 1 0-1Z"/><path d="m503 304 1-1a4 4 0 0 1 1 3v2a4 4 0 0 1-2-4Z" class="cls-57"/><path d="M485 436a6 6 0 0 1 3-5 6 6 0 0 1-3 5Zm-4 6c0-2 2-3 3-4 0 2-1 3-3 4Z" class="cls-58"/><path fill="#4e8d67" d="M32 443a4 4 0 0 1 3 4l-3-4Z"/><path fill="#80a17d" d="M416 495a4 4 0 0 1 4-2 6 6 0 0 1-4 2Z"/><path fill="#4e8c67" d="M35 447h2l1 3a4 4 0 0 1-3-3Z"/><path d="M22 429a3 3 0 0 1 2 3l-2-3Z" class="cls-62"/><path d="M243 485c-1-1-1-1 1-2v2Z" class="cls-63"/><path d="m504 204 1-3a3 3 0 0 1-1 3Z" class="cls-1"/><path d="m406 8-2-1a2 2 0 0 1 2 1Zm-2-1-3-1 3 1Z" class="cls-12"/><path d="m505 114-1-3a3 3 0 0 1 1 3Z" class="cls-1"/><path d="M484 438a1 1 0 0 1 1-2 2 2 0 0 1-1 2Z" class="cls-58"/><path d="M505 308v-2 2Z" class="cls-64"/><path d="M287 494a1 1 0 0 1 1 1l-1-1Z" class="cls-51"/><path d="m425 16-1-1a2 2 0 0 1 1 1Z" class="cls-10"/><path d="M294 497a1 1 0 0 1 2 1 1 1 0 0 1-2-1Z" class="cls-51"/><path d="M21 427a1 1 0 0 1 1 2 2 2 0 0 1-1-2Z" class="cls-62"/><path d="M184 0h-1 1Z" class="cls-65"/><path d="M507 315v-1 1Zm-1-4v-1 1Z" class="cls-64"/><path d="M5 188v1H4Z" class="cls-7"/><path d="M10 209Z" class="cls-50"/><path d="M24 239Z" class="cls-24"/><path d="M123 3Zm-3 1a1 1 0 0 1-1 0Z" class="cls-13"/><path d="M33 255h-1Z" class="cls-2"/><path d="M308 5h-1 1Z" class="cls-54"/><path d="M99 11Z" class="cls-14"/><path d="M30 259Z" class="cls-2"/><path d="M291 11Z" class="cls-25"/><path d="M486 264a4 4 0 0 1-1 0 5 5 0 0 1 0-1 1 1 0 0 1 1 1Zm1 1a1 1 0 0 1-1-1h1Z" class="cls-42"/><path d="M287 12v1-1Z" class="cls-25"/><path d="M278 17a1 1 0 0 1-1 0h1Z" class="cls-32"/><path d="M79 21s0-1 0 0Zm-2 1Zm-1 1h-1Zm-1 1h-1Zm-6 3v1-1Z" class="cls-11"/><path d="M459 40a1 1 0 0 1-1-1l1 1Zm2 2v-1Zm4 3Zm6 7a1 1 0 0 1-1-1l1 1Z" class="cls-66"/><path d="M40 53v1-1Zm-4 5a1 1 0 0 1 0 1v-1Zm-2 2Zm-1 3h-1Z" class="cls-2"/><path d="M502 297Z" class="cls-57"/><path d="M30 67Z" class="cls-2"/><path d="m472 454 1-1v1Zm-1 0h1Zm-1 3v-1Zm-3 2Zm-4 4Zm-4 4v-1 1Z" class="cls-8"/><path d="M444 479h1Zm-1 1v-1 1Z" class="cls-49"/><path d="M75 483h-1Z" class="cls-11"/><path d="M438 483Z" class="cls-49"/><path d="M244 485a1 1 0 0 1 0-1 1 1 0 0 1 0 1Z" class="cls-21"/><path d="M436 484Z" class="cls-49"/><path d="M231 492Z" class="cls-52"/><path d="M282 492a1 1 0 0 1 1 0 1 1 0 0 1-1 0Zm2 1a1 1 0 0 1 1 0h-1Zm2 1Z" class="cls-51"/><path d="M225 494v1Z" class="cls-53"/><path d="M290 495v1Zm2 1a1 1 0 0 1 1 1l-1-1Z" class="cls-51"/><path d="M216 498Z" class="cls-67"/><path d="M297 498a1 1 0 0 1 1 1l-1-1Z" class="cls-51"/><path d="M107 499Z" class="cls-14"/><path d="M213 499Z" class="cls-67"/><path d="M110 500Z" class="cls-2"/><path d="M210 500a1 1 0 0 1 1 0h-1Zm-3 1h1Zm-6 2Z" class="cls-67"/><path d="M311 503h1-1z" class="cls-68"/><path d="M3 176v1l-1-1Z" class="cls-7"/><path d="M189 506Zm-6 1Z" class="cls-69"/><path d="M145 508h1-1Z" class="cls-70"/><path d="M98 323a151 151 0 0 1-13 15 91 91 0 0 0-10 11l-4 6c-1-2-2-4-1-6a1 1 0 0 0 0-1v-14c1-2-1-4-1-6 1-2 2-3 1-5v-12a3 3 0 0 0 0-2 9 9 0 0 1 0-6 4 4 0 0 0 0-3 5 5 0 0 1 0-4c1-2-1-3-1-5s2-4 1-6a3 3 0 0 1-1-2 7 7 0 0 0 0-6l1-5-1-5a7 7 0 0 0 0-5l1-5v-5a6 6 0 0 0-1-5 25 25 0 0 0 0-10 6 6 0 0 0 0-5 2 2 0 0 1 0-1c2-3 1-6 0-8l1-3 5-4v-1a8 8 0 0 1 1-1 11 11 0 0 1 1-1 15 15 0 0 0 2-1l5-3 21-10c3 0 5-2 8-3h3l2-1h2l2-1h2l3-1h2a4 4 0 0 1 3 0v2a5 5 0 0 1-2 1 17 17 0 0 1-3 1h-2l-3 1h-2a27 27 0 0 0-3 1 92 92 0 0 0-9 3c-8 4-8 4-8 12v102c0 2 0 5-2 7Z" class="cls-11"/><path d="M98 323V207c0-3 0-3 3-3l9-4 8-3c4 4 3 8 3 12v75c0 6 1 12-1 17v1l-1 1a13 13 0 0 0-3 3l-14 14-4 3Z" class="cls-71"/><path d="M120 301a10 10 0 0 0-1-3 4 4 0 0 1 0-2v-45c-1-1 1-3 1-5l-1-5a6 6 0 0 0 0-4c-1-2 1-4 1-6l-1-6 1-1c-2-3 0-6-1-9v-11a13 13 0 0 0-1-7h3l1-1h3l1-1h5l1-2c1-2 3-1 5-1 4 3 7 7 7 13v73a6 6 0 0 1-3 3l-1 1-1 1v1h-1l-1 1-1 1-1 1-1 1-1 1-1 1-1 1-1 1-1 1a3 3 0 0 0-2 2l-1 1Z" class="cls-72"/><path d="M144 278a3 3 0 0 1-2-3l1-6v-6a4 4 0 0 0 0-3 9 9 0 0 1-1-1l1-6a8 8 0 0 1 0-5 3 3 0 0 0 0-2 5 5 0 0 1-1-2l1-9a28 28 0 0 0-1-6 6 6 0 0 1 1-3 4 4 0 0 0 0-3 9 9 0 0 1-1-1l1-6a8 8 0 0 1 0-6 4 4 0 0 0 0-2 9 9 0 0 1 0-5 4 4 0 0 0-2-5 6 6 0 0 1-2-4l-1-2c0-2 2-1 3-1 7 1 13-1 20-1l7 1c4 4 3 10 3 16v42l-2 9a5 5 0 0 1-1 2l-2 1a17 17 0 0 1-2 2h-1l-1 1a13 13 0 0 1-1 1 9 9 0 0 0-2 1l-1 1-1 1-1 1h-1v1a23 23 0 0 1-2 2h-1l-1 1-1 1-1 1a13 13 0 0 1-4 3Z" class="cls-73"/><path d="m91 490-3-1h-2l-1-1-4-2v-1h-1l-1-1-1-1h-1l-1-1-4-2-1-1-1-1v-16a5 5 0 0 0 0-5 4 4 0 0 1 0-3 5 5 0 0 0 0-4 3 3 0 0 1 0-3 5 5 0 0 0 0-5v-14a6 6 0 0 1 1-6l5 5c2-1 2 1 3 2a7 7 0 0 0 1 1 17 17 0 0 1 3 3 7 7 0 0 0 1 1 23 23 0 0 0 4 3l1 1 7 5a5 5 0 0 1 3 4l1 42-3 4-3-1-1-1h-1Z" class="cls-11"/><path d="M98 446a3 3 0 0 0-1-2l-9-6-1-1-4-3a10 10 0 0 0-1-1 6 6 0 0 0-2-2 10 10 0 0 0-1-1 6 6 0 0 0-3-3v-2l9 8a61 61 0 0 0 18 12c6 3 12 4 19 4a53 53 0 0 0 17-4l8-4c3-1 5 0 7 1l23 18 19 16 16 14c2 2 5 3 5 6h-1l-1 1h-1l-1 1h-1l-1 1h-1a6 6 0 0 1-3 1c-4-5-10-7-13-12-4-5-10-7-14-12a25 25 0 0 1-2-1c-8-9-19-14-27-23-1-2-5-3-7-5s-5 1-7 1c-6 2-12 4-18 3a29 29 0 0 1-10-1l-2-1-6-2h-1a3 3 0 0 1-2-1Z" class="cls-67"/><path d="m152 271 3-2 1-1a10 10 0 0 0 1-1l2-1 1-1 2-1a13 13 0 0 0 1-1l1-1 2-1 1-1 1-1a4 4 0 0 1 0-1 7 7 0 0 1 1 0 6 6 0 0 1 1-1h1l1-1h1a5 5 0 0 1 1-1 4 4 0 0 1 1 0l1-1a6 6 0 0 1 1 0l1-1a5 5 0 0 1 1 0l1-1a13 13 0 0 1 1 0l2-1h1l1-1a6 6 0 0 1 1 0 5 5 0 0 1 2 0 2 2 0 0 1 1 1 19 19 0 0 1-5 2 7 7 0 0 1-5 2 10 10 0 0 1-3 1l-1 1a73 73 0 0 1-9 5 10 10 0 0 1-3 3h-1a4 4 0 0 1-2 2h-1a4 4 0 0 1-1 2 5 5 0 0 1-3 2 3 3 0 0 1-2 1v1l-6 5h-2a10 10 0 0 1 4-4l1-1 1-1 1-1Z" class="cls-11"/><path d="m76 215-1 1h-2c0-2 1-4 4-3a1 1 0 0 1 0 1l-1 1Zm-5 2-3 3h-1c1-2 2-3 4-3Zm2-1a2 2 0 0 1-2 1c0-1 1-2 2-1Z" class="cls-20"/><path d="M146 278a1 1 0 0 1 1 0h-1Zm0 1h-1Z" class="cls-72"/><path d="m140 282 1-1Zm0 1v-1Zm-2 1 1-1Zm-1 1 1-1Z" class="cls-71"/><path d="m136 286 1-1-1 1Zm-1 1 1-1Zm-1 1 1-1Zm-1 1 1-1Zm-2 2 1-1-1 1Zm-1 1 1-1-1 1Zm-1 1 1-1Zm-3 3 1-1Z" class="cls-11"/><path d="M122 301v1Z" class="cls-71"/><path d="m119 303 1-1Z" class="cls-11"/><path d="M110 314Zm-7 7v1h-1l1-1Z" class="cls-71"/><path d="M89 335v1-1Zm-14 17Zm-2 3Z" class="cls-11"/><path d="M265 39a53 53 0 0 1 13 12 14 14 0 0 0 1 2c4 3 7 8 10 12l4 5c5 3 6 8 8 12a3 3 0 0 1 0 3c-3 0-4-3-5-6l-7-10c-2 4-1 7-1 10v80c-1 7 1 10 8 12l20 8a3 3 0 0 1 1 2 4 4 0 0 1-1 2c-2 3-5 3-8 2a256 256 0 0 0-37-15c-3-1-7 1-10 2l-2 1a7 7 0 0 1-4 1 2 2 0 0 1-1-1 6 6 0 0 1 0-1 8 8 0 0 1-1-1v-1a4 4 0 0 1-1-1v-1a5 5 0 0 1 1-1 3 3 0 0 0 2-4 10 10 0 0 1 0-6l-1-5 1-6a4 4 0 0 1 0-3 5 5 0 0 0 0-1l-1-6a9 9 0 0 0 0-5 3 3 0 0 1 0-2 10 10 0 0 0 1-2l-1-6a9 9 0 0 0 0-5 3 3 0 0 1 0-2 6 6 0 0 0 1-4 9 9 0 0 1 0-5l-1-6a9 9 0 0 0 0-6 3 3 0 0 1 0-2 10 10 0 0 0 1-1l-1-6a9 9 0 0 0 0-6 3 3 0 0 1 0-2 6 6 0 0 0 1-4 9 9 0 0 1 0-5l-1-6a9 9 0 0 0 0-5 3 3 0 0 1 0-2 10 10 0 0 0 1-2l-1-6a9 9 0 0 0 0-5v-2c1-2 0-4-1-6a2 2 0 0 1 0-2 19 19 0 0 1 5 3l5 4a5 5 0 0 0 2 1Z" class="cls-74"/><path d="M143 62c0-2 2-4 1-6a11 11 0 0 0 0-7V10c1-3 0-5-2-6l-2-2a1 1 0 0 1 1-1 15 15 0 0 1 2 0l9-1h16a7 7 0 0 1 2 1c2 1 2 3 2 5v66c-3 5-1 8 3 11l8 7c1 2 3 3 3 5l2 3 26 25a31 31 0 0 0 2 2l4 4a192 192 0 0 1 13 15 2 2 0 0 1-1 0 3 3 0 0 1-1 0 7 7 0 0 1-1-1l-1-1a11 11 0 0 1-1-1 27 27 0 0 1-4-4v-1h-1l-1-1a7 7 0 0 1-2-2v-1l-1-1-1-1-1-1-1-1h-1a5 5 0 0 1-1-1l-1-1-1-1v-1h-1v-1h-1v-1h-1a7 7 0 0 1 0-1s-1 0-1 0v-1h-1v-1h-1v-1l-1-1-1-1-1-1-1-1-1-1h-1v-1h-1v-1h-1v-1h-1v-1h-1v-1h-1v-1h-1v-1h-1a7 7 0 0 1 0-1s-1 0-1 0v-1h-1v-1h-1v-1h-1v-1h-1v-1a5 5 0 0 1-1-1h-1v-1h-1v-1h-1a13 13 0 0 1-1-1l-2-1a63 63 0 0 1-5-6l-2-1-19-16-1-2-10-7-1-1Z" class="cls-73"/><path d="M232 144h1a11 11 0 0 0 1 1l11 13 6 8 1 2 1 1 1 2 1 1v1a2 2 0 0 1 0 1 3 3 0 0 1 0 1 1 1 0 0 1-1 1l-3-4-1-2a143 143 0 0 0-15-21c-1-1-3-2-3-4a2 2 0 0 1 0-1Z" class="cls-75"/><path d="m234 145-1-1Z" class="cls-73"/><path d="M255 474a9 9 0 0 1-2-1 157 157 0 0 1-20-19l-9-12c-6-6-5-13-5-20v-79c1-3 2-4 5-4a40 40 0 0 1 5 0c7 1 14 0 20-3 2-1 3-2 5-1a13 13 0 0 0-2 8v8a51 51 0 0 1 0 7v45a69 69 0 0 1 0 10v50a7 7 0 0 1-1 4v3l4 4Z" class="cls-76"/><path d="m282 364 6 6a1 1 0 0 0-1 1h1v-1l5 5 10 11 3 3a2 2 0 0 0 1 1 3 3 0 0 0 1 1 6 6 0 0 1 1 1 3 3 0 0 1 1 1 2 2 0 0 0 1 1 1 1 0 0 1 1 1 8 8 0 0 1 1 1 2 2 0 0 1 1 1 4 4 0 0 0 1 1 3 3 0 0 0 1 1c-2 3-4 0-5-1l-8-8-1 7v91c0 3 1 7-3 9a73 73 0 0 1-16-7c-2-1-2-1-1-3a5 5 0 0 0 0-5c-1-2 1-4 1-6l-1-5v-11a5 5 0 0 1 0-4 5 5 0 0 0 0-3 6 6 0 0 1 0-4 4 4 0 0 0 1-3 8 8 0 0 1 0-6 3 3 0 0 0 0-1 11 11 0 0 0-1-2c-1-2 1-4 1-6l-1-5v-11a5 5 0 0 1 0-4 5 5 0 0 0 0-3 6 6 0 0 1 0-4 4 4 0 0 0 1-3 8 8 0 0 1 0-6 3 3 0 0 0-1-2 7 7 0 0 1 0-5 3 3 0 0 0 1-2 8 8 0 0 1 0-6 3 3 0 0 0-1-2v-10l1-1-1-3Z" class="cls-51"/><path d="M299 497a15 15 0 0 0 2-8v-98l1-3 2 2 9 9h3c3 1 4 4 7 6l12 12a16 16 0 0 1 2 2 48 48 0 0 1 8 7v1a15 15 0 0 1 5 4c-2 3-4 0-5-2l-13-11-16-14-1 6v81l-1 11a56 56 0 0 1-11-3l-2-1h-1l-1-1Z" class="cls-68"/><path d="M254 335a5 5 0 0 0-4 2c-4 1-8 0-11-1-6-2-13-2-19-3l-24-4a3 3 0 0 1-1-1 10 10 0 0 1 1-2 9 9 0 0 1 0-2l1-3a4 4 0 0 1 2-1c4-2 9 0 14 1a72 72 0 0 1 16 4l14 1c4 1 9 1 13 3a4 4 0 0 1 1 2 6 6 0 0 1 1 1v1a5 5 0 0 0-4 2Zm7 2 1 1h-2l-2-5h1a8 8 0 0 1 2 3 4 4 0 0 1 0 1Z" class="cls-77"/><path d="m299 497 1 1Z" class="cls-51"/><path d="m186 95-7-6c-4-4-7-8-12-11l2-2a8 8 0 0 0 2-5V1h1c4-1 9 0 13 1a10 10 0 0 0 1 1 5 5 0 0 1 2 5v85a3 3 0 0 1-2 2Z" class="cls-65"/><path d="m474 57 2 2 3 4a5 5 0 0 0-2 6 18 18 0 0 1 1 6v167a19 19 0 0 1-1 6c-1 3-1 3 1 5l-9 12c-2 2-4 5-7 6a77 77 0 0 0-6 6c-3 2-5 2-6-1a8 8 0 0 1-1-4V145c0-3-1-5 1-8l2-7a74 74 0 0 0 1-8v-11a4 4 0 0 0 0-2l-4-11-1-7a9 9 0 0 0 0-5 3 3 0 0 1 0-2 8 8 0 0 0 0-6 2 2 0 0 1 0-2 9 9 0 0 1 0-1V63c-1-2 1-3 1-5s-2-3-1-5a7 7 0 0 0 1-2c0-2-2-3-1-5v-6a18 18 0 0 1 1-4c0-1 1-2 2-1a34 34 0 0 1 3 3l11 9c1 3 3 5 6 7a6 6 0 0 0 2 2 4 4 0 0 0 1 1Zm6 7-1-1 1 1Zm0 0v1-1Zm1 3Zm0 0h1-1Zm2 3c0-1 0 0 0 0Zm0 0h1-1Z" class="cls-66"/><path d="M70 29v16a5 5 0 0 1 0 5v10a5 5 0 0 1 0 5 3 3 0 0 0-1 2 7 7 0 0 1 0 6v9a11 11 0 0 0 1 4l3-3a42 42 0 0 1 8-8 26 26 0 0 0 2-2 3 3 0 0 1 2-1 913 913 0 0 0-14 19 33 33 0 0 0-3 2c-9 13-9 27-5 41a3 3 0 0 1 0 2 6 6 0 0 0-1 2 2 2 0 0 1-1 2 8 8 0 0 0-8 5 2 2 0 0 1 0 1 8 8 0 0 0-4 3l-5 3-9 7-5 4a2 2 0 0 1-2 0 1 1 0 0 1-1-1V83a19 19 0 0 0 0-5 4 4 0 0 1 0-4c1-1 3-2 3-4a2 2 0 0 1 0-2l14-17a27 27 0 0 0 2-2 29 29 0 0 1 6-6 18 18 0 0 0 3-3l13-11a5 5 0 0 1 2 0Z" class="cls-2"/><path d="m9 202-2-9v-2c2 1 4-1 5-2s3-3 5-3a2 2 0 0 0 2-1 8 8 0 0 1 2-2c2-2 4-4 7-4 4-3 9-6 12-10v-1c3-1 4-4 7-7v-1c4 0 4-3 6-5 2 0 2-2 3-3a2 2 0 0 1 3 0 4 4 0 0 0 4-3 8 8 0 0 1 4-3c6 2 8 8 3 12l-22 18-28 24-7 5a2 2 0 0 1-3 0l-1-2v-1Z" class="cls-78"/><path d="m10 205 3-1a5 5 0 0 1 4-3l3-3 7-5 2-2 5-5 2-1c4-1 5-4 8-5l3-4 4-3a14 14 0 0 1 1-1c2-3 4-5 8-7l6-6 4-3c2-2 3-3 1-5-1-2-1-4-4-5v-2a1 1 0 0 1 1-1c4 3 6 8 8 12s1 6-2 9l-24 21-22 19-8 7c-2 1-4 4-7 2-1-3-3-5-3-8Z" class="cls-50"/><path d="m68 143-1 1-2-4-2-4v-1a2 2 0 0 1-1-2 1 1 0 0 1 1-1 2 2 0 0 1 1 2l1 1v1l1 1a8 8 0 0 1 0 1l1 1v1a6 6 0 0 1 1 1 1 1 0 0 1 0 2ZM4 170c-2-1-1-3-1-5l1 5Zm3 20-1-1Z" class="cls-78"/><path d="m75 25-1 1 1-1Zm-2 1-1 1Z" class="cls-2"/><path d="m5 179-1-1 1 1Zm1 6-1-1 1 1Z" class="cls-78"/><path d="M465 459a93 93 0 0 1-12 11l-7 6h-1c-2-1-1-3-2-5v-51c0-4 2-6 4-8l1-1 1-1 3-10c2-6 2-12 1-18l-2-8a4 4 0 0 1 1-4c2-2 3-4 6-5a21 21 0 0 0 3-3l5-4 1-1v-1l1-1 1-1 1-1v-1c1-1 2-2 4-1l-3 3c-1 2-3 4-2 7v87l1 5a15 15 0 0 1-4 5Z" class="cls-79"/><path d="m474 351-4 1 10-12 6-8a8 8 0 0 1 2-4l13-14a17 17 0 0 1 2-2h2l1 4-1 1c-5 5-10 10-13 16a14 14 0 0 1-2 3l-14 13a9 9 0 0 1-2 2Zm32-35a2 2 0 0 1 1 2 2 2 0 0 1-1-2Zm1 4h1a2 2 0 0 1 0 1l-1-1Z" class="cls-64"/><path fill="#60b546" d="M370 62a9 9 0 0 1-4-6c-1-4-4-6-7-9l-5-5a9 9 0 0 1-1-2c-2-5-6-7-9-10l-1-2c0-2-2-3-3-4-3-4-6-7-8-12a9 9 0 0 0-3-3l-3-5a4 4 0 0 1-1-2l11-2a19 19 0 0 1 3 0h27a7 7 0 0 1 1 0c-4 1-4 2-5 6v32l2 8a9 9 0 0 0 2 4l7 9a5 5 0 0 1 1 1 1 1 0 0 1 0 1 3 3 0 0 1-1 0l-2 1a1 1 0 0 1-1 0Z"/><path d="m372 61 2-1h3l-1 1a13 13 0 0 1-5 2 1 1 0 0 1-1-1h1l1-1Z" class="cls-81"/><path d="M403 59a1 1 0 0 1-1 0h1Z" class="cls-12"/><path d="M375 60h-1Z" class="cls-16"/><path d="M450 137v21a7 7 0 0 0 0 5v10a7 7 0 0 0 0 5v10a7 7 0 0 0 0 5v10a7 7 0 0 0 0 5v10a7 7 0 0 0 0 5v10a7 7 0 0 0 0 5v10a7 7 0 0 0 0 5v10a7 7 0 0 0 0 5 5 5 0 0 1 0 3v4c2 4 3 4 6 1l3-4a3 3 0 0 1 3-1l-1 2-12 10a17 17 0 0 1-2 2l-8 6a6 6 0 0 1-2 0c-3 1-4-1-4-4V167a13 13 0 0 1 3-9 84 84 0 0 0 11-18l3-3Z" class="cls-82"/><path d="M447 140a6 6 0 0 1-1 4l-6 9-5 7-1 2v7a5 5 0 0 1 1 3 10 10 0 0 0 0 6l-1 6a9 9 0 0 1 0 5 4 4 0 0 0 0 2l1 1-1 6a9 9 0 0 1 0 6 3 3 0 0 0 0 2l1 1-1 6a9 9 0 0 1 0 6 3 3 0 0 0 0 2 6 6 0 0 1 0 4 9 9 0 0 0 0 5v6a9 9 0 0 1 0 5 3 3 0 0 0 0 3v7a9 9 0 0 1 0 5 3 3 0 0 0 0 3 12 12 0 0 1 1 1l-1 6a9 9 0 0 1 0 5 3 3 0 0 0 0 2v14a3 3 0 0 0 0 2c0 1 1 2 3 1h1c1 3-1 3-3 4a8 8 0 0 1-1 1 18 18 0 0 1-3 1l-8 3c-4 2-6-1-6-5V189c0-1 0 0 0 0-4-9 4-13 8-19l3-3v-1a4 4 0 0 1 2-2 1 1 0 0 1 1-1 3 3 0 0 0 1-1v-1l1-1 1-1 1-1a4 4 0 0 0 0-1l1-1 1-1 1-1 1-2v-1a2 2 0 0 0 1 0l1-2v-1a2 2 0 0 0 1 0l1-1a1 1 0 0 1 0-1v-1a1 1 0 0 1 1-1 2 2 0 0 0 1-1v-1a5 5 0 0 1 1-1v-1a4 4 0 0 1 1 0Z" class="cls-83"/><path fill="#92a872" d="M447 139a13 13 0 0 1 3-8c0 3-2 5-3 8Z"/><path d="M444 92Zm3 5h-1 1Zm1 2h-1v-1l1 1Zm3 26v-1 1Zm-1 5v-1 1Z" class="cls-66"/><path fill="#37854d" d="m143 64-6-3c-10-4-20-4-30-1l-7 3v-2a9 9 0 0 0 1 0l2-1a6 6 0 0 0 1 0l2-1 10-2h9l5 1 10 3a18 18 0 0 0 3 1 1 1 0 0 1 0 2Z"/><path fill="#63977f" d="M87 72a4 4 0 0 1-4 3l2-3Z"/><path d="M424 70Zm-1 0v-1 1Zm4 3-1-1 1 1Zm3 2h-1Zm1 1h-1 1Zm1 1h-1 1Z" class="cls-10"/><path d="m370 444 8 2a57 57 0 0 0 18 3l1 11-1 2a9 9 0 0 0 1 5 4 4 0 0 1 0 2 4 4 0 0 0-1 2v15c1 4-1 8 1 12l-1 3a82 82 0 0 1-22 4l-2 1h-3c3-14 1-29 1-44a174 174 0 0 0 0-18Z" class="cls-9"/><path d="M447 412a4 4 0 0 1 0 1l-2 4v59c-7 6-15 10-22 14-2-1-1-1-1-2l1-5a4 4 0 0 1 0-3 6 6 0 0 0 0-4v-12a3 3 0 0 0 0-2 6 6 0 0 1 0-5 3 3 0 0 0 0-2 9 9 0 0 1 0-7c1-1 0-3-1-4a3 3 0 0 1 1-4 49 49 0 0 0 3-4v-1l5-6c5-4 9-9 12-14h1l1-2v-1h1v-1h1v1Zm-26 27a1 1 0 0 1 1-1 1 1 0 0 1-1 1Zm-3 2 2-1a1 1 0 0 1-2 1Zm-3 2a1 1 0 0 1 2-1 1 1 0 0 1-2 1Zm9-7 1-1Zm-1 1 1-1Zm0 1a1 1 0 0 1 0-1Zm-3 2v-1Zm-3 2 1-1a1 1 0 0 1-1 1Z" class="cls-49"/><path d="M103 60a2 2 0 0 1-2 1 2 2 0 0 1 2-1Zm3-1a2 2 0 0 1-2 1 2 2 0 0 1 2-1Zm-5 2h-1Z" class="cls-11"/><path d="M196 328c2 1 4 2 6 1h1l14 3h6l5 1h5a4 4 0 0 1 3 1 7 7 0 0 0 5 1 9 9 0 0 1 6 1 6 6 0 0 0 3 1l-6 2c-4 2-9 1-14 1h-8a2 2 0 0 0-2 2 6 6 0 0 1 0 5c-1 2 1 3 1 5l-1 5a5 5 0 0 1 0 5c-1 2 1 3 1 5l-1 5a5 5 0 0 1 0 5 3 3 0 0 0 0 2 6 6 0 0 1 0 5c-1 2 1 4 1 6l-1 5 1 1-1 5v6a3 3 0 0 0 0 2 8 8 0 0 1 0 6 3 3 0 0 0 0 2 6 6 0 0 1 0 5 3 3 0 0 0 0 2l1 9a8 8 0 0 0 1 5l2 4a8 8 0 0 1-3-4l-4-4-2-2a11 11 0 0 1 0-1l-2-3-5-10-6-13-2-8c1-4-1-8-2-12a33 33 0 0 0-1-5 6 6 0 0 1 0-1 31 31 0 0 0-1-5v-1a14 14 0 0 1 0-2l-1-2a8 8 0 0 1 0-3v-4l-1-3v-19a20 20 0 0 0 1-4v-3a10 10 0 0 1 1-5Z" class="cls-87"/><path d="M209 418a34 34 0 0 1 5 10 15 15 0 0 0 1 3l2 3a4 4 0 0 0 1 3 17 17 0 0 1 2 3h-1a9 9 0 0 1-2-1 79 79 0 0 0-8-9 58 58 0 0 0-8-7 17 17 0 0 1-4-4l-9-7a4 4 0 0 1-2-3 6 6 0 0 1 3-3 5 5 0 0 1 4 2l16 14c0-1-2-2 0-4Z" class="cls-88"/><path d="m312 5 6-1a8 8 0 0 0 2 5 51 51 0 0 1 4 6c2 4 4 7 8 10l5 6 2 2 3 6 1 1a32 32 0 0 0 3 5c2 2 4 4 1 6-2 1-2 0-3-1a169 169 0 0 0-19-22l-1-1c-2-7-9-11-13-17l-2-4 1-1Z" class="cls-89"/><path d="M347 51a4 4 0 0 0 0-4 24 24 0 0 0-3-3 4 4 0 0 1-1-4l1 1 9 11 11 12a1 1 0 0 1 1 1 5 5 0 0 1-1 1 16 16 0 0 0-2 1 3 3 0 0 1-3 0c-5-4-10-9-12-16Z" class="cls-81"/><path d="M363 65h1l1-1 1-1h1l1-1h2l1 1-10 5v1a4 4 0 0 1-3 1 2 2 0 0 1-1 0 3 3 0 0 1 3-3 6 6 0 0 0 2-1 11 11 0 0 0 1-1Z" class="cls-19"/><path d="M342 39a10 10 0 0 1-3-6c3 2 3 4 3 6Z" class="cls-81"/><path d="M319 3h1-1Zm-1 1V3v1Z" class="cls-89"/><path d="m343 40-1-1Zm25 22-1 1Zm-2 1-1 1Z" class="cls-81"/><path d="m365 64-1 1v-1Z" class="cls-54"/><path d="m447 368-1-2-1-1a13 13 0 0 0-1-3 5 5 0 0 1 0-1c2-6 7-10 10-15l19-22c7-9 16-16 23-26 1-1 2-3 4-1s2 5 3 7a4 4 0 0 0-3 2l-6 8-2 2c-3 2-4 5-6 8l-5 5a7 7 0 0 0-3 3l-5 7-8 9a11 11 0 0 1-2 2 31 31 0 0 0-7 8 52 52 0 0 1-6 8 3 3 0 0 0-1 4 11 11 0 0 1 1 2c-2 1-1-1-2-1l-1-3Z" class="cls-57"/><path d="m448 371 2 2v3l-2-5Z" class="cls-90"/><path d="m470 353-1 1Zm-1 1-1 1Zm-1 1-1 1Zm-1 1-1 1Zm-1 1Z" class="cls-64"/><path d="M451 383v-1Zm0 13Zm-1 5Zm-3 8 1-1a1 1 0 0 1-1 1Zm0 2h-1l1-1a1 1 0 0 1 0 1Z" class="cls-79"/><path d="m449 410-1 1Z" class="cls-49"/><path d="M244 483a26 26 0 0 1-6-6l-8-7-7-7-4-3-2-1-4-5-6-4c-3-5-8-7-12-11l-6-7-4-3a41 41 0 0 0-11-9 2 2 0 0 1 1 0v-1h1c4-1 7 1 9 4l4 5a16 16 0 0 0 4 4c4 3 7 8 12 10a2 2 0 0 1 1 1l9 9a23 23 0 0 0 5 5l6 5c2 4 6 5 8 8a14 14 0 0 0 1 1c3 1 3 4 5 5a33 33 0 0 1 6 5l-2 2Z" class="cls-63"/><path d="M176 419a2 2 0 0 1-1 0h1Z" class="cls-21"/><path d="M360 67c-1 1-3 1-3 3a1 1 0 0 1-1 0l-6-6v-1l-14-16c-2-1-4-3-4-5a2 2 0 0 0 0-1c-7-6-12-13-17-19a5 5 0 0 1-2-1l-5-7a6 6 0 0 0-1 0l-3-6c1-2 3-2 5-2l12 13a5 5 0 0 1 2 4 8 8 0 0 0 4 6 13 13 0 0 1 4 3 71 71 0 0 0 11 13 7 7 0 0 1 1 1l4 5c4 5 7 11 12 15a6 6 0 0 1 1 1Z" class="cls-54"/><path d="M354 73a3 3 0 0 1-2 2 1 1 0 0 1-1 0 1 1 0 0 1-1 0l3-3h2v1Z" class="cls-91"/><path d="M355 72h-1l2-2h2v1a7 7 0 0 1-3 1Z" class="cls-25"/><path d="m310 5-1 1Z" class="cls-54"/><path d="m101 183 4 5-13 12c-3 3-7 5-9 10l-4 3a1 1 0 0 1-2 0c-2 0-3 2-4 3a2 2 0 0 0-2 1c-2 0-3 1-4 3l-1-1a8 8 0 0 1 2-2l9-9a114 114 0 0 1 8-8l13-12a11 11 0 0 0 3-2v-3Z" class="cls-92"/><path d="M169 425Zm-1 1 1-1a1 1 0 0 1-1 1Z" class="cls-30"/><path d="m436 347-4-4 13-14a42 42 0 0 1 7-7l6-7 1-2c5-3 8-8 12-12a103 103 0 0 0 12-14l4-4a19 19 0 0 1 4-4 1 1 0 0 1 2 0 7 7 0 0 1 2 3l-8 9-7 7-1 1a12 12 0 0 0-1 1c-2 1-1 4-3 4l-4 3a21 21 0 0 0-4 6 28 28 0 0 1-3 4l-10 10a34 34 0 0 1-6 6c-1 1-3 2-3 4a6 6 0 0 1-2 2l-7 8Z" class="cls-93"/><path d="M324 100a1 1 0 0 1-1 1c-5-2-8-6-11-10a95 95 0 0 1-9-10c-2-2-1 0-2 1l-8-12a5 5 0 0 0-1-4l-5-7h1a49 49 0 0 1 4 4l4 5 9 10 9 9 8 8 4 3a4 4 0 0 0-2 2Z" class="cls-94"/><path d="M85 166a2 2 0 0 1 1 2v1c-2-1-2-1-1-3Z" class="cls-95"/><path d="M345 78h-1c-2-4-6-6-9-10l-3-4a3 3 0 0 0-1-1 41 41 0 0 1-10-10l-2-3-5-5-4-6a12 12 0 0 0-3-2l-5-6a6 6 0 0 0-2-3 8 8 0 0 1-4-3l-1-1c-2-1-3-3-3-5l-4-4 1-2 8 7 4 4 3 3c1 4 5 6 8 9a9 9 0 0 1 1 2 10 10 0 0 0 4 5l5 5a68 68 0 0 0 6 6l8 9 9 11a5 5 0 0 0 2 2c1 2 0 2-1 3a1 1 0 0 1-1-1Z" class="cls-91"/><path d="m346 78 1-2h1l2-1h1a8 8 0 0 1-4 3 1 1 0 0 1 0 1 1 1 0 0 1-1-1Z" class="cls-41"/><path d="M348 76Z" class="cls-91"/><path fill="#118443" d="M77 157a8 8 0 0 1 2 3 1 1 0 0 0 0 2l1 2-2 1a5 5 0 0 0-3 3c0 2-2 3-4 4l-4 2a9 9 0 0 0-3 3c-1 2-3 5-6 6a6 6 0 0 0-4 3 12 12 0 0 1-4 4 30 30 0 0 0-7 6 76 76 0 0 1-10 9 8 8 0 0 0-1 2l-6 4c-2 0-3 2-4 3a16 16 0 0 1-3 3c-2 2-3 2-5 0a6 6 0 0 1-1-4 14 14 0 0 0 8-4l12-11a6 6 0 0 1 2-2 11 11 0 0 0 6-5 11 11 0 0 1 6-5 13 13 0 0 0 4-4c3-2 5-6 9-7a3 3 0 0 0 1-2l3-3 9-7 1-1a4 4 0 0 0 2-2c1-2-1-2-1-4l1-1v1a1 1 0 0 1 1 1Z"/><path d="m86 170-1 3a29 29 0 0 1-3 3l-8 7-16 14a11 11 0 0 0-3 2l-8 7-2 1a3 3 0 0 1 1-2l8-7a10 10 0 0 0 2-3 3 3 0 0 1 1-1c3-1 5-4 7-6a24 24 0 0 1 7-6 7 7 0 0 0 3-3l5-4 7-5Z" class="cls-95"/><path d="M435 294a4 4 0 0 1 2-2 4 4 0 0 0 1-2l4-2 3-1v-1a5 5 0 0 1 1-1h1a8 8 0 0 0 4-2 11 11 0 0 1 2-1 1 1 0 0 1 1 0v1a2 2 0 0 1-1 1l-8 9-9 8a26 26 0 0 0-1 2 8 8 0 0 1-2 2l-7 7c-2 2-3 5-6 5a3 3 0 0 0-1 2 10 10 0 0 1-3 3l-2 4a6 6 0 0 1-3-3l2-5 19-20c1-1 3-2 3-4Z" class="cls-97"/><path d="m443 288-5 2a17 17 0 0 1 9-6v1l-1 1a20 20 0 0 1-3 2Z" class="cls-83"/><path d="m92 174 1 1Z" class="cls-24"/><path d="M423 335a2 2 0 0 1-1-1 2 2 0 0 0 0-2l1 1c1 1 2 2 1 3h-1v-1Z" class="cls-47"/><path d="M429 342Zm1 1Z" class="cls-37"/><path d="M162 431a13 13 0 0 1 5-4l6 4 3 4 12 11 9 8 6 4c1 1 1 3 3 3 2 2 3 4 6 5 1 3 4 4 5 6l9 8c1 1 3 1 3 3a1 1 0 0 0 1 1c3 0 3 2 5 4l-6 3c-8-9-18-16-27-24l-6-6-16-14c-4-4-7-8-11-10-3-2-5-5-9-2a1 1 0 0 1-2-1 4 4 0 0 1 3-3Z" class="cls-52"/><path d="M441 358a4 4 0 0 1-2-3v-1l2 1c3 1 4 3 3 6a1 1 0 0 1-1 0l-1-2-1-1Z" class="cls-22"/><path d="M434 349v-1Z" class="cls-93"/><path d="M437 352Z" class="cls-22"/><path d="M421 334v-1a1 1 0 0 1 0 1Z" class="cls-47"/><path d="M9 203a2 2 0 0 1 1 2 2 2 0 0 1-1-2Z" class="cls-50"/><path d="m346 78 1 1h-2v-1h1Z" class="cls-32"/><path d="M346 80a1 1 0 0 1 0-1v1Z" class="cls-91"/><path d="M345 80v1-1Z" class="cls-41"/><path d="M263 26h1-1Z" class="cls-23"/><path d="M119 450c5 1 11-1 16-2a20 20 0 0 1 3-1c3 0 6 2 8 4a13 13 0 0 0 5 4 8 8 0 0 1 4 10c-4 1-5-4-8-5a34 34 0 0 0-2 10l1 24c0 5-1 9-6 11h-3l-7-1a15 15 0 0 0-4 0l-1-1h-2l-1-1h-2a5 5 0 0 1-1-1 5 5 0 0 1-1-2v-46a4 4 0 0 1 1-3Z" class="cls-70"/><path d="M140 505a3 3 0 0 1 2-2c2-1 2-2 2-4v-30l1-6v-5a1 1 0 0 1 0-1 2 2 0 0 1 1 0 4 4 0 0 1 2 1c1 2 4 3 5 6l2 1c5 2 10 4 14 8l19 16c5 3 9 8 14 10a1 1 0 0 1 0 2 2 2 0 0 1-1 0l-1 1h-1l-1 1h-1l-23-16-4-1c-2 1-1 3-1 4v9c0 2-2 3-3 5l3 2a3 3 0 0 1-3 1h-14a7 7 0 0 1-1-1h-2c-1-1-3 1-5-1Z" class="cls-98"/><path d="M119 450a13 13 0 0 0 0 3 12 12 0 0 1 1 6l-1 9c2 3 1 7 1 10v11a3 3 0 0 0 0 2 14 14 0 0 1-1 7 8 8 0 0 0 0 3h-4a9 9 0 0 1-1-1h-2l-1-1-1-1h-2l-1-1-5-1-1-1a5 5 0 0 1-4-2 22 22 0 0 0 1-7v-40h3l6 2 2 1a7 7 0 0 1 2 0l8 1Z" class="cls-14"/><path d="m202 501-2-2a2 2 0 0 1-2-1l-5-5a3 3 0 0 0-2-1c-2 0-3-2-5-3l-3-3-2-2c-3 0-4-2-5-4a7 7 0 0 0-4-4c-2 0-3-2-4-3l-6-4c-2-1-5-2-6-4a12 12 0 0 0-3-6c-1-2-2-3-4-3a4 4 0 0 1-4-4 2 2 0 0 0-1-1l-6-4 3-1c3-1 4-1 6 2 1 1 1 2 3 1l2 1 6 7 1 1 6 4a3 3 0 0 1 2 2 5 5 0 0 0 4 3c2 0 4 2 5 4l5 5 2 2 8 5a13 13 0 0 1 6 7c0 2 1 3 3 3s3 2 4 3l3 4h-1a10 10 0 0 1-1 1Z" class="cls-99"/><path d="M169 506a6 6 0 0 1-5-2 1 1 0 0 1 0-2h2a3 3 0 0 0 2-4 9 9 0 0 1 0-6v-3c-2-3-1-4 2-4a7 7 0 0 1 5 2 27 27 0 0 1 2 2c1 2 3 3 5 2a4 4 0 0 1 2 2l4 3a7 7 0 0 0 3 2 7 7 0 0 1 6 5h-3l-3 1a2 2 0 0 1-1 0 2 2 0 0 0-2 0h-3l-2 1a2 2 0 0 0-1 0h-4l-3 1a2 2 0 0 0-2 0h-4Z" class="cls-69"/><path d="m144 505 5 1c-2 0-3 1-5-1Z" class="cls-70"/><path d="M174 505h4c-1 2-2 1-4 1s0-1 0-1Z" class="cls-98"/><path d="M183 505h2-2a1 1 0 0 1-1 0h1Z" class="cls-99"/><path d="m76 482 1 1Z" class="cls-2"/><path d="M200 502a2 2 0 0 1 1-1h1l-1 1Z" class="cls-99"/><path d="M189 504h2a2 2 0 0 1-2 0Z" class="cls-67"/><path d="M137 505a2 2 0 0 1 2 0 2 2 0 0 1-2 0Zm-67-27 1 1Zm1 1 1 1Zm7 4 1 1Zm1 1 1 1Zm2 1v1Zm4 3 1 1Zm2 1 1 1Zm4 1 1 1Zm2 1 1 1Zm8 4 1 1Zm6 2 1 1Zm3 1 1 1Zm1 1 1 1Zm3 1 1 1Z" class="cls-2"/><path d="m205 501 1-1Z" class="cls-67"/><path d="M118 501h1v1l-1-1Z" class="cls-2"/><path d="M119 502v-1l1 1h-1Z" class="cls-14"/><path d="M201 502v-1h1Z" class="cls-67"/><path d="m122 502 1 1Z" class="cls-2"/><path d="m198 503 1-1Z" class="cls-67"/><path d="M126 503v1Z" class="cls-2"/><path d="m194 504 1-1Zm-5 0h-1Z" class="cls-99"/><path d="M183 505h-1Z" class="cls-98"/><path d="M174 505v1h-1Zm-23 1 1 1Z" class="cls-2"/><path d="m444 361-3-6 5-7a51 51 0 0 1 6-6 10 10 0 0 0 3-3 9 9 0 0 1 4-5 10 10 0 0 0 3-3 88 88 0 0 1 12-13c1-1 3-3 3-5l2-2 17-17a10 10 0 0 1 2-2 1 1 0 0 1 1 1 6 6 0 0 1 1 4c-2 0-3 0-4 2l-2 4-8 8a6 6 0 0 1-2 2l-6 7-1 2a16 16 0 0 1-4 4l-8 9-1 2-9 10-4 7c-1 3-5 3-6 6a9 9 0 0 0 0 1l-1 1Z" class="cls-100"/><path fill="#58b347" d="m314 502-1-4 1-5v-91a2 2 0 0 1 0-1 1 1 0 0 1 2 0l3 4c3 2 4 5 7 6l7 7v77l-1 10c-3 0-6 1-8-1h-4a5 5 0 0 1-1 0 2 2 0 0 0-1-1 7 7 0 0 1-4-1Z"/><path d="m332 506-1-3 1-8v-74a3 3 0 0 1 1-3l10 9a56 56 0 0 0 6 4 1 1 0 0 0 1 0 3 3 0 0 1 2 1 5 5 0 0 1 2 5v64c0 3 1 4 4 4l6 1-3 1h-18l-10-1h-1Z" class="cls-102"/><path d="M364 506h-9c-2 0-3 0-3-2v-62c0-2-1-5 1-7l-1-3 13 9 5 3a6 6 0 0 0 1 1 2 2 0 0 1 1 2 26 26 0 0 0 0 5v46a17 17 0 0 1-1 5 8 8 0 0 1-2 3Z" class="cls-103"/><path d="M320 504c2 0 3-1 4 1l-4-1Z" class="cls-51"/><path d="M372 506a2 2 0 0 1 2-1 2 2 0 0 1-2 1Z" class="cls-103"/><path d="m465 459 1-1Z" class="cls-8"/><path d="m217 496-5-5-9-7-6-5-6-5c-1-1-3-1-3-3a5 5 0 0 0-3-2l-2-3c-1-1-2-3-4-3l-3-1a75 75 0 0 0-11-9 2 2 0 0 1-1-1 4 4 0 0 0-3-3l-6-4-2-2c-1-2-3-2-5-2h-1 1a9 9 0 0 1 4-3 1 1 0 0 0 1 0c2-1 4-4 5-3l8 5c2 2 3 5 6 6l20 18c10 8 20 16 29 26 1 1 3 2 1 4l-2 1a6 6 0 0 1-3 1Z" class="cls-45"/><path d="M172 446c-2 1-4 0-5-2-2-2-3-5-7-6l-1-2h-1l-5 3a1 1 0 0 1-1-1 7 7 0 0 1 3-2 6 6 0 0 1 3-2h2c4-3 5-3 8 0a16 16 0 0 0 4 4 11 11 0 0 1 4 4 10 10 0 0 0 5 4c3 1 5 4 7 6l1 2 9 7a6 6 0 0 1 1 3 2 2 0 0 0 1 1c5 2 8 6 13 9 1 3 4 4 6 6a4 4 0 0 0 1 1l7 7a4 4 0 0 1 2 3l-2 1c-5-6-11-9-16-14l-28-23c-4-3-8-5-11-9Z" class="cls-104"/><path d="m172 446 6 5a13 13 0 0 0 3 2l2 1 7 6a19 19 0 0 1 2 1 41 41 0 0 0 10 8 25 25 0 0 1 5 4 24 24 0 0 0 5 4 17 17 0 0 1 3 3 22 22 0 0 0 7 6c2 1 5 3 5 6l-5 2v-1l-15-15-8-6a3 3 0 0 1-1-1l-9-8a8 8 0 0 1-2-1l-14-13a3 3 0 0 1-1-3Zm48 49a2 2 0 0 1 2-1 2 2 0 0 1-2 1Z" class="cls-53"/><path d="m215 497 1-1Zm-2 1 1-1Zm-2 1 1-1Z" class="cls-45"/><path d="m474 57-1-1a1 1 0 0 1 1 1Z" class="cls-10"/><path d="M216 201a9 9 0 0 1 4 1 183 183 0 0 1 32 18 6 6 0 0 0 1 0 4 4 0 0 1 3 1c3 3 3 3 2 5-3 0-5-2-8-4v48c0 4 0 7 4 9a2 2 0 0 1 1 3c-2 1-4-1-6-1-6-2-11-3-17-2l-12 3a19 19 0 0 0-6 4 12 12 0 0 1-1 0l-4 4c-2 2-3 1-3-1l5-11 6-11a28 28 0 0 1 4-6c2-2 5-3 1-6l-1-1a3 3 0 0 0-1-1 5 5 0 0 1-2 0 12 12 0 0 0-2-1l-6-2a2 2 0 0 1-1-1c2-13 1-26 1-40a18 18 0 0 0-1-4c0-4 1-5 5-4h2Z" class="cls-76"/><path fill="#288742" d="M206 289c1 2 1 2 2 1 1 2 0 3-1 5-2 3 0 4 3 4l35 8c6 1 7 3 7 7-2 2-4 1-6 1l-39-9c-2 0-4-1-5 1l-1 2v1a3 3 0 0 1-2 2 1 1 0 0 1-1 0 2 2 0 0 1 0-2 4 4 0 0 1 1-3v-1a75 75 0 0 1 7-17Z"/><path fill="#165a30" d="m209 418 1 5a3 3 0 0 1 1 2 1 1 0 0 1-1 0 1 1 0 0 1-1 0l-3-4-6-5-6-6-5-4a2 2 0 0 0 1-1 12 12 0 0 1 4-4c2 5 5 9 10 12 0-3-3-5-1-8h1Z"/><path fill="#17552d" d="m203 405 2 6 1 4h-1a8 8 0 0 1-2-1 31 31 0 0 0-4-4l-5-6v-3l6-6 1 2 2 8Z"/><path d="M196 328v5l-1 3v24a3 3 0 0 1 0 2l1 4v4a2 2 0 0 1 0 1 3 3 0 0 0 1 1v5a1 1 0 0 1-1 1 20 20 0 0 1-1-9v-1a7 7 0 0 1-1-2v-12a5 5 0 0 1-1-3v-3l1-3c0-5-1-10 1-14v-1c0-2-1-4 1-7a8 8 0 0 1 0-3 1 1 0 0 1 0-1 4 4 0 0 1 1-3 1 1 0 0 1 1-1 2 2 0 0 1 1 1 6 6 0 0 1-1 5l-1 3v3a9 9 0 0 0-1 1Z" class="cls-108"/><path d="M201 397a5 5 0 0 1-1-2 36 36 0 0 1-3-10v-2l1-4 1 6 2 7a15 15 0 0 1 0 5Z" class="cls-77"/><path d="M210 250h1v1a1 1 0 0 1-1 0l-6-1a36 36 0 0 1-8 0 20 20 0 0 1-5 1h-2a1 1 0 0 1 0-2 3 3 0 0 1 2 0h1a14 14 0 0 0 2-1 9 9 0 0 1 2 0 16 16 0 0 0 3-1 5 5 0 0 1 2 0 15 15 0 0 0 3 1 10 10 0 0 1 2 0l2 1a4 4 0 0 1 2 1Z" class="cls-72"/><path d="M221 254c5 2 5 2 2 6a3 3 0 0 1-1 1h-1v-1a5 5 0 0 0 1-1 4 4 0 0 1 0-1v-2l-2-1a1 1 0 0 1 1-1Z" class="cls-109"/><path d="m221 254-1 1a3 3 0 0 1-2-1l-2-1-5-2v-1l6 2a11 11 0 0 0 1 1h2a7 7 0 0 0 1 0Z" class="cls-73"/><path d="M196 250a19 19 0 0 1 8 0 25 25 0 0 1-8 0Z" class="cls-109"/><path d="m198 379-1 4a3 3 0 0 1 0-3l-1-1v-1a4 4 0 0 1 1 0h1v1Z" class="cls-110"/><path d="M199 315h-2v-1a3 3 0 0 1 1-2l1-1v1a1 1 0 0 1 1 1 3 3 0 0 1 0 1 7 7 0 0 1-1 1Z" class="cls-111"/><path d="M194 345v3a4 4 0 0 1 0-3Zm0 6v3a3 3 0 0 1 0-3Z" class="cls-87"/><path d="M199 311a1 1 0 0 1-1 1 2 2 0 0 1 0-2Z" class="cls-108"/><path d="m197 314 1 1-1 1a1 1 0 0 1 0-2Z" class="cls-110"/><path d="M191 251Z" class="cls-109"/><path d="M211 251h-1a1 1 0 0 1 1 0Zm5 2Zm2 1Z" class="cls-76"/><path d="M179 255Z" class="cls-112"/><path d="m175 257 1-1v1Z" class="cls-72"/><path d="m222 259-1 1 1-1Z" class="cls-76"/><path d="M166 262Zm-4 3h1Zm-3 2h1Zm-1 2Zm-3 2Zm-2 2v-1 1Z" class="cls-72"/><path d="M199 306v1-1Z" class="cls-108"/><path d="M197 319a1 1 0 0 1-1 1 4 4 0 0 1 0-1s0 0 1 0Zm-1 4h-1Z" class="cls-110"/><path d="M195 330v1h-1Zm-1 18v1-1Z" class="cls-77"/><path d="M194 349v1Z" class="cls-110"/><path d="M194 350a3 3 0 0 1 0 1v-1Zm1 18v1l-1-1Zm1 11 1 1h-1Z" class="cls-77"/><path d="M197 384v1-1Z" class="cls-87"/><path d="M190 405a1 1 0 0 1-1 1 1 1 0 0 1 1-1Z" class="cls-88"/><path d="M175 420h-1 1Z" class="cls-21"/><path d="M162 431a1 1 0 0 1-1 0Z" class="cls-104"/><path d="M155 436Z" class="cls-45"/><path d="M148 441v-1Z" class="cls-67"/><path d="M184 253Z" class="cls-72"/><path fill="#0e562f" d="m84 210-2-2a4 4 0 0 1 1-1l12-12 9-7a4 4 0 0 1 1 0l1 1a3 3 0 0 1 2 2l-11 10c2-1 5-3 8-1l-10 5a63 63 0 0 0-7 3l-4 2Z"/><path fill="#114f2c" d="M105 200c-4 0-7 2-10 3a2 2 0 0 1-1 0 1 1 0 0 1 0-1l8-7a10 10 0 0 0 3-3l3-1 7 6a21 21 0 0 0-6 2 9 9 0 0 1-4 1Z"/><path d="M77 213h2a2 2 0 0 1-2 1Z" class="cls-115"/><path d="M127 194a1 1 0 0 1 1 0Zm-4 1Z" class="cls-72"/><path d="M131 195h-1Z" class="cls-71"/><path d="M119 196h1-1Z" class="cls-72"/><path d="M126 195v1Zm-11 2h1Zm7-1-1 1Z" class="cls-71"/><path d="m76 215 1-1Z" class="cls-115"/><path d="M185 252h-2l-1 1h-2l-1 1h-3l-1 1h-1l-1 1-1 1h-1l-1 1-1 1h-1l2-5a23 23 0 0 1 0-2v-22a2 2 0 0 0 0-1v-25a4 4 0 0 1 0-4 4 4 0 0 0-1-5c-2-1-1-2 0-3l2-1a7 7 0 0 0 2 1h6c9 1 10 2 10 11v37c0 4-1 8-4 11v1Z" class="cls-112"/><path d="M170 192h-17a11 11 0 0 0-3 0l-9 1v-1a3 3 0 0 1 2 0 1 1 0 0 1 1-1 16 16 0 0 1 2 0 235 235 0 0 1 28 0 13 13 0 0 1 1 0h1a2 2 0 0 1 1 1h2l-1 1h-7a7 7 0 0 0-1-1Zm-3 68-1 1Zm-3 2-1 1Z" class="cls-72"/><path d="m163 263-1 1Zm-3 2-1 1Z" class="cls-71"/><path d="m157 267-1 1Z" class="cls-72"/><path d="M156 268h-1Z" class="cls-71"/><path d="M155 269Zm-3 2-1 1Zm-1 1-1 1Z" class="cls-72"/><path d="m150 273-1 1Z" class="cls-71"/><path d="m79 430 1 1Zm3 3 1 1Zm5 4 1 1Z" class="cls-2"/><path d="M109 449a2 2 0 0 1-2-1 2 2 0 0 1 2 1Zm-8-3h-1Z" class="cls-11"/><path d="m178 193 1-1 11 1a101 101 0 0 1 20 6h2a1 1 0 0 0 1 1 2 2 0 0 1 2 0 3 3 0 0 0 1 1 2 2 0 0 1-1 1l-3-1-2 2 1 3 1 2c0 2-2 3-1 5v6c-1 2 1 3 1 5s-2 4-1 5a3 3 0 0 1 1 3 9 9 0 0 0 0 6l-1 2v3a7 7 0 0 1-1 4 8 8 0 0 0 0 3h-2l-2-1h-2l-3-1h-2l-3 1h-2a2 2 0 0 1-2 0 2 2 0 0 0-1 1h-2a4 4 0 0 1-1 1h-3a6 6 0 0 1 1-3 11 11 0 0 0 1-6v-42a23 23 0 0 0 0-3 4 4 0 0 0-4-3h-3a2 2 0 0 1-2-1Z" class="cls-109"/><path d="m188 251 1-1a3 3 0 0 1 0 1 2 2 0 0 1-1 0Zm-3 1v-1Z" class="cls-73"/><path d="m182 253 1-1Z" class="cls-72"/><path d="m179 254 1-1Zm-2 0h1Z" class="cls-73"/><path d="m175 255 1-1Zm-2 1 1-1Z" class="cls-72"/><path d="m172 257 1-1Z" class="cls-71"/><path d="m170 258 1-1Z" class="cls-73"/><path d="m169 259 1-1Z" class="cls-72"/><path d="M313 112a99 99 0 0 1 3 14 21 21 0 0 1 0 3l2 14v23a9 9 0 0 0 0 2 16 16 0 0 0 0 3v2l-1 5a3 3 0 0 1-1 1v1a4 4 0 0 1-2 0c-4-2-9-3-12-6a4 4 0 0 0-3-1c-3 0-6-1-8-3a11 11 0 0 0-2-1c-3-1-4-4-3-8v-7a3 3 0 0 1 0-2 7 7 0 0 0 0-4 6 6 0 0 1 1-4v-1l-1-6a9 9 0 0 0 0-5 3 3 0 0 1 0-2l1-2-1-6a8 8 0 0 0 0-5 3 3 0 0 1 0-2 4 4 0 0 0 1-2v-9a28 28 0 0 1 0-6 6 6 0 0 0-1-3 4 4 0 0 1 0-3 7 7 0 0 0 1-1l-1-6a8 8 0 0 0 0-6 4 4 0 0 1 0-2 8 8 0 0 0 0-5 3 3 0 0 1 1-3c1-2 2-2 3 0a64 64 0 0 1 7 10l4 6c2 0 2 2 3 3l5 10c1 5 4 9 4 14Z" class="cls-116"/><path d="M255 175v-1l4-2v-1a3 3 0 0 1 4 0c4 3 9 4 13 5l19 7 14 5 5 2c1 6-1 8-7 7l-32-12c-5-2-11-3-16-6a8 8 0 0 1-1 0 4 4 0 0 1-1-1 4 4 0 0 1-1 0 10 10 0 0 1 0-2 8 8 0 0 0-1-1Z" class="cls-117"/><path d="M258 179h4a14 14 0 0 1 3 2 6 6 0 0 0 4 1 6 6 0 0 1 2 0 8 8 0 0 1 3 1c3 2 8 2 11 5a9 9 0 0 0 4 1 83 83 0 0 1 8 3l12 4a5 5 0 0 0 3 0 1 1 0 0 0 1-1l1-4v-1a14 14 0 0 1 0-2l2-5v-3a2 2 0 0 1 1-1v-8a2 2 0 0 1 0-2l1-2a1 1 0 0 1 1 0l-1 9-1 7-3 15a12 12 0 0 1-1 2c-1 1-1 3-3 3-6-1-11-4-17-6-8-1-15-5-23-6l-10-4a3 3 0 0 1-1-2c0-2-3-4-1-6Z" class="cls-75"/><path fill="#45a748" d="M316 183c0 2-2 4-1 6l-1 2-8-2a2 2 0 0 1-1-1c-3-3-6-3-10-3a2 2 0 0 1-2-1l-2-2a10 10 0 0 1-7-2l-8-2a13 13 0 0 1-4-1 12 12 0 0 0-5-2 4 4 0 0 1-4-2 4 4 0 0 0-4-2 21 21 0 0 1 11-3 6 6 0 0 1 3 1 23 23 0 0 0 7 3c2 0 2 1 3 2 2 1 4 2 7 1a2 2 0 0 1 2 1 19 19 0 0 0 8 4 36 36 0 0 1 9 4 5 5 0 0 0 5 0l2-1Z"/><path d="m303 88-2-3v-3c3 1 3 3 2 6Z" class="cls-94"/><path d="M259 172c-1 2-3 2-4 2v-1Z" class="cls-3"/><path d="M316 180a2 2 0 0 1 0 1v-1Z" class="cls-117"/><path d="M254 171a2 2 0 0 1-1-2 2 2 0 0 1 1 2Zm-1-2-1-1Zm2 3-1-1Z" class="cls-3"/><path d="M143 64v-2a13 13 0 0 1 6 3 13 13 0 0 0 4 2 4 4 0 0 1 2 3 2 2 0 0 1-1 0 21 21 0 0 0-3-2 36 36 0 0 1-8-4Z" class="cls-13"/><path d="M154 70h1v1a2 2 0 0 1-1-1Z" class="cls-119"/><path d="M176 88Z" class="cls-65"/><path d="M183 95Zm2 2v-1 1Zm1 1v-1 1Zm1 1v-1 1Zm2 2v-1 1Zm1 0Zm1 1Zm1 1h-1 1Zm1 1h-1 1Zm1 1h-1Zm1 1h-1 1Zm1 1h-1 1Zm0 1Zm1 1Zm1 1v-1Zm1 1v-1 1Zm1 1v-1 1Zm1 1v-1 1Zm1 1v-1 1Zm1 1v-1 1Zm1 0Zm1 1Zm1 1Zm1 1h-1 1Zm1 1h-1 1Zm1 1h-1Zm1 1h-1 1Zm1 1h-1 1Zm0 1Zm1 1Zm1 1v-1 1Zm1 1v-1 1Zm2 2v-1 1Z" class="cls-5"/><path d="M217 129v-1 1Zm1 1v-1 1Zm1 1v-1 1Zm1 0Zm1 1h-1 1Zm3 3h-1 1Zm1 1h-1 1Zm4 6v-1 1zm1 0v1-1Zm2 2Z" class="cls-3"/><path d="m258 179 1 6a1 1 0 0 1 0 1l-1-1a15 15 0 0 1-1-4h-1a4 4 0 0 1 0-3h-1a3 3 0 0 1 0-2v-1l1 1 1 1v1a10 10 0 0 0 1 1Z" class="cls-120"/><path d="M252 171v-1Z" class="cls-3"/><path d="m306 220-8 15a133 133 0 0 1-8 14 1 1 0 0 0 0 2l7 3c-4 3-4 8-3 12l-1 30c0 4 2 6 6 8 2 1 5 0 6 4a4 4 0 0 1-4 0l-10-4-14-7c-7-4-8-10-8-17l1-46c0-4 1-5 6-5s11 0 16-3l1-1 1-1a7 7 0 0 0 2-1 6 6 0 0 1 1-1 23 23 0 0 0 3-2 67 67 0 0 0 4-4v-1a8 8 0 0 1 1 0l1-1c2 0 2 1 1 2l-1 4Z" class="cls-121"/><path fill="#49ac48" d="M294 225a4 4 0 0 1-2 2c-4 2-7 3-12 3h-7c-1 0-3 1-2 3v12a7 7 0 0 0 0 5 6 6 0 0 1 0 4 33 33 0 0 1 0 6v6a3 3 0 0 1 0 2v7a9 9 0 0 0 0 6 4 4 0 0 1 0 2 25 25 0 0 0 0 4c0 4-1 4 4 6a6 6 0 0 1 2 3v1l-1-1h-1l-1-1h-1a1 1 0 0 0-1-1 2 2 0 0 0-1-1h-1a3 3 0 0 0-1-1h-1a3 3 0 0 1-1-1 4 4 0 0 0-1-1l-2-1-1-1-3-1c-2-2-5-2-5-5l-4-3a3 3 0 0 1-3-4v-45a13 13 0 0 1 0-3 7 7 0 0 0 0-5 2 2 0 0 1 0-3l6 5 5 1c4-1 7 2 11 2a35 35 0 0 0 13 0 28 28 0 0 0 9-2 4 4 0 0 1 1 0 2 2 0 0 1 1 0Z"/><path d="M200 313v-4a3 3 0 0 1 3-1c8 2 15 1 22 5 5 2 12 1 17 2l11 4a11 11 0 0 0 1 1 5 5 0 0 1 1 4l3 6-1 1-1-1c-3-5-8-6-14-7-10-2-21-3-31-7-4-1-8-1-11-3Z" class="cls-108"/><path fill="#16522b" d="M255 282a6 6 0 0 0 2 2 7 7 0 0 1 3 3h-1c-2 3-4 3-7 3l-23-6c-2 0-5-1-5-3s3-3 6-3a2 2 0 0 0 1 0 4 4 0 0 1 3-1c6 0 11 1 17 3l4 2Z"/><path fill="#237e3f" d="M254 320h-1c-1-2-3-3-1-6a4 4 0 0 0-1-3c-1-1-3-3-5-3a70 70 0 0 1-11-3h-5a8 8 0 0 0-4-1l-11-3a39 39 0 0 0-8-1 3 3 0 0 1-2-4 4 4 0 0 1 1-2l45 10a3 3 0 0 1 2 2v3a32 32 0 0 0 1 9 9 9 0 0 1 0 2Z"/><path d="m253 306-1-1c-2-2-5-2-7-3l-30-7h-2c-2-1-4-1-4-3-1-3 1-4 3-5 11 3 22 4 32 8l11 1-2 10Z" class="cls-125"/><path fill="#1b6735" d="M255 296a5 5 0 0 1-5 1l-12-3a11 11 0 0 0-6-1 5 5 0 0 1-3 0l-12-4c-2 0-3 0-4-2a1 1 0 0 1-1-1l2-1a8 8 0 0 1 5-3 1 1 0 0 1 0 1c9 4 20 4 29 8 4 1 6-1 9-1l-2 6Z"/><path fill="#185e31" d="M257 290a6 6 0 0 0-1 1c-2 3-5 3-8 1l-12-3a86 86 0 0 1-9-2 14 14 0 0 0-3-1 12 12 0 0 1-6-2l1-2a20 20 0 0 1 12-4 2 2 0 0 1-2 1 7 7 0 0 0-4 1v2l9 2a17 17 0 0 1 4 1 13 13 0 0 0 6 1 4 4 0 0 1 3 1 2 2 0 0 0 2 1 3 3 0 0 1 3 0c2 1 4 2 6 0a3 3 0 0 1 1-1 4 4 0 0 1-2 3Z"/><path fill="#286935" d="m435 294 1 1a8 8 0 0 1-2 3l-8 8-14 14c-1 1 1 2-1 3l-1-1a12 12 0 0 1-3-4l17-16c-1 0-3 1-4-1 3-3 6-3 9-5l6-2Z"/><path d="M420 301h6l-4 4a15 15 0 0 0-3 3l-7 7a9 9 0 0 1-5 3 2 2 0 0 1-2-2c-1-2 1-3 2-4 2-2 6-3 5-7 0-2 3-2 4-4h4Z" class="cls-129"/><path fill="#699d6b" d="M301 308h5a6 6 0 0 1 2 0 7 7 0 0 1 1 0 17 17 0 0 0 2 1 6 6 0 0 1 1 0 12 12 0 0 0 2 1 15 15 0 0 1 1 0h1a23 23 0 0 0 4 1h1a23 23 0 0 0 4 0c13 4 27 3 41 3a17 17 0 0 1 3-1 16 16 0 0 0 5 0l2-1h3c6-1 12-4 19-4 1 1 2 1 1 3a12 12 0 0 0-5 0c-19 5-37 6-56 5a105 105 0 0 1-16-2l-19-5-2-1Z"/><path fill="#255b30" d="m399 311-1-2c2-3 5-2 8-3a20 20 0 0 0 2 0l1-1a18 18 0 0 1 2 0h1a8 8 0 0 1 1 0c2 0 2 1 1 2a17 17 0 0 0-4 4 20 20 0 0 1-4 3l-1 2c-3-1-4-4-6-5Z"/><path d="m257 331 1-1a3 3 0 0 1 1 3h-1l-1-2Z" class="cls-110"/><path d="M446 364v2a5 5 0 0 1-2-3 1 1 0 0 1 1 0 5 5 0 0 1 1 1Z" class="cls-132"/><path d="M443 361h1a1 1 0 0 1 0 2 2 2 0 0 1-1-2Z" class="cls-132"/><path d="M264 289a1 1 0 0 1 2 1 1 1 0 0 1-2-1Z" class="cls-121"/><path d="M447 368a2 2 0 0 1 1 3 2 2 0 0 1-1-3Z" class="cls-90"/><path d="M275 296a1 1 0 0 1 1 0h-1Zm-12-8a1 1 0 0 1 1 1 1 1 0 0 1-1-1Zm3 2 1 1-1-1Zm1 1a1 1 0 0 1 1 1l-1-1Zm2 1 1 1-1-1Zm2 1a1 1 0 0 1 1 1 1 1 0 0 1-1-1Zm1 1a1 1 0 0 1 1 1 1 1 0 0 1-1-1Zm2 1c0 1 0 0 0 0Z" class="cls-121"/><path d="m410 322 1 1-1-1Z" class="cls-97"/><path d="M255 324Z" class="cls-110"/><path d="M423 335Z" class="cls-29"/><path d="M261 337v-1 1Z" class="cls-4"/><path d="M441 358Zm1 1Z" class="cls-100"/><path d="M307 390a1 1 0 0 1-1-1l1 1Zm1 1-1-1 1 1Zm1 1-1-1 1 1Zm1 1a1 1 0 0 1-1-1l1 1Zm1 1a1 1 0 0 1-1-1 1 1 0 0 1 1 1Zm2 2a1 1 0 0 1-1-1l1 1Zm1 1a1 1 0 0 1-1-1l1 1Zm1 1-1-1 1 1Zm1 1-1-1 1 1Z" class="cls-68"/><path d="M446 412h-1Zm-1 1Zm-1 2Z" class="cls-79"/><path d="M337 419Zm8 8v-1Z" class="cls-102"/><path d="M288 372v1-1Zm-4-4-1-1 1 1Zm0 0Zm4 4v-2 2Z" class="cls-4"/><path d="M200 313a38 38 0 0 1 5 0l6 2 8 3a32 32 0 0 1 9 2 11 11 0 0 0 4 0l3 1 8 1 5 1 4 1a3 3 0 0 1 2 1l2 5c-2 0-4-2-6-1h-3a14 14 0 0 0-4-2 59 59 0 0 0-12 0 8 8 0 0 1-3-1l-8-2-5-2h-6a1 1 0 0 1-2 0c-2-2-5-2-8-1a10 10 0 0 1-1 0c-1-2 0-4 1-6v-2Zm-3 11 1-3-1 3Zm-1 4 1-1Z" class="cls-110"/><path d="M64 101a3 3 0 0 1-1 2v1a3 3 0 0 1-1 2 8 8 0 0 1 0 2 35 35 0 0 0 0 18 9 9 0 0 1 0 2v1a4 4 0 0 1 1 3v3c-2-2-2-5-2-7l-2-12 4-18a19 19 0 0 1 5-6 2 2 0 0 1 0 2 23 23 0 0 1-4 6Z" class="cls-7"/><path fill="#619377" d="m67 94 1-2 2-2a7 7 0 0 1-3 4Z"/><path d="M63 133a2 2 0 0 1 0-1 1 1 0 0 1 0 1Zm1 2Z" class="cls-2"/><path d="M65 137Zm1 2Zm1 2Z" class="cls-7"/><path d="m407 307-9 2-9 2-11 2a3 3 0 0 1-3-1l-1-7v-71c0-4-1-9 1-13 1-3 4-5 6-7l13-13a15 15 0 0 1 2-1 1 1 0 0 1 0-1 6 6 0 0 0 1-1 5 5 0 0 0 1-1h1v-1a1 1 0 0 1 1 0v-1h1v-1a6 6 0 0 0 1 0v-1a8 8 0 0 0 1 0v-1a1 1 0 0 1 1 0 7 7 0 0 0 1-1 5 5 0 0 0 0-1h1a5 5 0 0 0 0-1h1a5 5 0 0 1 0-1h1a9 9 0 0 0 0-1 5 5 0 0 0 1-1 4 4 0 0 0 1-1l1-1a4 4 0 0 0 1-1 1 1 0 0 1 1 0c1 3-1 4-2 5l-8 9a14 14 0 0 0-5 11v93c0 6 1 6 6 4l10-3a2 2 0 0 1 2 0 4 4 0 0 1-2 2 3 3 0 0 0-2 1l-3 1-2 1Z" class="cls-134"/><path d="M334 251a174 174 0 0 0 18-11l5-4c2 0 2 1 3 3a26 26 0 0 1 0 7v58c0 4 0 8-3 11a109 109 0 0 1-23-1c-3 0-2-3-2-4v-55a4 4 0 0 1 2-2l1-1a1 1 0 0 1-1-1Z" class="cls-135"/><path fill="#65b746" d="M357 314c2-3 2-7 2-11v-59a65 65 0 0 0-1-7l-1-1 5-4c4-2 6-5 9-8a3 3 0 0 0 1 0v-1a3 3 0 0 0 2-1 3 3 0 0 0 1-1l1 1a4 4 0 0 0-1 4v87h1-1a3 3 0 0 1 0 1h-1a6 6 0 0 0-1 0h-3l-4 1a21 21 0 0 1-9-1Z"/><path d="m334 251 1 1a1 1 0 0 1 1 0l-1 1-2 1c-3 3-7 4-12 5-6 1-6 1-6 7v34a26 26 0 0 1-2 10 1 1 0 0 1-1 0 4 4 0 0 1-1 0l-3-1h-1l-2-1c-1-2-4-2-6-3a33 33 0 0 1-6-2 3 3 0 0 1-1-3 22 22 0 0 0 0-5v-38c0-2 1-2 3-2a2 2 0 0 0 2-1l4 1v1h-1 1a5 5 0 0 0 1 0h3l5 1a37 37 0 0 0 12-1 15 15 0 0 1 2-1h1l7-3a3 3 0 0 1 2-1Z" class="cls-137"/><path d="M306 220c-1-2 0-3 1-4v-1h-2a7 7 0 0 0-4-4c-12-3-22-8-34-10-6-2-7-3-7-9a27 27 0 0 1 11 2l32 10c3 2 6 1 8-2l1-2h1a3 3 0 0 1 0 2 5 5 0 0 0-1 1 2 2 0 0 1 0 1c0 3-4 13-6 16Z" class="cls-138"/><path fill="#1c5b2f" d="m313 112-4-11a24 24 0 0 1-1-3l-3-7a2 2 0 0 1 0-2 1 1 0 0 1 2 0c5 4 11 8 13 15l-5 5a15 15 0 0 0-2 3Z"/><path fill="#1f6232" d="M320 104a111 111 0 0 0-13-14h-1a2 2 0 0 0 0 1l1 3a6 6 0 0 1 1 4 32 32 0 0 1-5-10 11 11 0 0 0-2-6l-1-4c2 0 4 0 5 3a2 2 0 0 0 0 1l6 6 6 7 6 6-1 1a3 3 0 0 1-2 2Z"/><path d="M319 167h-1l-1-22a9 9 0 0 0 0-1l-1-11a4 4 0 0 1 0-4 6 6 0 0 1 1 3 16 16 0 0 1 1 6v1l1 9v4a35 35 0 0 1 0 11v4Z" class="cls-117"/><path d="m371 224-7 7-2 1a32 32 0 0 1 9-8Z" class="cls-134"/><path d="M305 256a3 3 0 0 1-4 0 4 4 0 0 1 3 0Z" class="cls-121"/><path d="M319 167v-4a5 5 0 0 1 0 4Zm0-15v-4a6 6 0 0 1 0 4Z" class="cls-116"/><path d="M304 256h-4 1v-1l3 1Z" class="cls-137"/><path d="M324 100a2 2 0 0 1 2-2 3 3 0 0 1-2 2Z" class="cls-23"/><path d="M374 222c0 1-1 2-2 1a2 2 0 0 1 2-1Z" class="cls-134"/><path d="M419 176a2 2 0 0 1 2-2v1a1 1 0 0 1-1 1Z" class="cls-83"/><path d="M408 187v1-1Zm-1 1a1 1 0 0 1 0 1v-1Zm-1 1v1-1Zm-1 1v1a1 1 0 0 1 0-1Zm0 1-1 1 1-1Zm-1 1a1 1 0 0 1-1 1v-1Zm-1 1h-1 1Zm-1 1h-1a1 1 0 0 1 1 0Zm-1 1h-1 1Zm-1 1a1 1 0 0 1-1 0Zm-1 1h-1 1Zm-1 0-1 1a1 1 0 0 1 1-1Zm-1 1-1 1 1-1Zm-1 1v1Z" class="cls-12"/><path d="M312 203v-1a1 1 0 0 1 0 1Z" class="cls-120"/><path d="M375 221a1 1 0 0 1-1 1 1 1 0 0 1 1-1Zm-3 3a1 1 0 0 1-1 0h1Z" class="cls-134"/><path d="M332 252Z" class="cls-135"/><path d="M325 255h-1Z" class="cls-141"/><path d="M376 61z" class="cls-9"/><path d="M361 69v-1 1Zm-3 1Z" class="cls-54"/><path d="M354 73h1Zm-3 2a1 1 0 0 1 1 0h-1Z" class="cls-25"/><path d="M347 79a1 1 0 0 1 0-1v1Z" class="cls-91"/><path d="m322 102 1-1-1 1Z" class="cls-94"/><path d="M317 132Zm1 7Z" class="cls-116"/><path d="M446 141a1 1 0 0 1-1 1l1-1Zm-1 2a1 1 0 0 1-1 1l1-1Z" class="cls-10"/><path d="M444 144a1 1 0 0 1-1 1v-1Zm-1 2a1 1 0 0 1 0 1v-1Zm-1 2h-1 1Zm-1 1Zm-1 1a1 1 0 0 1-1 1l1-1Zm-1 2Zm-1 1v1-1Zm-1 2Zm-1 0v1Zm-1 2v1a1 1 0 0 1 0-1Zm-1 1v1-1Zm0 1-1 1v-1Zm-1 1-1 1v-1Zm-1 2a1 1 0 0 1-1 1l1-1Zm-1 1a1 1 0 0 1-1 0Z" class="cls-82"/><path d="M427 167a1 1 0 0 1 1-1v1a1 1 0 0 1 0 1Zm-1 1a1 1 0 0 1 1-1 1 1 0 0 1 0 1Zm-1 1a1 1 0 0 1 1-1 1 1 0 0 1 0 1Zm-1 1a1 1 0 0 1 1-1 1 1 0 0 1 0 1h-1Zm-1 1a1 1 0 0 1 1-1 1 1 0 0 1 0 1Zm-1 1 1-1a1 1 0 0 1 0 1Zm0 1v-1a1 1 0 0 1 0 1Zm-1 1 1-1-1 1Z" class="cls-83"/><path d="M318 176Z" class="cls-116"/><path d="M419 177a1 1 0 0 1 0-1h1a1 1 0 0 1-1 1Zm-1 1a1 1 0 0 1 1-1 1 1 0 0 1-1 1Zm-1 0a1 1 0 0 1 1-1v1a1 1 0 0 1-1 1Zm-1 1a1 1 0 0 1 1-1v1a1 1 0 0 1-1 1Zm-1 1a1 1 0 0 1 1-1v1a1 1 0 0 1-1 1Z" class="cls-83"/><path d="M414 181a1 1 0 0 1 1-1v1a1 1 0 0 1 0 1l-1-1Z" class="cls-83"/><path d="M413 182a1 1 0 0 1 1-1 1 1 0 0 1 0 2Z" class="cls-83"/><path d="M317 183Z" class="cls-74"/><path d="M413 183a4 4 0 0 1-1 0 1 1 0 0 1 1-1 1 1 0 0 1 0 1Z" class="cls-83"/><path d="m412 183-1 1 1-1Zm-1 1-1 1 1-1Zm-1 1-1 1 1-1Zm-1 1-1 1a1 1 0 0 1 1-1Z" class="cls-12"/><path d="M372 61h-1Z" class="cls-16"/><path d="M413 183v-1l1-1h1l1-1 1-1 1-1 1-1 1-1a2 2 0 0 0 1-2l1-1 1-1v-1l1-1 1-1 1-1 1-1h1l1 1a4 4 0 0 1-1 1l-10 11c-2 2-2 4 0 6a2 2 0 0 1 0 2 4 4 0 0 0 1 5 2 2 0 0 1-1 2 2 2 0 0 0 0 1c-1 2 0 4 1 5-1 2-2 4-1 6v4a4 4 0 0 0 1 4 2 2 0 0 1 0 3 4 4 0 0 0-1 4v4a4 4 0 0 0 1 4l-1 3a4 4 0 0 0 0 5 2 2 0 0 1 0 2 4 4 0 0 0 0 5 3 3 0 0 1 0 3 4 4 0 0 0 0 5 2 2 0 0 1 0 2 2 2 0 0 0 0 1c-1 2 0 4 1 5-1 2-2 4-1 6v4a4 4 0 0 0 0 4 2 2 0 0 1 0 3c-1 2 0 4 1 6-1 2-2 4-1 6v3c-1 3 0 4 2 5a2 2 0 0 0 2 0l5-2 4-1-1 1a41 41 0 0 0-10 5l-4 1-11 4a51 51 0 0 1-6 2 2 2 0 0 1-2-3 9 9 0 0 0 0-6 3 3 0 0 1 0-2 6 6 0 0 0 0-4 9 9 0 0 1 0-5v-6a9 9 0 0 0 0-5 3 3 0 0 1 0-2v-8a8 8 0 0 0 0-5 3 3 0 0 1 0-2 5 5 0 0 0 0-2v-9a25 25 0 0 1 0-6 4 4 0 0 0 0-2 7 7 0 0 1 0-5 5 5 0 0 0 0-3 8 8 0 0 1 0-5v-6a9 9 0 0 0 0-5 4 4 0 0 1 0-2 6 6 0 0 0 0-3v-8a9 9 0 0 1 3-6l11-11 2-4Z" class="cls-12"/><path d="m430 297 1-2 4-1c-1 2-3 2-5 3Z" class="cls-97"/><path fill="#22723a" d="M301 220a5 5 0 0 1-4 3c-9-5-19-7-29-9l-10-3 2-9c8 5 18 7 28 10l12 4c2 0 2 2 1 4Z"/><path fill="#2a803f" d="M260 192a7 7 0 0 0 1 4c1 2 3 3 5 3a6 6 0 0 1 5 1 5 5 0 0 0 2 1c3 0 6 1 8 3a6 6 0 0 0 3 1c3 1 7 1 10 3a2 2 0 0 0 1 0l5 2a19 19 0 0 0 6 2l-1 3a2 2 0 0 1-1 1c-14-3-27-9-40-13a7 7 0 0 1-4-3l-1-9a1 1 0 0 1 1 0 1 1 0 0 1 0 1Z"/><path fill="#277a3d" d="M260 200a26 26 0 0 0 5 2l12 4 7 3a10 10 0 0 0 3 0 7 7 0 0 1 4 2c3 2 6 2 8 2a13 13 0 0 1 5 2 1 1 0 0 1 1 1h-1a3 3 0 0 0 0 1 7 7 0 0 1-3 3 9 9 0 0 1 0-1l-1-2-2-1c-3 0-5 0-7-2l-5-2a32 32 0 0 1-8-2 33 33 0 0 0-9-2c-3-1-5-3-8-3l-1-3a2 2 0 0 1 0-2Z"/><path d="M258 211c1-1 2-2 4-1a11 11 0 0 0 7 2 6 6 0 0 1 2 1 12 12 0 0 0 4 1 12 12 0 0 1 5 2 4 4 0 0 0 3 1c4-1 8 3 12 3a3 3 0 0 1 2 3l-2 1a2 2 0 0 1-2 1l-30-10c-3-1-5 2-7 0l2-4Z" class="cls-145"/><path fill="#1d6132" d="M256 215h1c3-3 6-2 9 0a10 10 0 0 0 3 1 21 21 0 0 1 8 3l10 2 6 2v2a5 5 0 0 0-1 0 13 13 0 0 1-8 3v-1a6 6 0 0 1 1-1l-1-1c-7-1-13-4-19-6l-10-1a4 4 0 0 1 1-3Z"/><path d="M255 218a11 11 0 0 0 1-1 4 4 0 0 1 4-1l8 3 9 3a2 2 0 0 1 1 0l5 2a12 12 0 0 1 5 1 4 4 0 0 1-3 2 140 140 0 0 1-22-5h-8l-2-2Z" class="cls-147"/><path d="M260 191h-1l-1-5 1-1v1c2 1 3 3 1 5Z" class="cls-138"/><path d="M151 68a3 3 0 0 1 3 2c-2 0-3-1-3-2Z" class="cls-119"/><path d="M211 199a1 1 0 0 1-1 0h1Z" class="cls-76"/><path d="m178 192-2-1 2 1Z" class="cls-112"/><path d="m144 191-1 1 1-1Z" class="cls-73"/><path d="m106 189-1-1a1 1 0 0 1 1 1Z" class="cls-92"/><path d="M176 191h-1 1Z" class="cls-73"/><path d="M213 200a1 1 0 0 1-1-1 1 1 0 0 1 1 1Zm3 1-1-1a1 1 0 0 1 1 1Z" class="cls-76"/><path d="M64 101a1 1 0 0 1 0-1v1Zm-1 3a1 1 0 0 1 0-1Zm-1 3a1 1 0 0 1 0-1Zm0 22a1 1 0 0 1 0-1Z" class="cls-2"/><path d="M76 156Zm1 1Z" class="cls-50"/><path d="M255 178h1-1Zm1 3h1-1Zm3 4a3 3 0 0 1-1 1v-1Z" class="cls-75"/><path d="M198 378h-1v-6a2 2 0 0 1 1 2v4Z" class="cls-77"/><path d="M217 434a5 5 0 0 1-2-3c2 0 2 2 2 3Z" class="cls-15"/><path d="M196 366c-2-1-1-3-1-4h1v4Z" class="cls-110"/><path d="M215 431a3 3 0 0 1-1-3 3 3 0 0 1 1 3Z" class="cls-15"/><path d="M195 339v-3h1l-1 3Z" class="cls-77"/><path d="M196 336h-1l1-3v3Z" class="cls-110"/><path d="M196 362h-1v-2a2 2 0 0 1 1 2Z" class="cls-77"/><path d="M197 372a2 2 0 0 1-1-1 1 1 0 0 1 1 0Z" class="cls-110"/><path d="M197 371h-1a6 6 0 0 1 0-1l1 1Z" class="cls-77"/><path d="M363 65v1Z" class="cls-54"/><path d="M444 363v-2h1v2a2 2 0 0 1-1 0Z" class="cls-22"/><path d="M445 363a8 8 0 0 1 0-1 2 2 0 0 1 1 2Z" class="cls-100"/><path d="M443 288a3 3 0 0 1 3-2 3 3 0 0 1-3 2Zm3-2 1-1Z" class="cls-27"/><path fill="#20783d" d="M213 286v1a9 9 0 0 0-3 3 2 2 0 0 0 0 2 16 16 0 0 0 3 1l12 3a11 11 0 0 0 3 1 12 12 0 0 1 6 1l11 2 5 2c2 1 2 2 2 3h-2a7 7 0 0 0-5-1 4 4 0 0 1-2 0 6 6 0 0 0-5-2 3 3 0 0 1-1 0c-3-2-5-2-7-2a5 5 0 0 1-2 0l-9-2a60 60 0 0 0-11-2l-2-2 2-4a14 14 0 0 1 5-5v1Z"/><path fill="#15532a" d="M255 222c1-3 1-3 3-2 2 0 4-1 5 1s4 1 6 1l5 2c4 1 8 1 11 3h-1c-5 3-10 2-14 1-3 1-6 0-8-1l-3-2a5 5 0 0 0-2-1 4 4 0 0 1-2-2Z"/><path d="m218 253-1-1Zm3 1-1-1Z" class="cls-109"/><path d="M213 286v-1a3 3 0 0 1 1 0Z" class="cls-125"/><path d="m252 314 1 6c-4-2-8-4-13-3a2 2 0 0 1-1 0c-2-2-4-2-6-2-4 0-7 0-10-2-4-1-8-3-13-2a3 3 0 0 1-2-1 19 19 0 0 0-8-1 10 10 0 0 1 1-3c1-2 2-2 4-2a22 22 0 0 0 8 2 3 3 0 0 1 3 1l3 1 7 1a15 15 0 0 0 7 2 10 10 0 0 1 3 1 12 12 0 0 0 5 0 4 4 0 0 1 1 1l5 1h5Zm-52-5v1Z" class="cls-111"/><path d="m196 249 3-1-3 1Zm5-1 3 1-3-1Zm-9 1h2a2 2 0 0 1-2 1 1 1 0 0 1 0-1Zm14 0a2 2 0 0 1 2 1 2 2 0 0 1-2-1Z" class="cls-73"/><path d="M192 249v1h-1Z" class="cls-112"/><path d="M200 313a2 2 0 0 1-1 2 2 2 0 0 1 1-2Z" class="cls-108"/><path d="m170 192 1 1Z" class="cls-73"/><path d="M317 171a2 2 0 0 1 0 2v-2Z" class="cls-117"/><path d="M317 171a2 2 0 0 1 0-2v2Zm0-27v1Zm-1 36 1-1a2 2 0 0 1-1 1Z" class="cls-74"/><path d="m257 177-1-1Zm1 2-1-1Z" class="cls-75"/><path d="M260 191c1-2 0-3-1-5a9 9 0 0 1 5 1 19 19 0 0 0 10 3l7 2a17 17 0 0 0 3 2c3 0 7 1 9 3h4c2 0 4 0 5 2l4 2a44 44 0 0 0 5 1 19 19 0 0 1 0 3 3 3 0 0 1-3 2 12 12 0 0 1-3 0c-3-1-5-3-8-2a2 2 0 0 1-1-1c-2-2-4-2-7-3a15 15 0 0 1-2-1 55 55 0 0 0-11-3 9 9 0 0 1-4-1 9 9 0 0 0-5-2 15 15 0 0 1-7-2v-1Z" class="cls-120"/><path d="M314 191a2 2 0 0 1 1-2 2 2 0 0 1-1 2Z" class="cls-117"/><path fill="#308e43" d="M293 224h2l-1 1h-1v-1Zm2 0a2 2 0 0 1 2-1 2 2 0 0 1-2 1Z"/><path d="M304 216v-1h1Zm0 1v-1Z" class="cls-138"/><path d="M270 228h6a22 22 0 0 0 8-1v1c-4 2-8 1-12 1a3 3 0 0 1-2-1Z" class="cls-147"/><path d="M293 224v1a3 3 0 0 1-1 0l1-1Z" class="cls-145"/><path d="m313 310 1-8a2 2 0 0 0 0-1v-39a7 7 0 0 1 0-1c0-2 0-2 2-3a67 67 0 0 0 17-4v59l12 1h21l-3 1h-22l-15-2-3-1h-3l-1-1h-3l-2-1a1 1 0 0 1-1 0Zm57 4 3-1a1 1 0 0 1 2 0v1h-5Z" class="cls-141"/><path d="M316 311c1 0 2-1 3 1l-3-1Zm-8-2 3 1-3-1Zm12 3h3-3Z" class="cls-121"/><path d="M376 313h2-2Z" class="cls-141"/><path d="M305 308a2 2 0 0 1 2 1 2 2 0 0 1-2-1Z" class="cls-121"/><path d="M314 310a2 2 0 0 1 2 1h-2l-1-1h1Z" class="cls-137"/><path d="M314 310v1a2 2 0 0 1-2-1h1Z" class="cls-121"/><path d="m409 306 3-1-3 1Zm-2 1a2 2 0 0 1 2-1l-2 1Z" class="cls-129"/><path d="M335 253v-1h1l-1 1Z" class="cls-141"/><path d="M375 313h-2 2Z" class="cls-134"/><path d="M301 256a9 9 0 0 1-2 0 6 6 0 0 1 2 0Z" class="cls-121"/></svg>