<svg xmlns="http://www.w3.org/2000/svg" xmlns:xlink="http://www.w3.org/1999/xlink" width="100px" zoomAndPan="magnify" viewBox="0 0 375 374.999991" height="100px" preserveAspectRatio="xMidYMid meet" version="1.0"><defs><clipPath id="id1"><path d="M 4.34375 220 L 145 220 L 145 370.34375 L 4.34375 370.34375 Z M 4.34375 220 " clip-rule="nonzero"/></clipPath><clipPath id="id2"><path d="M 200 187 L 370.34375 187 L 370.34375 370.34375 L 200 370.34375 Z M 200 187 " clip-rule="nonzero"/></clipPath><clipPath id="id3"><path d="M 52 4.34375 L 314 4.34375 L 314 212 L 52 212 Z M 52 4.34375 " clip-rule="nonzero"/></clipPath></defs><g clip-path="url(#id1)"><path fill="#ffffff" d="M 133.015625 359.265625 L 15.425781 359.265625 L 15.425781 348.703125 C 15.425781 326.542969 33.199219 308.800781 55.359375 308.800781 L 93.082031 308.800781 C 115.242188 308.800781 133.015625 326.542969 133.015625 348.703125 Z M 45.382812 261.101562 C 45.382812 245.019531 58.671875 231.730469 74.789062 231.730469 C 90.839844 231.730469 104.164062 245.019531 104.164062 261.101562 C 104.164062 277.1875 90.839844 290.476562 74.789062 290.476562 C 58.671875 290.476562 45.382812 277.1875 45.382812 261.101562 Z M 93.082031 297.691406 L 91.945312 297.691406 C 105.820312 291.0625 115.242188 277.1875 115.242188 261.101562 C 115.242188 238.910156 96.949219 220.617188 74.789062 220.617188 C 52.597656 220.617188 34.300781 238.910156 34.300781 261.101562 C 34.300781 277.1875 43.726562 291.0625 57.566406 297.691406 L 55.910156 297.691406 C 27.089844 297.691406 4.34375 320.433594 4.34375 348.703125 L 4.34375 364.789062 C 4.34375 368.132812 6.554688 370.34375 9.898438 370.34375 L 138.539062 370.34375 C 141.855469 370.34375 144.097656 368.132812 144.097656 364.789062 L 144.097656 348.703125 C 144.097656 320.433594 121.351562 297.691406 93.082031 297.691406 " fill-opacity="1" fill-rule="nonzero"/></g><g clip-path="url(#id2)"><path fill="#ffffff" d="M 359.230469 359.265625 L 211.195312 359.265625 L 211.195312 351.5 C 211.195312 319.882812 236.699219 294.375 268.316406 294.375 L 302.140625 294.375 C 333.722656 294.375 359.230469 319.882812 359.230469 351.5 Z M 247.78125 236.699219 C 247.78125 216.199219 265.003906 199.007812 285.503906 199.007812 C 306.59375 199.007812 323.230469 215.644531 323.230469 236.699219 C 323.230469 257.789062 306.007812 274.425781 285.503906 274.425781 C 265.003906 274.425781 247.78125 257.234375 247.78125 236.699219 Z M 302.140625 283.261719 L 301.003906 283.261719 C 320.433594 277.1875 334.863281 258.308594 334.863281 236.699219 C 334.863281 210.089844 312.667969 187.894531 286.058594 187.894531 C 259.414062 187.894531 237.253906 209.503906 237.253906 236.699219 C 237.253906 258.308594 251.679688 276.632812 271.078125 283.261719 L 268.867188 283.261719 C 231.144531 283.261719 200.632812 313.773438 200.632812 351.5 L 200.632812 364.789062 C 200.632812 368.132812 202.875 370.34375 206.191406 370.34375 L 364.820312 370.34375 C 368.132812 370.34375 370.34375 368.132812 370.34375 364.789062 L 370.34375 351.5 C 370.34375 313.773438 339.867188 283.261719 302.140625 283.261719 " fill-opacity="1" fill-rule="nonzero"/></g><g clip-path="url(#id3)"><path fill="#ffffff" d="M 136.882812 51.492188 C 177.921875 51.492188 210.640625 79.761719 210.640625 114.136719 C 210.640625 148.515625 177.367188 176.816406 136.882812 176.816406 C 130.773438 176.816406 124.113281 176.265625 117.484375 174.605469 C 116.378906 174.023438 114.691406 174.605469 113.585938 175.125 L 77.550781 195.109375 L 88.078125 166.289062 C 89.183594 164.046875 88.078125 161.285156 86.421875 160.179688 C 71.441406 147.960938 62.570312 131.878906 62.570312 114.691406 C 63.125 79.761719 96.394531 51.492188 136.882812 51.492188 Z M 228.933594 15.425781 C 269.972656 15.425781 302.695312 43.726562 302.695312 78.101562 C 302.695312 95.84375 294.375 111.929688 278.84375 123.558594 C 277.1875 125.21875 276.050781 127.460938 277.1875 129.667969 L 287.714844 158.492188 L 251.679688 138.539062 C 250.542969 137.988281 248.917969 137.433594 247.78125 137.988281 C 236.699219 140.195312 226.140625 140.75 216.199219 139.09375 C 219.511719 131.328125 221.722656 122.457031 221.722656 113.585938 C 221.722656 81.96875 198.457031 54.804688 165.703125 44.277344 C 179.578125 27.089844 203.429688 15.425781 228.933594 15.425781 Z M 76.445312 165.703125 L 62.019531 204.53125 C 61.464844 206.773438 62.019531 208.953125 63.675781 210.640625 C 65.332031 212.296875 68.128906 212.296875 69.785156 211.195312 L 116.898438 185.132812 C 123.558594 186.238281 130.222656 187.34375 136.882812 187.34375 C 169.050781 187.34375 196.765625 171.8125 211.195312 149.652344 C 223.410156 151.863281 235.597656 151.863281 248.367188 149.066406 L 295.480469 175.125 C 297.691406 176.265625 299.898438 175.710938 301.589844 174.605469 C 303.246094 172.917969 303.796875 170.707031 303.246094 168.5 L 288.820312 129.667969 C 304.351562 115.792969 313.773438 97.5 313.773438 78.101562 C 313.773438 37.617188 276.050781 4.34375 228.933594 4.34375 C 197.871094 4.34375 169.601562 18.769531 154.625 42.035156 C 149.066406 40.929688 142.992188 40.378906 136.882812 40.378906 C 89.734375 40.378906 52.042969 73.652344 52.042969 114.136719 C 52.042969 133.535156 60.914062 152.414062 76.445312 165.703125 " fill-opacity="1" fill-rule="nonzero"/></g><path fill="#ffffff" d="M 85.867188 115.242188 C 85.867188 110.824219 89.734375 106.925781 94.1875 106.925781 C 98.605469 106.925781 102.503906 110.824219 102.503906 115.242188 C 102.503906 119.695312 98.605469 123.558594 94.1875 123.558594 C 89.734375 123.558594 85.867188 119.695312 85.867188 115.242188 Z M 113.585938 115.242188 C 113.585938 104.714844 104.714844 95.84375 94.1875 95.84375 C 83.625 95.84375 74.789062 104.164062 74.789062 115.242188 C 74.789062 125.800781 83.625 134.671875 94.1875 134.671875 C 104.714844 134.671875 113.585938 125.800781 113.585938 115.242188 " fill-opacity="1" fill-rule="nonzero"/><path fill="#ffffff" d="M 136.882812 106.925781 C 141.335938 106.925781 145.199219 110.824219 145.199219 115.242188 C 145.199219 119.695312 141.335938 123.558594 136.882812 123.558594 C 132.429688 123.558594 128.5625 119.695312 128.5625 115.242188 C 128.5625 110.269531 132.429688 106.925781 136.882812 106.925781 Z M 136.882812 134.671875 C 147.410156 134.671875 156.28125 125.800781 156.28125 115.242188 C 156.28125 104.714844 147.410156 95.84375 136.882812 95.84375 C 126.355469 95.84375 117.484375 104.714844 117.484375 115.242188 C 117.484375 125.800781 126.355469 134.671875 136.882812 134.671875 " fill-opacity="1" fill-rule="nonzero"/><path fill="#ffffff" d="M 179.578125 106.925781 C 184.03125 106.925781 187.894531 110.824219 187.894531 115.242188 C 187.894531 119.695312 184.03125 123.558594 179.578125 123.558594 C 175.125 123.558594 171.261719 119.695312 171.261719 115.242188 C 171.261719 110.269531 175.125 106.925781 179.578125 106.925781 Z M 179.578125 134.671875 C 190.105469 134.671875 199.007812 125.800781 199.007812 115.242188 C 199.007812 104.714844 190.105469 95.84375 179.578125 95.84375 C 169.050781 95.84375 160.179688 104.714844 160.179688 115.242188 C 160.179688 125.800781 169.050781 134.671875 179.578125 134.671875 " fill-opacity="1" fill-rule="nonzero"/><path fill="#ffffff" d="M 210.089844 54.253906 L 278.292969 54.253906 C 281.636719 54.253906 283.816406 52.042969 283.816406 48.695312 C 283.816406 45.382812 281.636719 43.171875 278.292969 43.171875 L 210.089844 43.171875 C 206.773438 43.171875 204.53125 45.382812 204.53125 48.695312 C 204.53125 51.492188 207.328125 54.253906 210.089844 54.253906 " fill-opacity="1" fill-rule="nonzero"/><path fill="#ffffff" d="M 278.292969 68.128906 L 226.726562 68.128906 C 223.410156 68.128906 221.167969 70.335938 221.167969 73.652344 C 221.167969 77 223.410156 79.207031 226.726562 79.207031 L 278.292969 79.207031 C 281.636719 79.207031 283.816406 77 283.816406 73.652344 C 283.816406 70.335938 281.636719 68.128906 278.292969 68.128906 " fill-opacity="1" fill-rule="nonzero"/><path fill="#ffffff" d="M 278.292969 93.082031 L 237.804688 93.082031 C 234.457031 93.082031 232.28125 95.292969 232.28125 98.605469 C 232.28125 101.953125 234.457031 104.164062 237.804688 104.164062 L 278.292969 104.164062 C 281.636719 104.164062 283.816406 101.953125 283.816406 98.605469 C 283.816406 95.292969 281.636719 93.082031 278.292969 93.082031 " fill-opacity="1" fill-rule="nonzero"/></svg>