<svg width="28px" height="54px" viewBox="-28 -54 112 216" fill="none" xmlns="http://www.w3.org/2000/svg">
<g clip-path="url(#clip0_408_202)">
<path fill-rule="evenodd" clip-rule="evenodd" d="M45.3952 66.6902H20.4965C20.2447 66.6824 20.0021 66.5927 19.8044 66.4343C19.6067 66.276 19.4645 66.0574 19.3987 65.8108L12.0433 38.0372H7.65197C7.34334 38.0372 7.04734 37.9128 6.82911 37.6915C6.61087 37.4703 6.48828 37.1702 6.48828 36.8572C6.48828 36.5443 6.61087 36.2441 6.82911 36.0228C7.04734 35.8016 7.34334 35.6772 7.65197 35.6772H12.9545C13.2058 35.6808 13.4491 35.7676 13.6473 35.9243C13.8454 36.0811 13.9877 36.2992 14.0523 36.5455L21.4187 64.3748H45.4171C45.7257 64.3748 46.0217 64.4991 46.24 64.7204C46.4582 64.9417 46.5808 65.2418 46.5808 65.5548C46.5808 65.8677 46.4582 66.1678 46.24 66.3891C46.0217 66.6104 45.7257 66.7348 45.4171 66.7348L45.3952 66.6902Z" fill="white" stroke="white"/>
<path fill-rule="evenodd" clip-rule="evenodd" d="M45.3952 66.6902H20.4965C20.2447 66.6824 20.0021 66.5927 19.8044 66.4343C19.6067 66.276 19.4645 66.0574 19.3987 65.8108L12.0433 38.0372H7.65197C7.34334 38.0372 7.04734 37.9128 6.82911 37.6915C6.61087 37.4703 6.48828 37.1702 6.48828 36.8572C6.48828 36.5443 6.61087 36.2441 6.82911 36.0228C7.04734 35.8016 7.34334 35.6772 7.65197 35.6772H12.9545C13.2058 35.6808 13.4491 35.7676 13.6473 35.9243C13.8454 36.0811 13.9877 36.2992 14.0523 36.5455L21.4187 64.3748H45.4171C45.7257 64.3748 46.0217 64.4991 46.24 64.7204C46.4582 64.9417 46.5808 65.2418 46.5808 65.5548C46.5808 65.8677 46.4582 66.1678 46.24 66.3891C46.0217 66.6104 45.7257 66.7348 45.4171 66.7348L45.3952 66.6902Z" fill="white" stroke="white"/>
<path fill-rule="evenodd" clip-rule="evenodd" d="M44.3082 60.3229H19.1351C18.8265 60.3229 18.5305 60.1986 18.3123 59.9773C18.094 59.756 17.9714 59.4559 17.9714 59.1429C17.9714 58.83 18.094 58.5298 18.3123 58.3085C18.5305 58.0873 18.8265 57.963 19.1351 57.963H43.3751L47.2284 40.7533C47.2284 40.7533 47.2284 40.6754 47.1516 40.5529C47.0391 40.4233 46.9006 40.3195 46.7453 40.2484C46.5901 40.1774 46.4217 40.1408 46.2514 40.141H13.7887C13.4801 40.141 13.1841 40.0167 12.9659 39.7955C12.7476 39.5742 12.625 39.274 12.625 38.9611C12.625 38.6481 12.7476 38.348 12.9659 38.1267C13.1841 37.9054 13.4801 37.7811 13.7887 37.7811H46.2184C46.7374 37.7833 47.2498 37.8999 47.7199 38.1229C48.19 38.3459 48.6067 38.6699 48.941 39.0724C49.194 39.3761 49.3734 39.7357 49.4649 40.1222C49.5564 40.5088 49.5574 40.9117 49.468 41.2988L45.417 59.4323C45.3543 59.6837 45.2118 59.9071 45.0114 60.068C44.811 60.229 44.5638 60.3186 44.3082 60.3229V60.3229Z" fill="white" stroke="white"/>
<path fill-rule="evenodd" clip-rule="evenodd" d="M44.3082 60.3229H19.1351C18.8265 60.3229 18.5305 60.1986 18.3123 59.9773C18.094 59.756 17.9714 59.4559 17.9714 59.1429C17.9714 58.83 18.094 58.5298 18.3123 58.3085C18.5305 58.0873 18.8265 57.963 19.1351 57.963H43.3751L47.2284 40.7533C47.2284 40.7533 47.2284 40.6754 47.1516 40.5529C47.0391 40.4233 46.9006 40.3195 46.7453 40.2484C46.5901 40.1774 46.4217 40.1408 46.2514 40.141H13.7887C13.4801 40.141 13.1841 40.0167 12.9659 39.7955C12.7476 39.5742 12.625 39.274 12.625 38.9611C12.625 38.6481 12.7476 38.348 12.9659 38.1267C13.1841 37.9054 13.4801 37.7811 13.7887 37.7811H46.2184C46.7374 37.7833 47.2498 37.8999 47.7199 38.1229C48.19 38.3459 48.6067 38.6699 48.941 39.0724C49.194 39.3761 49.3734 39.7357 49.4649 40.1222C49.5564 40.5088 49.5574 40.9117 49.468 41.2988L45.417 59.4323C45.3543 59.6837 45.2118 59.9071 45.0114 60.068C44.811 60.229 44.5638 60.3186 44.3082 60.3229V60.3229Z" fill="white" stroke="white"/>
<path fill-rule="evenodd" clip-rule="evenodd" d="M25.1948 67.2467C24.9278 67.2467 24.6667 67.3271 24.4446 67.4775C24.2226 67.628 24.0495 67.8418 23.9473 68.092C23.8451 68.3422 23.8184 68.6175 23.8705 68.8831C23.9226 69.1487 24.0512 69.3926 24.24 69.5841C24.4288 69.7756 24.6695 69.906 24.9314 69.9588C25.1933 70.0117 25.4648 69.9845 25.7116 69.8809C25.9583 69.7773 26.1692 69.6018 26.3176 69.3766C26.466 69.1515 26.5451 68.8868 26.5451 68.6159C26.5451 68.4361 26.5102 68.2581 26.4423 68.092C26.3745 67.9259 26.275 67.7749 26.1496 67.6478C26.0242 67.5206 25.8754 67.4198 25.7116 67.351C25.5478 67.2821 25.3722 67.2467 25.1948 67.2467ZM25.1948 72.3339C24.4701 72.3317 23.7622 72.1118 23.1607 71.7019C22.5592 71.2921 22.0909 70.7106 21.8151 70.0311C21.5392 69.3515 21.4681 68.6043 21.6109 67.8838C21.7536 67.1633 22.1037 66.5019 22.6169 65.983C23.1302 65.4641 23.7835 65.1111 24.4945 64.9686C25.2055 64.826 25.9422 64.9003 26.6115 65.182C27.2809 65.4638 27.8529 65.9403 28.2553 66.5515C28.6577 67.1627 28.8725 67.8811 28.8725 68.6159C28.8696 69.603 28.4809 70.5487 27.7915 71.2456C27.1021 71.9426 26.1683 72.3339 25.1948 72.3339V72.3339Z" fill="white" stroke="white"/>
<path fill-rule="evenodd" clip-rule="evenodd" d="M40.894 67.2691C40.626 67.2669 40.3635 67.3456 40.1397 67.4952C39.916 67.6448 39.7412 67.8585 39.6377 68.1091C39.5341 68.3598 39.5064 68.636 39.5582 68.9027C39.6099 69.1693 39.7388 69.4142 39.9283 69.6064C40.1178 69.7986 40.3594 69.9292 40.6224 69.9817C40.8853 70.0342 41.1577 70.0061 41.4049 69.9011C41.6521 69.7961 41.8628 69.6189 42.0104 69.392C42.1579 69.1651 42.2355 68.8989 42.2334 68.6271C42.2305 68.2679 42.0885 67.9241 41.8379 67.6701C41.5874 67.416 41.2484 67.272 40.894 67.2691V67.2691ZM40.894 72.3451C40.1693 72.3429 39.4614 72.123 38.8599 71.7132C38.2584 71.3033 37.7901 70.7219 37.5143 70.0423C37.2384 69.3627 37.1674 68.6155 37.3101 67.895C37.4528 67.1745 37.8029 66.5131 38.3161 65.9942C38.8293 65.4754 39.4827 65.1224 40.1937 64.9798C40.9047 64.8373 41.6414 64.9115 42.3107 65.1933C42.9801 65.475 43.5521 65.9515 43.9546 66.5627C44.357 67.1739 44.5717 67.8923 44.5717 68.6271C44.5717 69.1163 44.4765 69.6007 44.2916 70.0525C44.1066 70.5044 43.8356 70.9147 43.4939 71.2601C43.1523 71.6055 42.7467 71.8792 42.3006 72.0653C41.8545 72.2515 41.3765 72.3466 40.894 72.3451V72.3451Z" fill="white" stroke="white"/>
<path fill-rule="evenodd" clip-rule="evenodd" d="M10.9014 2.35964C9.77503 2.35525 8.65889 2.57624 7.61689 3.00992C6.57489 3.44361 5.62751 4.08148 4.82901 4.88701C4.03051 5.69253 3.39657 6.64988 2.96354 7.70422C2.5305 8.75855 2.30687 9.88915 2.30544 11.0313V96.9793C2.31125 99.2783 3.21599 101.481 4.82124 103.105C6.42649 104.728 8.60119 105.64 10.8685 105.64H45.1206C47.3878 105.64 49.5625 104.728 51.1678 103.105C52.773 101.481 53.6778 99.2783 53.6836 96.9793V11.0313C53.6807 8.73039 52.7772 6.52475 51.1717 4.89883C49.5661 3.27291 47.3897 2.35964 45.1206 2.35964H10.9014ZM45.1206 108H10.9014C8.01585 108 5.24802 106.84 3.20456 104.774C1.16109 102.708 0.00871762 99.9052 0 96.9793V11.0313C0.00871762 8.1054 1.16109 5.30238 3.20456 3.23661C5.24802 1.17084 8.01585 0.0108509 10.9014 0.0108643H45.1206C48.0051 0.0108583 50.7718 1.1712 52.8135 3.23729C54.8552 5.30338 56.0052 8.10643 56.011 11.0313V96.9904C56.0023 99.9134 54.851 102.714 52.8096 104.777C50.7682 106.841 48.0032 108 45.1206 108V108Z" fill="white" stroke="white"/>
<path fill-rule="evenodd" clip-rule="evenodd" d="M54.8354 16.1187H1.20666C0.898029 16.1187 0.602029 15.9944 0.383794 15.7731C0.165559 15.5518 0.0429688 15.2517 0.0429688 14.9387C0.0429688 14.6258 0.165559 14.3257 0.383794 14.1044C0.602029 13.8831 0.898029 13.7588 1.20666 13.7588H54.8683C55.1769 13.7588 55.4729 13.8831 55.6912 14.1044C55.9094 14.3257 56.032 14.6258 56.032 14.9387C56.032 15.2517 55.9094 15.5518 55.6912 15.7731C55.4729 15.9944 55.1769 16.1187 54.8683 16.1187H54.8354Z" fill="white" stroke="white"/>
<path fill-rule="evenodd" clip-rule="evenodd" d="M54.8354 16.1187H1.20666C0.898029 16.1187 0.602029 15.9944 0.383794 15.7731C0.165559 15.5518 0.0429688 15.2517 0.0429688 14.9387C0.0429688 14.6258 0.165559 14.3257 0.383794 14.1044C0.602029 13.8831 0.898029 13.7588 1.20666 13.7588H54.8683C55.1769 13.7588 55.4729 13.8831 55.6912 14.1044C55.9094 14.3257 56.032 14.6258 56.032 14.9387C56.032 15.2517 55.9094 15.5518 55.6912 15.7731C55.4729 15.9944 55.1769 16.1187 54.8683 16.1187H54.8354Z" fill="white" stroke="white"/>
<path fill-rule="evenodd" clip-rule="evenodd" d="M54.8354 94.2411H1.20666C0.898029 94.2411 0.602029 94.1168 0.383794 93.8956C0.165559 93.6743 0.0429688 93.3741 0.0429688 93.0612C0.0429688 92.7482 0.165559 92.4481 0.383794 92.2268C0.602029 92.0055 0.898029 91.8812 1.20666 91.8812H54.8683C55.1769 91.8812 55.4729 92.0055 55.6912 92.2268C55.9094 92.4481 56.032 92.7482 56.032 93.0612C56.032 93.3741 55.9094 93.6743 55.6912 93.8956C55.4729 94.1168 55.1769 94.2411 54.8683 94.2411H54.8354Z" fill="white" stroke="white"/>
<path fill-rule="evenodd" clip-rule="evenodd" d="M54.8354 94.2411H1.20666C0.898029 94.2411 0.602029 94.1168 0.383794 93.8956C0.165559 93.6743 0.0429688 93.3741 0.0429688 93.0612C0.0429688 92.7482 0.165559 92.4481 0.383794 92.2268C0.602029 92.0055 0.898029 91.8812 1.20666 91.8812H54.8683C55.1769 91.8812 55.4729 92.0055 55.6912 92.2268C55.9094 92.4481 56.032 92.7482 56.032 93.0612C56.032 93.3741 55.9094 93.6743 55.6912 93.8956C55.4729 94.1168 55.1769 94.2411 54.8683 94.2411H54.8354Z" fill="white" stroke="white"/>
<path fill-rule="evenodd" clip-rule="evenodd" d="M38.61 9.23935H22.9879C22.6793 9.23935 22.3833 9.11501 22.165 8.89372C21.9468 8.67244 21.8242 8.3723 21.8242 8.05935C21.8242 7.74641 21.9468 7.4463 22.165 7.22502C22.3833 7.00373 22.6793 6.87939 22.9879 6.87939H38.61C38.9186 6.87939 39.2146 7.00373 39.4328 7.22502C39.651 7.4463 39.7736 7.74641 39.7736 8.05935C39.7736 8.3723 39.651 8.67244 39.4328 8.89372C39.2146 9.11501 38.9186 9.23935 38.61 9.23935Z" fill="white" stroke="white"/>
<path fill-rule="evenodd" clip-rule="evenodd" d="M38.61 9.23935H22.9879C22.6793 9.23935 22.3833 9.11501 22.165 8.89372C21.9468 8.67244 21.8242 8.3723 21.8242 8.05935C21.8242 7.74641 21.9468 7.4463 22.165 7.22502C22.3833 7.00373 22.6793 6.87939 22.9879 6.87939H38.61C38.9186 6.87939 39.2146 7.00373 39.4328 7.22502C39.651 7.4463 39.7736 7.74641 39.7736 8.05935C39.7736 8.3723 39.651 8.67244 39.4328 8.89372C39.2146 9.11501 38.9186 9.23935 38.61 9.23935Z" fill="white" stroke="white"/>
<path fill-rule="evenodd" clip-rule="evenodd" d="M17.4659 9.23935H17.4C17.0914 9.23935 16.7954 9.11501 16.5772 8.89372C16.3589 8.67244 16.2363 8.3723 16.2363 8.05935C16.2363 7.74641 16.3589 7.4463 16.5772 7.22502C16.7954 7.00373 17.0914 6.87939 17.4 6.87939H17.4659C17.7745 6.87939 18.0705 7.00373 18.2888 7.22502C18.507 7.4463 18.6296 7.74641 18.6296 8.05935C18.6296 8.3723 18.507 8.67244 18.2888 8.89372C18.0705 9.11501 17.7745 9.23935 17.4659 9.23935V9.23935Z" fill="white" stroke="white"/>
<path fill-rule="evenodd" clip-rule="evenodd" d="M17.4659 9.23935H17.4C17.0914 9.23935 16.7954 9.11501 16.5772 8.89372C16.3589 8.67244 16.2363 8.3723 16.2363 8.05935C16.2363 7.74641 16.3589 7.4463 16.5772 7.22502C16.7954 7.00373 17.0914 6.87939 17.4 6.87939H17.4659C17.7745 6.87939 18.0705 7.00373 18.2888 7.22502C18.507 7.4463 18.6296 7.74641 18.6296 8.05935C18.6296 8.3723 18.507 8.67244 18.2888 8.89372C18.0705 9.11501 17.7745 9.23935 17.4659 9.23935V9.23935Z" fill="white" stroke="white"/>
<path fill-rule="evenodd" clip-rule="evenodd" d="M27.9941 97.5027C27.519 97.5049 27.0553 97.6498 26.6614 97.919C26.2674 98.1882 25.961 98.5697 25.7807 99.0153C25.6004 99.461 25.5544 99.9508 25.6484 100.423C25.7424 100.895 25.9722 101.328 26.3089 101.668C26.6455 102.008 27.074 102.239 27.54 102.332C28.0061 102.426 28.489 102.377 28.9276 102.192C29.3663 102.007 29.7412 101.694 30.0048 101.294C30.2685 100.893 30.4093 100.422 30.4093 99.9406C30.4064 99.293 30.1507 98.673 29.698 98.2161C29.2454 97.7592 28.6327 97.5027 27.9941 97.5027V97.5027ZM27.9941 104.738C27.0587 104.736 26.145 104.453 25.3683 103.924C24.5916 103.396 23.9869 102.646 23.6304 101.769C23.274 100.892 23.1819 99.9277 23.3657 98.9978C23.5495 98.0678 24.001 97.214 24.6632 96.5441C25.3253 95.8743 26.1685 95.4184 27.086 95.2342C28.0035 95.05 28.9544 95.1456 29.8183 95.5091C30.6823 95.8726 31.4206 96.4875 31.94 97.2763C32.4594 98.065 32.7367 98.9922 32.7367 99.9406C32.7338 101.214 32.2328 102.434 31.3437 103.334C30.4546 104.233 29.25 104.738 27.9941 104.738V104.738Z" fill="white" stroke="white"/>
</g>
<defs>
<clipPath id="clip0_408_202">
<rect width="56" height="108" fill="white"/>
</clipPath>
</defs>
</svg>
