<svg xmlns="http://www.w3.org/2000/svg" xmlns:xlink="http://www.w3.org/1999/xlink" width="100px" zoomAndPan="magnify" viewBox="0 0 375 374.999991" height="100px" preserveAspectRatio="xMidYMid meet" version="1.0"><defs><clipPath id="id1"><path d="M 46.875 0 L 328 0 L 328 375 L 46.875 375 Z M 46.875 0 " clip-rule="nonzero"/></clipPath></defs><g clip-path="url(#id1)"><path fill="#ffffff" d="M 269.085938 180.214844 C 266.113281 184.578125 266.113281 190.421875 269.109375 194.785156 L 315.054688 262.332031 L 302.582031 262.332031 C 302.582031 262.332031 302.558594 262.332031 302.558594 262.332031 C 302.558594 262.332031 302.53125 262.332031 302.53125 262.332031 L 298.636719 262.332031 L 265.96875 214.589844 C 263.652344 211.179688 259.855469 209.132812 255.785156 209.132812 C 251.71875 209.132812 247.917969 211.179688 245.601562 214.589844 L 213.035156 262.332031 L 196.617188 261.820312 L 242.484375 194.785156 C 245.457031 190.421875 245.457031 184.578125 242.460938 180.214844 L 215.203125 140.316406 C 213.253906 137.488281 209.378906 136.757812 206.53125 138.707031 C 203.679688 140.632812 202.972656 144.527344 204.898438 147.378906 L 232.179688 187.742188 L 186.335938 254.78125 C 183.605469 258.753906 183.339844 263.867188 185.582031 268.132812 C 187.75 272.25 191.9375 274.804688 196.519531 274.804688 L 213.035156 274.804688 C 217.078125 274.804688 220.902344 272.785156 223.214844 269.375 L 255.6875 221.605469 L 288.355469 269.375 C 290.253906 272.152344 293.128906 273.929688 296.320312 274.539062 L 296.320312 312.222656 L 84.292969 312.222656 L 84.292969 269.570312 C 92.0625 272.980469 100.46875 274.804688 109.1875 274.804688 C 110.578125 274.804688 111.988281 274.757812 113.378906 274.660156 C 146.019531 272.566406 171.597656 244.378906 171.597656 210.519531 L 171.597656 162.554688 C 171.597656 159.121094 168.796875 156.320312 165.363281 156.320312 C 161.925781 156.320312 159.125 159.121094 159.125 162.554688 L 159.125 210.519531 C 159.125 237.828125 138.6875 260.53125 112.574219 262.210938 C 98.589844 263.136719 85.289062 258.386719 75.132812 248.863281 C 64.949219 239.3125 59.347656 226.378906 59.347656 212.445312 L 59.347656 112.667969 L 78.054688 112.667969 L 78.054688 211.371094 C 78.054688 227.890625 90.40625 241.992188 106.214844 243.480469 C 114.984375 244.332031 123.730469 241.410156 130.210938 235.511719 C 136.691406 229.617188 140.417969 221.214844 140.417969 212.445312 L 140.417969 112.667969 L 159.125 112.667969 L 159.125 137.609375 C 159.125 141.046875 161.925781 143.847656 165.363281 143.847656 C 168.796875 143.847656 171.597656 141.046875 171.597656 137.609375 L 171.597656 112.667969 C 171.597656 105.796875 165.996094 100.195312 159.125 100.195312 L 140.417969 100.195312 C 133.546875 100.195312 127.945312 105.796875 127.945312 112.667969 L 127.945312 212.445312 C 127.945312 217.707031 125.726562 222.75 121.832031 226.28125 C 117.882812 229.863281 112.746094 231.542969 107.386719 231.054688 C 97.933594 230.179688 90.527344 221.53125 90.527344 211.371094 L 90.527344 112.667969 C 90.527344 108.085938 87.996094 104.089844 84.292969 101.921875 L 84.292969 62.777344 L 296.320312 62.777344 L 296.320312 100.460938 C 293.128906 101.070312 290.253906 102.847656 288.355469 105.625 L 255.882812 153.394531 L 223.214844 105.625 C 220.902344 102.214844 217.078125 100.195312 213.035156 100.195312 L 196.519531 100.195312 C 191.9375 100.195312 187.75 102.75 185.582031 106.867188 C 183.339844 111.132812 183.605469 116.246094 186.335938 120.21875 L 192.109375 128.671875 C 194.058594 131.496094 197.929688 132.226562 200.78125 130.277344 C 203.632812 128.355469 204.363281 124.457031 202.414062 121.605469 L 196.519531 112.667969 L 212.9375 112.667969 L 245.601562 160.410156 C 247.917969 163.820312 251.71875 165.867188 255.785156 165.867188 C 259.855469 165.867188 263.652344 163.820312 265.96875 160.410156 L 298.539062 112.667969 L 314.957031 113.179688 Z M 296.320312 212.199219 L 279.390625 187.257812 L 296.320312 162.480469 Z M 296.320312 349.640625 C 296.320312 356.507812 290.71875 362.113281 283.847656 362.113281 L 96.765625 362.113281 C 89.894531 362.113281 84.292969 356.507812 84.292969 349.640625 L 84.292969 324.695312 L 296.320312 324.695312 Z M 96.765625 12.886719 L 283.847656 12.886719 C 290.71875 12.886719 296.320312 18.492188 296.320312 25.359375 L 296.320312 50.304688 L 84.292969 50.304688 L 84.292969 25.359375 C 84.292969 18.492188 89.894531 12.886719 96.765625 12.886719 Z M 308.792969 25.359375 C 308.792969 11.597656 297.613281 0.414062 283.847656 0.414062 L 96.765625 0.414062 C 83 0.414062 71.820312 11.597656 71.820312 25.359375 L 71.820312 100.195312 L 59.347656 100.195312 C 52.476562 100.195312 46.875 105.796875 46.875 112.667969 L 46.875 212.445312 C 46.875 229.617188 54.0625 246.207031 66.605469 257.949219 C 68.261719 259.507812 70.015625 260.945312 71.820312 262.308594 L 71.820312 349.640625 C 71.820312 363.402344 83 374.585938 96.765625 374.585938 L 283.847656 374.585938 C 297.613281 374.585938 308.792969 363.402344 308.792969 349.640625 L 308.792969 274.804688 L 315.054688 274.804688 C 319.632812 274.804688 323.824219 272.25 325.992188 268.132812 C 328.230469 263.867188 327.964844 258.753906 325.234375 254.78125 L 308.792969 230.566406 L 308.792969 144.261719 L 325.234375 120.21875 C 327.964844 116.246094 328.230469 111.132812 325.992188 106.867188 C 323.824219 102.75 319.632812 100.195312 315.054688 100.195312 L 308.792969 100.195312 L 308.792969 25.359375 " fill-opacity="1" fill-rule="nonzero"/></g><path fill="#ffffff" d="M 165.363281 37.832031 L 184.070312 37.832031 C 187.503906 37.832031 190.304688 35.03125 190.304688 31.597656 C 190.304688 28.160156 187.503906 25.359375 184.070312 25.359375 L 165.363281 25.359375 C 161.925781 25.359375 159.125 28.160156 159.125 31.597656 C 159.125 35.03125 161.925781 37.832031 165.363281 37.832031 " fill-opacity="1" fill-rule="nonzero"/><path fill="#ffffff" d="M 184.070312 349.640625 L 196.542969 349.640625 C 199.976562 349.640625 202.777344 346.839844 202.777344 343.402344 C 202.777344 339.96875 199.976562 337.167969 196.542969 337.167969 L 184.070312 337.167969 C 180.636719 337.167969 177.835938 339.96875 177.835938 343.402344 C 177.835938 346.839844 180.636719 349.640625 184.070312 349.640625 " fill-opacity="1" fill-rule="nonzero"/><path fill="#ffffff" d="M 209.015625 37.832031 L 215.25 37.832031 C 218.6875 37.832031 221.488281 35.03125 221.488281 31.597656 C 221.488281 28.160156 218.6875 25.359375 215.25 25.359375 L 209.015625 25.359375 C 205.578125 25.359375 202.777344 28.160156 202.777344 31.597656 C 202.777344 35.03125 205.578125 37.832031 209.015625 37.832031 " fill-opacity="1" fill-rule="nonzero"/></svg>